<svg width="181" height="168" viewBox="0 0 181 168" fill="none" xmlns="http://www.w3.org/2000/svg">
<g style="mix-blend-mode:exclusion" opacity="0.3">
<path d="M-3.94908 149.551L17.6337 151.412C20.9038 151.664 23.8217 154.582 24.0733 157.852L25.9347 179.434C27.2931 183.509 31.9719 185.472 35.896 183.56L44.8008 179.082C46.9641 178.026 48.7752 175.108 48.7752 172.693L48.8255 149.802C48.7752 148.142 49.7311 145.878 50.8882 144.721L65.2264 130.383C67.3394 128.27 69.9052 128.823 71.0623 131.59L85.0986 166.958C87.3123 172.492 92.5444 173.599 96.7704 169.373L103.26 162.883C106.631 159.512 107.989 153.123 106.178 148.695L90.1799 108.448C89.7271 107.291 90.0793 105.53 90.9848 104.624L106.078 89.5314C110.807 84.8024 112.92 75.7467 110.857 69.3574C110.102 67.0934 108.342 65.3326 106.078 64.578C99.6884 62.5153 90.5824 64.6786 85.8533 69.4077L70.7604 84.5005C69.8549 85.4061 68.094 85.7582 66.9369 85.3055L26.7397 69.3574C22.3628 67.4959 15.9735 68.8543 12.6027 72.225L6.11281 78.7149C1.88682 82.9409 2.99363 88.1731 8.52767 90.3867L43.8952 104.423C46.6622 105.48 47.2156 108.146 45.1026 110.259L30.7644 124.597C29.6073 125.754 27.3434 126.71 25.7335 126.71L2.8427 126.76C0.427842 126.76 -2.4398 128.521 -3.54661 130.735L-8.02415 139.64C-10.0365 143.463 -8.12477 148.192 -3.94908 149.551Z" stroke="#292D32" stroke-width="7" stroke-linecap="round" stroke-linejoin="round"/>
</g>
</svg>
