<svg width="253" height="185" viewBox="0 0 253 185" fill="none" xmlns="http://www.w3.org/2000/svg">
<path d="M79.9394 83.866V80.554H76.8974V78.43H79.9394V75.118H82.2434V78.43H85.2854V80.554H82.2434V83.866H79.9394ZM96.4024 85H87.5104V82.534L91.3804 79.222C91.7284 78.922 92.0224 78.652 92.2624 78.412C92.5024 78.16 92.6944 77.92 92.8384 77.692C92.9944 77.452 93.1024 77.218 93.1624 76.99C93.2344 76.762 93.2704 76.516 93.2704 76.252V76C93.2704 75.76 93.2224 75.55 93.1264 75.37C93.0304 75.19 92.9044 75.04 92.7484 74.92C92.5924 74.8 92.4124 74.71 92.2084 74.65C92.0164 74.59 91.8184 74.56 91.6144 74.56C91.3144 74.56 91.0504 74.608 90.8224 74.704C90.6064 74.8 90.4144 74.932 90.2464 75.1C90.0904 75.256 89.9584 75.442 89.8504 75.658C89.7424 75.862 89.6584 76.084 89.5984 76.324L87.2404 75.424C87.3844 74.992 87.5824 74.584 87.8344 74.2C88.0864 73.804 88.3984 73.462 88.7704 73.174C89.1544 72.874 89.6044 72.64 90.1204 72.472C90.6364 72.304 91.2184 72.22 91.8664 72.22C92.5504 72.22 93.1564 72.316 93.6844 72.508C94.2124 72.7 94.6564 72.964 95.0164 73.3C95.3884 73.636 95.6704 74.038 95.8624 74.506C96.0544 74.962 96.1504 75.46 96.1504 76C96.1504 76.54 96.0604 77.032 95.8804 77.476C95.7004 77.92 95.4544 78.34 95.1424 78.736C94.8424 79.12 94.4884 79.486 94.0804 79.834C93.6724 80.182 93.2464 80.536 92.8024 80.896L90.4624 82.732H96.4024V85ZM102.677 85.216C101.033 85.216 99.8153 84.646 99.0233 83.506C98.2313 82.366 97.8353 80.77 97.8353 78.718C97.8353 76.666 98.2313 75.07 99.0233 73.93C99.8153 72.79 101.033 72.22 102.677 72.22C104.321 72.22 105.539 72.79 106.331 73.93C107.123 75.07 107.519 76.666 107.519 78.718C107.519 80.77 107.123 82.366 106.331 83.506C105.539 84.646 104.321 85.216 102.677 85.216ZM102.677 82.93C103.397 82.93 103.895 82.666 104.171 82.138C104.447 81.61 104.585 80.866 104.585 79.906V77.53C104.585 76.57 104.447 75.826 104.171 75.298C103.895 74.77 103.397 74.506 102.677 74.506C101.957 74.506 101.459 74.77 101.183 75.298C100.907 75.826 100.769 76.57 100.769 77.53V79.906C100.769 80.866 100.907 81.61 101.183 82.138C101.459 82.666 101.957 82.93 102.677 82.93ZM109.762 85V82.822H113.146V74.398H112.984L110.428 77.746L108.7 76.396L111.706 72.436H115.846V82.822H118.51V85H109.762ZM124.263 85.216C122.619 85.216 121.401 84.646 120.609 83.506C119.817 82.366 119.421 80.77 119.421 78.718C119.421 76.666 119.817 75.07 120.609 73.93C121.401 72.79 122.619 72.22 124.263 72.22C125.907 72.22 127.125 72.79 127.917 73.93C128.709 75.07 129.105 76.666 129.105 78.718C129.105 80.77 128.709 82.366 127.917 83.506C127.125 84.646 125.907 85.216 124.263 85.216ZM124.263 82.93C124.983 82.93 125.481 82.666 125.757 82.138C126.033 81.61 126.171 80.866 126.171 79.906V77.53C126.171 76.57 126.033 75.826 125.757 75.298C125.481 74.77 124.983 74.506 124.263 74.506C123.543 74.506 123.045 74.77 122.769 75.298C122.493 75.826 122.355 76.57 122.355 77.53V79.906C122.355 80.866 122.493 81.61 122.769 82.138C123.045 82.666 123.543 82.93 124.263 82.93ZM132.644 85L136.856 74.632H132.932V76.918H130.646V72.436H139.538V74.776L135.488 85H132.644ZM145.849 85.216C144.205 85.216 142.987 84.646 142.195 83.506C141.403 82.366 141.007 80.77 141.007 78.718C141.007 76.666 141.403 75.07 142.195 73.93C142.987 72.79 144.205 72.22 145.849 72.22C147.493 72.22 148.711 72.79 149.503 73.93C150.295 75.07 150.691 76.666 150.691 78.718C150.691 80.77 150.295 82.366 149.503 83.506C148.711 84.646 147.493 85.216 145.849 85.216ZM145.849 82.93C146.569 82.93 147.067 82.666 147.343 82.138C147.619 81.61 147.757 80.866 147.757 79.906V77.53C147.757 76.57 147.619 75.826 147.343 75.298C147.067 74.77 146.569 74.506 145.849 74.506C145.129 74.506 144.631 74.77 144.355 75.298C144.079 75.826 143.941 76.57 143.941 77.53V79.906C143.941 80.866 144.079 81.61 144.355 82.138C144.631 82.666 145.129 82.93 145.849 82.93ZM156.642 85.216C155.898 85.216 155.232 85.126 154.644 84.946C154.068 84.754 153.582 84.496 153.186 84.172C152.79 83.848 152.484 83.464 152.268 83.02C152.064 82.576 151.962 82.09 151.962 81.562C151.962 80.758 152.184 80.104 152.628 79.6C153.072 79.084 153.672 78.724 154.428 78.52V78.376C153.816 78.148 153.312 77.8 152.916 77.332C152.532 76.864 152.34 76.264 152.34 75.532C152.34 75.052 152.43 74.608 152.61 74.2C152.802 73.792 153.078 73.444 153.438 73.156C153.81 72.856 154.26 72.628 154.788 72.472C155.328 72.304 155.946 72.22 156.642 72.22C157.338 72.22 157.95 72.304 158.478 72.472C159.018 72.628 159.468 72.856 159.828 73.156C160.2 73.444 160.476 73.792 160.656 74.2C160.848 74.608 160.944 75.052 160.944 75.532C160.944 76.264 160.746 76.864 160.35 77.332C159.966 77.8 159.468 78.148 158.856 78.376V78.52C159.612 78.724 160.212 79.084 160.656 79.6C161.1 80.104 161.322 80.758 161.322 81.562C161.322 82.09 161.214 82.576 160.998 83.02C160.794 83.464 160.494 83.848 160.098 84.172C159.702 84.496 159.21 84.754 158.622 84.946C158.046 85.126 157.386 85.216 156.642 85.216ZM156.642 83.146C157.242 83.146 157.698 83.008 158.01 82.732C158.334 82.444 158.496 82.048 158.496 81.544V81.184C158.496 80.68 158.334 80.29 158.01 80.014C157.698 79.726 157.242 79.582 156.642 79.582C156.042 79.582 155.58 79.726 155.256 80.014C154.944 80.29 154.788 80.68 154.788 81.184V81.544C154.788 82.048 154.944 82.444 155.256 82.732C155.58 83.008 156.042 83.146 156.642 83.146ZM156.642 77.602C157.218 77.602 157.656 77.47 157.956 77.206C158.256 76.93 158.406 76.558 158.406 76.09V75.802C158.406 75.334 158.256 74.968 157.956 74.704C157.656 74.428 157.218 74.29 156.642 74.29C156.066 74.29 155.628 74.428 155.328 74.704C155.028 74.968 154.878 75.334 154.878 75.802V76.09C154.878 76.558 155.028 76.93 155.328 77.206C155.628 77.47 156.066 77.602 156.642 77.602ZM165.023 85L169.235 74.632H165.311V76.918H163.025V72.436H171.917V74.776L167.867 85H165.023ZM174.52 85V82.822H177.904V74.398H177.742L175.186 77.746L173.458 76.396L176.464 72.436H180.604V82.822H183.268V85H174.52ZM189.021 85.216C188.277 85.216 187.611 85.126 187.023 84.946C186.447 84.754 185.961 84.496 185.565 84.172C185.169 83.848 184.863 83.464 184.647 83.02C184.443 82.576 184.341 82.09 184.341 81.562C184.341 80.758 184.563 80.104 185.007 79.6C185.451 79.084 186.051 78.724 186.807 78.52V78.376C186.195 78.148 185.691 77.8 185.295 77.332C184.911 76.864 184.719 76.264 184.719 75.532C184.719 75.052 184.809 74.608 184.989 74.2C185.181 73.792 185.457 73.444 185.817 73.156C186.189 72.856 186.639 72.628 187.167 72.472C187.707 72.304 188.325 72.22 189.021 72.22C189.717 72.22 190.329 72.304 190.857 72.472C191.397 72.628 191.847 72.856 192.207 73.156C192.579 73.444 192.855 73.792 193.035 74.2C193.227 74.608 193.323 75.052 193.323 75.532C193.323 76.264 193.125 76.864 192.729 77.332C192.345 77.8 191.847 78.148 191.235 78.376V78.52C191.991 78.724 192.591 79.084 193.035 79.6C193.479 80.104 193.701 80.758 193.701 81.562C193.701 82.09 193.593 82.576 193.377 83.02C193.173 83.464 192.873 83.848 192.477 84.172C192.081 84.496 191.589 84.754 191.001 84.946C190.425 85.126 189.765 85.216 189.021 85.216ZM189.021 83.146C189.621 83.146 190.077 83.008 190.389 82.732C190.713 82.444 190.875 82.048 190.875 81.544V81.184C190.875 80.68 190.713 80.29 190.389 80.014C190.077 79.726 189.621 79.582 189.021 79.582C188.421 79.582 187.959 79.726 187.635 80.014C187.323 80.29 187.167 80.68 187.167 81.184V81.544C187.167 82.048 187.323 82.444 187.635 82.732C187.959 83.008 188.421 83.146 189.021 83.146ZM189.021 77.602C189.597 77.602 190.035 77.47 190.335 77.206C190.635 76.93 190.785 76.558 190.785 76.09V75.802C190.785 75.334 190.635 74.968 190.335 74.704C190.035 74.428 189.597 74.29 189.021 74.29C188.445 74.29 188.007 74.428 187.707 74.704C187.407 74.968 187.257 75.334 187.257 75.802V76.09C187.257 76.558 187.407 76.93 187.707 77.206C188.007 77.47 188.445 77.602 189.021 77.602ZM204.458 77.206C204.458 78.094 204.32 78.928 204.044 79.708C203.78 80.488 203.432 81.214 203 81.886C202.58 82.546 202.1 83.14 201.56 83.668C201.032 84.196 200.498 84.64 199.958 85H196.232C197 84.448 197.69 83.926 198.302 83.434C198.914 82.93 199.442 82.426 199.886 81.922C200.342 81.418 200.714 80.908 201.002 80.392C201.29 79.864 201.5 79.3 201.632 78.7L201.47 78.646C201.362 78.886 201.23 79.12 201.074 79.348C200.93 79.576 200.744 79.78 200.516 79.96C200.3 80.128 200.042 80.266 199.742 80.374C199.442 80.482 199.094 80.536 198.698 80.536C198.182 80.536 197.696 80.446 197.24 80.266C196.796 80.074 196.406 79.81 196.07 79.474C195.746 79.138 195.488 78.73 195.296 78.25C195.116 77.77 195.026 77.23 195.026 76.63C195.026 75.982 195.134 75.388 195.35 74.848C195.578 74.308 195.896 73.846 196.304 73.462C196.724 73.066 197.222 72.76 197.798 72.544C198.374 72.328 199.022 72.22 199.742 72.22C200.486 72.22 201.152 72.34 201.74 72.58C202.328 72.808 202.82 73.144 203.216 73.588C203.624 74.02 203.93 74.542 204.134 75.154C204.35 75.766 204.458 76.45 204.458 77.206ZM199.742 78.466C200.342 78.466 200.81 78.304 201.146 77.98C201.482 77.644 201.65 77.17 201.65 76.558V76.234C201.65 75.622 201.482 75.154 201.146 74.83C200.81 74.494 200.342 74.326 199.742 74.326C199.142 74.326 198.674 74.494 198.338 74.83C198.002 75.154 197.834 75.622 197.834 76.234V76.558C197.834 77.17 198.002 77.644 198.338 77.98C198.674 78.304 199.142 78.466 199.742 78.466ZM210.679 85.216C209.935 85.216 209.269 85.102 208.681 84.874C208.093 84.634 207.595 84.298 207.187 83.866C206.791 83.422 206.485 82.894 206.269 82.282C206.065 81.67 205.963 80.986 205.963 80.23C205.963 79.354 206.095 78.526 206.359 77.746C206.635 76.954 206.983 76.228 207.403 75.568C207.835 74.896 208.315 74.296 208.843 73.768C209.383 73.24 209.923 72.796 210.463 72.436H214.189C213.421 72.988 212.731 73.516 212.119 74.02C211.507 74.512 210.973 75.01 210.517 75.514C210.073 76.018 209.701 76.534 209.401 77.062C209.113 77.578 208.909 78.136 208.789 78.736L208.951 78.79C209.059 78.55 209.185 78.316 209.329 78.088C209.485 77.86 209.671 77.662 209.887 77.494C210.115 77.314 210.379 77.17 210.679 77.062C210.979 76.954 211.327 76.9 211.723 76.9C212.239 76.9 212.719 76.996 213.163 77.188C213.619 77.368 214.009 77.626 214.333 77.962C214.669 78.298 214.927 78.712 215.107 79.204C215.299 79.684 215.395 80.218 215.395 80.806C215.395 81.454 215.281 82.048 215.053 82.588C214.837 83.128 214.519 83.596 214.099 83.992C213.691 84.376 213.199 84.676 212.623 84.892C212.047 85.108 211.399 85.216 210.679 85.216ZM210.679 83.11C211.279 83.11 211.747 82.948 212.083 82.624C212.419 82.288 212.587 81.814 212.587 81.202V80.878C212.587 80.266 212.419 79.798 212.083 79.474C211.747 79.138 211.279 78.97 210.679 78.97C210.079 78.97 209.611 79.138 209.275 79.474C208.939 79.798 208.771 80.266 208.771 80.878V81.202C208.771 81.814 208.939 82.288 209.275 82.624C209.611 82.948 210.079 83.11 210.679 83.11ZM37.3042 115.966C36.8962 115.966 36.5962 115.87 36.4042 115.678C36.2242 115.486 36.1342 115.24 36.1342 114.94V114.634C36.1342 114.334 36.2242 114.088 36.4042 113.896C36.5962 113.704 36.8962 113.608 37.3042 113.608C37.7122 113.608 38.0062 113.704 38.1862 113.896C38.3662 114.088 38.4562 114.334 38.4562 114.634V114.94C38.4562 115.24 38.3662 115.486 38.1862 115.678C38.0062 115.87 37.7122 115.966 37.3042 115.966ZM36.3142 117.64H38.2762V127H36.3142V117.64ZM41.0778 127V117.64H43.0398V119.188H43.1298C43.3338 118.684 43.6398 118.264 44.0478 117.928C44.4678 117.592 45.0378 117.424 45.7578 117.424C46.7178 117.424 47.4618 117.742 47.9898 118.378C48.5298 119.002 48.7998 119.896 48.7998 121.06V127H46.8378V121.312C46.8378 119.848 46.2498 119.116 45.0738 119.116C44.8218 119.116 44.5698 119.152 44.3178 119.224C44.0778 119.284 43.8618 119.38 43.6698 119.512C43.4778 119.644 43.3218 119.812 43.2018 120.016C43.0938 120.22 43.0398 120.46 43.0398 120.736V127H41.0778ZM52.0052 119.242H50.5832V117.64H52.0052V116.092C52.0052 115.336 52.2032 114.748 52.5992 114.328C52.9952 113.896 53.5892 113.68 54.3812 113.68H55.9292V115.282H53.9672V117.64H55.9292V119.242H53.9672V127H52.0052V119.242ZM61.2381 127.216C60.5901 127.216 59.9961 127.102 59.4561 126.874C58.9281 126.646 58.4781 126.322 58.1061 125.902C57.7341 125.47 57.4461 124.954 57.2421 124.354C57.0381 123.742 56.9361 123.064 56.9361 122.32C56.9361 121.576 57.0381 120.904 57.2421 120.304C57.4461 119.692 57.7341 119.176 58.1061 118.756C58.4781 118.324 58.9281 117.994 59.4561 117.766C59.9961 117.538 60.5901 117.424 61.2381 117.424C61.8861 117.424 62.4741 117.538 63.0021 117.766C63.5421 117.994 63.9981 118.324 64.3701 118.756C64.7421 119.176 65.0301 119.692 65.2341 120.304C65.4381 120.904 65.5401 121.576 65.5401 122.32C65.5401 123.064 65.4381 123.742 65.2341 124.354C65.0301 124.954 64.7421 125.47 64.3701 125.902C63.9981 126.322 63.5421 126.646 63.0021 126.874C62.4741 127.102 61.8861 127.216 61.2381 127.216ZM61.2381 125.596C61.9101 125.596 62.4501 125.392 62.8581 124.984C63.2661 124.564 63.4701 123.94 63.4701 123.112V121.528C63.4701 120.7 63.2661 120.082 62.8581 119.674C62.4501 119.254 61.9101 119.044 61.2381 119.044C60.5661 119.044 60.0261 119.254 59.6181 119.674C59.2101 120.082 59.0061 120.7 59.0061 121.528V123.112C59.0061 123.94 59.2101 124.564 59.6181 124.984C60.0261 125.392 60.5661 125.596 61.2381 125.596ZM78.4903 129.178H74.4763C73.3963 129.178 72.4243 128.998 71.5603 128.638C70.6963 128.29 69.9583 127.792 69.3463 127.144C68.7463 126.496 68.2783 125.722 67.9423 124.822C67.6183 123.91 67.4563 122.902 67.4563 121.798C67.4563 120.694 67.6243 119.68 67.9603 118.756C68.2963 117.832 68.7703 117.04 69.3823 116.38C70.0063 115.708 70.7563 115.186 71.6323 114.814C72.5203 114.442 73.5043 114.256 74.5843 114.256C75.5083 114.256 76.3783 114.4 77.1943 114.688C78.0223 114.964 78.7423 115.39 79.3543 115.966C79.9663 116.53 80.4523 117.238 80.8123 118.09C81.1723 118.942 81.3523 119.944 81.3523 121.096C81.3523 121.756 81.2863 122.368 81.1543 122.932C81.0223 123.484 80.8183 123.964 80.5423 124.372C80.2783 124.78 79.9423 125.098 79.5343 125.326C79.1263 125.554 78.6523 125.668 78.1123 125.668C77.5003 125.668 77.0263 125.524 76.6903 125.236C76.3543 124.936 76.1623 124.546 76.1143 124.066H76.0243C75.8443 124.558 75.5743 124.948 75.2143 125.236C74.8663 125.524 74.4163 125.668 73.8643 125.668C73.4563 125.668 73.0723 125.59 72.7123 125.434C72.3523 125.266 72.0343 125.026 71.7583 124.714C71.4943 124.39 71.2843 123.988 71.1283 123.508C70.9723 123.016 70.8943 122.446 70.8943 121.798C70.8943 121.15 70.9723 120.586 71.1283 120.106C71.2843 119.614 71.4943 119.212 71.7583 118.9C72.0343 118.576 72.3523 118.336 72.7123 118.18C73.0723 118.012 73.4563 117.928 73.8643 117.928C74.4163 117.928 74.8483 118.066 75.1603 118.342C75.4723 118.606 75.6943 118.93 75.8263 119.314H75.9163V118.09H77.4823V123.31C77.4823 123.706 77.5543 123.982 77.6983 124.138C77.8543 124.294 78.0823 124.372 78.3823 124.372C78.8863 124.372 79.2703 124.114 79.5343 123.598C79.8103 123.07 79.9483 122.32 79.9483 121.348V120.646C79.9483 119.866 79.8103 119.164 79.5343 118.54C79.2703 117.904 78.8983 117.37 78.4183 116.938C77.9383 116.494 77.3683 116.152 76.7083 115.912C76.0483 115.672 75.3343 115.552 74.5663 115.552C73.7143 115.552 72.9343 115.702 72.2263 116.002C71.5303 116.29 70.9303 116.692 70.4263 117.208C69.9343 117.712 69.5503 118.318 69.2743 119.026C68.9983 119.722 68.8603 120.484 68.8603 121.312V122.212C68.8603 123.052 68.9923 123.82 69.2563 124.516C69.5323 125.2 69.9163 125.794 70.4083 126.298C70.9003 126.79 71.4883 127.174 72.1723 127.45C72.8683 127.726 73.6423 127.864 74.4943 127.864H78.4903V129.178ZM74.3323 124.282C74.8363 124.282 75.2263 124.144 75.5023 123.868C75.7783 123.592 75.9163 123.238 75.9163 122.806V120.646C75.9163 120.262 75.7783 119.944 75.5023 119.692C75.2263 119.428 74.8363 119.296 74.3323 119.296C73.7803 119.296 73.3603 119.464 73.0723 119.8C72.7843 120.124 72.6403 120.556 72.6403 121.096V122.482C72.6403 123.022 72.7843 123.46 73.0723 123.796C73.3603 124.12 73.7803 124.282 74.3323 124.282ZM92.0358 127.882C92.0358 128.854 91.6638 129.586 90.9198 130.078C90.1758 130.57 88.9638 130.816 87.2838 130.816C86.5158 130.816 85.8618 130.762 85.3218 130.654C84.7938 130.558 84.3558 130.414 84.0078 130.222C83.6718 130.03 83.4258 129.796 83.2698 129.52C83.1138 129.244 83.0358 128.926 83.0358 128.566C83.0358 128.05 83.1738 127.648 83.4498 127.36C83.7378 127.072 84.1338 126.874 84.6378 126.766V126.568C83.9298 126.34 83.5758 125.86 83.5758 125.128C83.5758 124.648 83.7378 124.282 84.0618 124.03C84.3858 123.766 84.7758 123.58 85.2318 123.472V123.4C84.6798 123.136 84.2538 122.77 83.9538 122.302C83.6658 121.822 83.5218 121.264 83.5218 120.628C83.5218 119.668 83.8398 118.894 84.4758 118.306C85.1238 117.718 86.0478 117.424 87.2478 117.424C87.9078 117.424 88.4718 117.52 88.9398 117.712V117.46C88.9398 117.04 89.0358 116.716 89.2278 116.488C89.4318 116.248 89.7438 116.128 90.1638 116.128H91.6038V117.712H89.6958V118.09C90.1158 118.366 90.4398 118.726 90.6678 119.17C90.8958 119.602 91.0098 120.088 91.0098 120.628C91.0098 121.576 90.6858 122.344 90.0378 122.932C89.3898 123.508 88.4658 123.796 87.2658 123.796C86.8098 123.796 86.4018 123.748 86.0418 123.652C85.8018 123.736 85.5918 123.856 85.4118 124.012C85.2318 124.156 85.1418 124.348 85.1418 124.588C85.1418 124.84 85.2558 125.02 85.4838 125.128C85.7118 125.236 86.0358 125.29 86.4558 125.29H88.7598C89.9118 125.29 90.7458 125.524 91.2618 125.992C91.7778 126.448 92.0358 127.078 92.0358 127.882ZM90.1998 128.098C90.1998 127.774 90.0738 127.516 89.8218 127.324C89.5818 127.132 89.1378 127.036 88.4898 127.036H85.3218C84.8898 127.288 84.6738 127.648 84.6738 128.116C84.6738 128.5 84.8238 128.806 85.1238 129.034C85.4358 129.274 85.9578 129.394 86.6898 129.394H87.9138C89.4378 129.394 90.1998 128.962 90.1998 128.098ZM87.2658 122.374C87.8418 122.374 88.2858 122.248 88.5978 121.996C88.9218 121.732 89.0838 121.33 89.0838 120.79V120.43C89.0838 119.89 88.9218 119.494 88.5978 119.242C88.2858 118.978 87.8418 118.846 87.2658 118.846C86.6898 118.846 86.2398 118.978 85.9158 119.242C85.6038 119.494 85.4478 119.89 85.4478 120.43V120.79C85.4478 121.33 85.6038 121.732 85.9158 121.996C86.2398 122.248 86.6898 122.374 87.2658 122.374ZM95.4938 127C94.8218 127 94.3178 126.832 93.9818 126.496C93.6578 126.148 93.4958 125.668 93.4958 125.056V113.68H95.4578V125.398H96.7538V127H95.4938ZM102.301 127.216C101.629 127.216 101.029 127.102 100.501 126.874C99.9726 126.646 99.5226 126.322 99.1506 125.902C98.7786 125.47 98.4906 124.954 98.2866 124.354C98.0946 123.742 97.9986 123.064 97.9986 122.32C97.9986 121.576 98.0946 120.904 98.2866 120.304C98.4906 119.692 98.7786 119.176 99.1506 118.756C99.5226 118.324 99.9726 117.994 100.501 117.766C101.029 117.538 101.629 117.424 102.301 117.424C102.985 117.424 103.585 117.544 104.101 117.784C104.629 118.024 105.067 118.36 105.415 118.792C105.763 119.212 106.021 119.704 106.189 120.268C106.369 120.832 106.459 121.438 106.459 122.086V122.824H100.033V123.13C100.033 123.85 100.243 124.444 100.663 124.912C101.095 125.368 101.707 125.596 102.499 125.596C103.075 125.596 103.561 125.47 103.957 125.218C104.353 124.966 104.689 124.624 104.965 124.192L106.117 125.326C105.769 125.902 105.265 126.364 104.605 126.712C103.945 127.048 103.177 127.216 102.301 127.216ZM102.301 118.954C101.965 118.954 101.653 119.014 101.365 119.134C101.089 119.254 100.849 119.422 100.645 119.638C100.453 119.854 100.303 120.112 100.195 120.412C100.087 120.712 100.033 121.042 100.033 121.402V121.528H104.389V121.348C104.389 120.628 104.203 120.052 103.831 119.62C103.459 119.176 102.949 118.954 102.301 118.954ZM112.303 127.216C111.631 127.216 111.031 127.102 110.503 126.874C109.975 126.646 109.525 126.322 109.153 125.902C108.781 125.47 108.493 124.954 108.289 124.354C108.097 123.742 108.001 123.064 108.001 122.32C108.001 121.576 108.097 120.904 108.289 120.304C108.493 119.692 108.781 119.176 109.153 118.756C109.525 118.324 109.975 117.994 110.503 117.766C111.031 117.538 111.631 117.424 112.303 117.424C112.987 117.424 113.587 117.544 114.103 117.784C114.631 118.024 115.069 118.36 115.417 118.792C115.765 119.212 116.023 119.704 116.191 120.268C116.371 120.832 116.461 121.438 116.461 122.086V122.824H110.035V123.13C110.035 123.85 110.245 124.444 110.665 124.912C111.097 125.368 111.709 125.596 112.501 125.596C113.077 125.596 113.563 125.47 113.959 125.218C114.355 124.966 114.691 124.624 114.967 124.192L116.119 125.326C115.771 125.902 115.267 126.364 114.607 126.712C113.947 127.048 113.179 127.216 112.303 127.216ZM112.303 118.954C111.967 118.954 111.655 119.014 111.367 119.134C111.091 119.254 110.851 119.422 110.647 119.638C110.455 119.854 110.305 120.112 110.197 120.412C110.089 120.712 110.035 121.042 110.035 121.402V121.528H114.391V121.348C114.391 120.628 114.205 120.052 113.833 119.62C113.461 119.176 112.951 118.954 112.303 118.954ZM118.633 127V117.64H120.595V119.188H120.685C120.781 118.948 120.895 118.72 121.027 118.504C121.171 118.288 121.339 118.102 121.531 117.946C121.735 117.778 121.969 117.652 122.233 117.568C122.509 117.472 122.827 117.424 123.187 117.424C123.823 117.424 124.387 117.58 124.879 117.892C125.371 118.204 125.731 118.684 125.959 119.332H126.013C126.181 118.804 126.505 118.354 126.985 117.982C127.465 117.61 128.083 117.424 128.839 117.424C129.775 117.424 130.501 117.742 131.017 118.378C131.533 119.002 131.791 119.896 131.791 121.06V127H129.829V121.294C129.829 120.574 129.691 120.034 129.415 119.674C129.139 119.302 128.701 119.116 128.101 119.116C127.849 119.116 127.609 119.152 127.381 119.224C127.153 119.284 126.949 119.38 126.769 119.512C126.601 119.644 126.463 119.812 126.355 120.016C126.247 120.22 126.193 120.454 126.193 120.718V127H124.231V121.294C124.231 119.842 123.661 119.116 122.521 119.116C122.281 119.116 122.041 119.152 121.801 119.224C121.573 119.284 121.369 119.38 121.189 119.512C121.009 119.644 120.865 119.812 120.757 120.016C120.649 120.22 120.595 120.454 120.595 120.718V127H118.633ZM137.098 127C136.414 127 135.898 126.826 135.55 126.478C135.202 126.118 135.028 125.614 135.028 124.966V119.242H133.57V117.64H134.362C134.686 117.64 134.908 117.568 135.028 117.424C135.16 117.28 135.226 117.046 135.226 116.722V115.084H136.99V117.64H138.952V119.242H136.99V125.398H138.808V127H137.098ZM144.681 127.216C144.033 127.216 143.439 127.102 142.899 126.874C142.371 126.646 141.921 126.322 141.549 125.902C141.177 125.47 140.889 124.954 140.685 124.354C140.481 123.742 140.379 123.064 140.379 122.32C140.379 121.576 140.481 120.904 140.685 120.304C140.889 119.692 141.177 119.176 141.549 118.756C141.921 118.324 142.371 117.994 142.899 117.766C143.439 117.538 144.033 117.424 144.681 117.424C145.329 117.424 145.917 117.538 146.445 117.766C146.985 117.994 147.441 118.324 147.813 118.756C148.185 119.176 148.473 119.692 148.677 120.304C148.881 120.904 148.983 121.576 148.983 122.32C148.983 123.064 148.881 123.742 148.677 124.354C148.473 124.954 148.185 125.47 147.813 125.902C147.441 126.322 146.985 126.646 146.445 126.874C145.917 127.102 145.329 127.216 144.681 127.216ZM144.681 125.596C145.353 125.596 145.893 125.392 146.301 124.984C146.709 124.564 146.913 123.94 146.913 123.112V121.528C146.913 120.7 146.709 120.082 146.301 119.674C145.893 119.254 145.353 119.044 144.681 119.044C144.009 119.044 143.469 119.254 143.061 119.674C142.653 120.082 142.449 120.7 142.449 121.528V123.112C142.449 123.94 142.653 124.564 143.061 124.984C143.469 125.392 144.009 125.596 144.681 125.596ZM156.84 125.452H156.768C156.684 125.68 156.57 125.902 156.426 126.118C156.294 126.334 156.12 126.526 155.904 126.694C155.7 126.85 155.448 126.976 155.148 127.072C154.86 127.168 154.524 127.216 154.14 127.216C153.168 127.216 152.412 126.904 151.872 126.28C151.344 125.656 151.08 124.762 151.08 123.598V117.64H153.042V123.346C153.042 124.798 153.642 125.524 154.842 125.524C155.094 125.524 155.34 125.494 155.58 125.434C155.82 125.362 156.03 125.26 156.21 125.128C156.402 124.996 156.552 124.828 156.66 124.624C156.78 124.42 156.84 124.18 156.84 123.904V117.64H158.802V127H156.84V125.452ZM161.611 127V117.64H163.573V119.44H163.663C163.795 118.96 164.071 118.54 164.491 118.18C164.911 117.82 165.493 117.64 166.237 117.64H166.759V119.53H165.985C165.205 119.53 164.605 119.656 164.185 119.908C163.777 120.16 163.573 120.532 163.573 121.024V127H161.611ZM171.472 127.216C170.584 127.216 169.84 127.06 169.24 126.748C168.64 126.436 168.118 126.004 167.674 125.452L168.934 124.3C169.282 124.72 169.666 125.05 170.086 125.29C170.518 125.518 171.016 125.632 171.58 125.632C172.156 125.632 172.582 125.524 172.858 125.308C173.146 125.08 173.29 124.768 173.29 124.372C173.29 124.072 173.188 123.82 172.984 123.616C172.792 123.4 172.45 123.262 171.958 123.202L171.094 123.094C170.134 122.974 169.378 122.698 168.826 122.266C168.286 121.822 168.016 121.168 168.016 120.304C168.016 119.848 168.1 119.446 168.268 119.098C168.436 118.738 168.67 118.438 168.97 118.198C169.282 117.946 169.648 117.754 170.068 117.622C170.5 117.49 170.974 117.424 171.49 117.424C172.33 117.424 173.014 117.556 173.542 117.82C174.082 118.084 174.562 118.45 174.982 118.918L173.776 120.07C173.536 119.782 173.218 119.536 172.822 119.332C172.438 119.116 171.994 119.008 171.49 119.008C170.95 119.008 170.548 119.116 170.284 119.332C170.032 119.548 169.906 119.83 169.906 120.178C169.906 120.538 170.02 120.808 170.248 120.988C170.476 121.168 170.842 121.3 171.346 121.384L172.21 121.492C173.242 121.648 173.992 121.954 174.46 122.41C174.94 122.854 175.18 123.454 175.18 124.21C175.18 124.666 175.09 125.08 174.91 125.452C174.742 125.812 174.496 126.124 174.172 126.388C173.848 126.652 173.458 126.856 173.002 127C172.546 127.144 172.036 127.216 171.472 127.216ZM178.497 127.216C178.053 127.216 177.723 127.102 177.507 126.874C177.291 126.634 177.183 126.34 177.183 125.992V125.722C177.183 125.374 177.291 125.086 177.507 124.858C177.723 124.618 178.053 124.498 178.497 124.498C178.941 124.498 179.271 124.618 179.487 124.858C179.703 125.086 179.811 125.374 179.811 125.722V125.992C179.811 126.34 179.703 126.634 179.487 126.874C179.271 127.102 178.941 127.216 178.497 127.216ZM185.918 127.216C185.246 127.216 184.646 127.102 184.118 126.874C183.59 126.646 183.146 126.322 182.786 125.902C182.426 125.47 182.15 124.954 181.958 124.354C181.766 123.742 181.67 123.064 181.67 122.32C181.67 121.576 181.766 120.904 181.958 120.304C182.15 119.692 182.426 119.176 182.786 118.756C183.146 118.324 183.59 117.994 184.118 117.766C184.646 117.538 185.246 117.424 185.918 117.424C186.854 117.424 187.622 117.634 188.222 118.054C188.822 118.474 189.26 119.032 189.536 119.728L187.916 120.484C187.784 120.052 187.55 119.71 187.214 119.458C186.89 119.194 186.458 119.062 185.918 119.062C185.198 119.062 184.652 119.29 184.28 119.746C183.92 120.19 183.74 120.772 183.74 121.492V123.166C183.74 123.886 183.92 124.474 184.28 124.93C184.652 125.374 185.198 125.596 185.918 125.596C186.494 125.596 186.95 125.458 187.286 125.182C187.634 124.894 187.91 124.516 188.114 124.048L189.608 124.84C189.296 125.608 188.828 126.196 188.204 126.604C187.58 127.012 186.818 127.216 185.918 127.216ZM195.043 127.216C194.395 127.216 193.801 127.102 193.261 126.874C192.733 126.646 192.283 126.322 191.911 125.902C191.539 125.47 191.251 124.954 191.047 124.354C190.843 123.742 190.741 123.064 190.741 122.32C190.741 121.576 190.843 120.904 191.047 120.304C191.251 119.692 191.539 119.176 191.911 118.756C192.283 118.324 192.733 117.994 193.261 117.766C193.801 117.538 194.395 117.424 195.043 117.424C195.691 117.424 196.279 117.538 196.807 117.766C197.347 117.994 197.803 118.324 198.175 118.756C198.547 119.176 198.835 119.692 199.039 120.304C199.243 120.904 199.345 121.576 199.345 122.32C199.345 123.064 199.243 123.742 199.039 124.354C198.835 124.954 198.547 125.47 198.175 125.902C197.803 126.322 197.347 126.646 196.807 126.874C196.279 127.102 195.691 127.216 195.043 127.216ZM195.043 125.596C195.715 125.596 196.255 125.392 196.663 124.984C197.071 124.564 197.275 123.94 197.275 123.112V121.528C197.275 120.7 197.071 120.082 196.663 119.674C196.255 119.254 195.715 119.044 195.043 119.044C194.371 119.044 193.831 119.254 193.423 119.674C193.015 120.082 192.811 120.7 192.811 121.528V123.112C192.811 123.94 193.015 124.564 193.423 124.984C193.831 125.392 194.371 125.596 195.043 125.596ZM201.531 127V117.64H203.493V119.188H203.583C203.679 118.948 203.793 118.72 203.925 118.504C204.069 118.288 204.237 118.102 204.429 117.946C204.633 117.778 204.867 117.652 205.131 117.568C205.407 117.472 205.725 117.424 206.085 117.424C206.721 117.424 207.285 117.58 207.777 117.892C208.269 118.204 208.629 118.684 208.857 119.332H208.911C209.079 118.804 209.403 118.354 209.883 117.982C210.363 117.61 210.981 117.424 211.737 117.424C212.673 117.424 213.399 117.742 213.915 118.378C214.431 119.002 214.689 119.896 214.689 121.06V127H212.727V121.294C212.727 120.574 212.589 120.034 212.313 119.674C212.037 119.302 211.599 119.116 210.999 119.116C210.747 119.116 210.507 119.152 210.279 119.224C210.051 119.284 209.847 119.38 209.667 119.512C209.499 119.644 209.361 119.812 209.253 120.016C209.145 120.22 209.091 120.454 209.091 120.718V127H207.129V121.294C207.129 119.842 206.559 119.116 205.419 119.116C205.179 119.116 204.939 119.152 204.699 119.224C204.471 119.284 204.267 119.38 204.087 119.512C203.907 119.644 203.763 119.812 203.655 120.016C203.547 120.22 203.493 120.454 203.493 120.718V127H201.531ZM7.87809 169.216C6.59409 169.216 5.51409 169.144 4.63809 169C3.76209 168.868 3.05409 168.652 2.51409 168.352C1.97409 168.04 1.58409 167.638 1.34409 167.146C1.11609 166.642 1.00209 166.03 1.00209 165.31C1.00209 164.35 1.24809 163.276 1.74009 162.088L3.12609 162.502C2.89809 162.982 2.72409 163.426 2.60409 163.834C2.48409 164.23 2.42409 164.602 2.42409 164.95C2.42409 165.658 2.75409 166.174 3.41409 166.498C4.08609 166.81 5.17809 166.966 6.69009 166.966H9.21009C10.0381 166.966 10.7221 166.948 11.2621 166.912C11.8141 166.864 12.2521 166.786 12.5761 166.678C12.9001 166.57 13.1281 166.426 13.2601 166.246C13.4041 166.066 13.4761 165.838 13.4761 165.562C13.4761 165.37 13.4641 165.13 13.4401 164.842C13.4161 164.542 13.3561 164.146 13.2601 163.654L12.9721 162.088L14.5381 161.836L14.7901 163.402C14.8501 163.858 14.8981 164.272 14.9341 164.644C14.9701 165.004 14.9881 165.31 14.9881 165.562C14.9881 166.27 14.8741 166.858 14.6461 167.326C14.4181 167.794 14.0281 168.166 13.4761 168.442C12.9361 168.718 12.2101 168.916 11.2981 169.036C10.3861 169.156 9.24609 169.216 7.87809 169.216ZM7.78809 172.726C7.51209 172.726 7.29009 172.642 7.12209 172.474C6.96609 172.306 6.88809 172.048 6.88809 171.7C6.88809 171.34 6.96609 171.076 7.12209 170.908C7.29009 170.752 7.51209 170.674 7.78809 170.674H8.05809C8.33409 170.674 8.55609 170.752 8.72409 170.908C8.89209 171.076 8.97609 171.34 8.97609 171.7C8.97609 172.048 8.89209 172.306 8.72409 172.474C8.55609 172.642 8.33409 172.726 8.05809 172.726H7.78809ZM18.1993 169C17.5873 169 17.1073 168.838 16.7593 168.514C16.4113 168.19 16.2373 167.686 16.2373 167.002V165.688H17.8393V166.966H20.7193C21.2833 166.966 21.6673 166.852 21.8713 166.624C22.0873 166.396 22.1953 166.108 22.1953 165.76C22.1953 165.4 22.0573 165.016 21.7813 164.608C21.5053 164.2 21.0313 163.672 20.3593 163.024L18.5233 161.134L19.9813 159.658L21.6373 161.458C22.0333 161.878 22.3633 162.274 22.6273 162.646C22.9033 163.006 23.1253 163.36 23.2933 163.708C23.4613 164.044 23.5813 164.386 23.6533 164.734C23.7373 165.07 23.7793 165.436 23.7793 165.832C23.7793 166.828 23.4973 167.608 22.9333 168.172C22.3693 168.724 21.5713 169 20.5393 169H18.1993ZM25.4412 167.002L28.7172 163.924L24.2712 159.244L25.4952 158.02L29.9772 162.736C30.1692 162.556 30.3252 162.382 30.4452 162.214C30.5772 162.034 30.6792 161.854 30.7512 161.674C30.8352 161.482 30.8892 161.272 30.9132 161.044C30.9492 160.816 30.9672 160.552 30.9672 160.252V155.68H32.6592V160.252C32.6592 160.648 32.6292 160.996 32.5692 161.296C32.5212 161.596 32.4312 161.884 32.2992 162.16C32.1672 162.424 31.9932 162.688 31.7772 162.952C31.5732 163.204 31.3092 163.48 30.9852 163.78L31.8852 164.734C32.3412 165.202 32.6532 165.61 32.8212 165.958C33.0012 166.294 33.0912 166.654 33.0912 167.038C33.0912 167.302 33.0432 167.554 32.9472 167.794C32.8512 168.034 32.7132 168.244 32.5332 168.424C32.3652 168.604 32.1552 168.748 31.9032 168.856C31.6512 168.952 31.3632 169 31.0392 169H25.4412V167.002ZM29.6892 164.95L27.5292 166.894L27.5472 166.966H31.6332L29.6892 164.95ZM35.0799 155.68H36.7539V169H35.0799V155.68ZM50.8078 169C49.7158 169 48.9298 168.778 48.4498 168.334C47.9818 167.878 47.7478 167.176 47.7478 166.228V166.012H47.6578C47.4778 166.684 47.1958 167.17 46.8118 167.47C46.4278 167.758 45.9238 167.902 45.2998 167.902C44.4718 167.902 43.8358 167.68 43.3918 167.236C42.9478 166.792 42.7258 166.168 42.7258 165.364C42.7258 164.956 42.7858 164.584 42.9058 164.248C43.0258 163.9 43.2118 163.576 43.4638 163.276C43.7158 162.976 44.0278 162.694 44.3998 162.43C44.7838 162.154 45.2338 161.878 45.7498 161.602L47.6578 160.594V159.64H49.2958V165.832C49.2958 166.264 49.4038 166.564 49.6198 166.732C49.8358 166.888 50.1778 166.966 50.6458 166.966H51.2398V168.568L50.8078 169ZM45.6958 165.868C46.4158 165.868 46.9198 165.778 47.2078 165.598C47.5078 165.418 47.6578 165.1 47.6578 164.644V162.214L46.0378 163.042C45.3898 163.378 44.9218 163.678 44.6338 163.942C44.3458 164.194 44.2018 164.506 44.2018 164.878C44.2018 165.226 44.3098 165.478 44.5258 165.634C44.7538 165.79 45.1438 165.868 45.6958 165.868ZM48.3778 158.182C48.1018 158.182 47.8798 158.098 47.7118 157.93C47.5558 157.762 47.4778 157.504 47.4778 157.156C47.4778 156.796 47.5558 156.538 47.7118 156.382C47.8798 156.214 48.1018 156.13 48.3778 156.13H48.6478C48.9238 156.13 49.1458 156.214 49.3138 156.382C49.4818 156.538 49.5658 156.796 49.5658 157.156C49.5658 157.504 49.4818 157.762 49.3138 157.93C49.1458 158.098 48.9238 158.182 48.6478 158.182H48.3778ZM45.8398 158.182C45.5638 158.182 45.3418 158.098 45.1738 157.93C45.0178 157.762 44.9398 157.504 44.9398 157.156C44.9398 156.796 45.0178 156.538 45.1738 156.382C45.3418 156.214 45.5638 156.13 45.8398 156.13H46.1098C46.3858 156.13 46.6078 156.214 46.7758 156.382C46.9438 156.538 47.0278 156.796 47.0278 157.156C47.0278 157.504 46.9438 157.762 46.7758 157.93C46.6078 158.098 46.3858 158.182 46.1098 158.182H45.8398ZM50.8082 167.398L51.2402 166.966H52.1222C52.7102 166.966 53.2502 166.954 53.7422 166.93C54.2342 166.906 54.7142 166.852 55.1822 166.768C55.6502 166.672 56.1302 166.54 56.6222 166.372C57.1142 166.192 57.6602 165.958 58.2602 165.67L59.5022 165.076V164.986L56.7302 164.392L53.4362 163.582V165.04H51.8342V163.654C51.8342 163.006 51.9902 162.526 52.3022 162.214C52.6262 161.89 53.0762 161.728 53.6522 161.728C53.8082 161.728 53.9882 161.746 54.1922 161.782C54.4082 161.818 54.7502 161.896 55.2182 162.016L59.2142 163.042C60.3662 163.342 61.3562 163.492 62.1842 163.492H62.5082V165.526H61.1042L58.9802 166.858C58.2122 167.338 57.5282 167.722 56.9282 168.01C56.3282 168.286 55.7642 168.502 55.2362 168.658C54.7082 168.802 54.1922 168.898 53.6882 168.946C53.1962 168.982 52.6742 169 52.1222 169H50.8082V167.398ZM63.453 171.286H64.659C66.159 171.286 67.263 170.986 67.971 170.386C68.691 169.786 69.051 168.976 69.051 167.956V167.524H68.961C68.589 168.52 67.821 169.018 66.657 169.018C65.685 169.018 64.935 168.754 64.407 168.226C63.879 167.686 63.615 166.93 63.615 165.958C63.615 165.382 63.699 164.842 63.867 164.338C64.047 163.834 64.287 163.402 64.587 163.042C64.899 162.67 65.265 162.376 65.685 162.16C66.105 161.944 66.561 161.836 67.053 161.836C68.145 161.836 68.997 162.298 69.609 163.222C70.233 164.134 70.545 165.412 70.545 167.056C70.545 169.024 70.053 170.56 69.069 171.664C68.097 172.768 66.651 173.32 64.731 173.32H63.453V171.286ZM67.107 166.966C67.611 166.966 68.013 166.93 68.313 166.858C68.625 166.786 68.871 166.672 69.051 166.516C69.027 165.724 68.817 165.088 68.421 164.608C68.037 164.128 67.527 163.888 66.891 163.888C66.339 163.888 65.901 164.056 65.577 164.392C65.253 164.728 65.091 165.166 65.091 165.706C65.091 166.15 65.229 166.474 65.505 166.678C65.793 166.87 66.207 166.966 66.747 166.966H67.107ZM73.7813 169C73.1693 169 72.6893 168.838 72.3413 168.514C71.9933 168.19 71.8193 167.686 71.8193 167.002V165.688H73.4213V166.966H76.3013C76.8653 166.966 77.2493 166.852 77.4533 166.624C77.6693 166.396 77.7773 166.108 77.7773 165.76C77.7773 165.4 77.6393 165.016 77.3633 164.608C77.0873 164.2 76.6133 163.672 75.9413 163.024L74.1053 161.134L75.5633 159.658L77.2193 161.458C77.6153 161.878 77.9453 162.274 78.2093 162.646C78.4853 163.006 78.7073 163.36 78.8753 163.708C79.0433 164.044 79.1633 164.386 79.2353 164.734C79.3193 165.07 79.3613 165.436 79.3613 165.832C79.3613 166.828 79.0793 167.608 78.5153 168.172C77.9513 168.724 77.1533 169 76.1213 169H73.7813ZM90.3891 174.472C89.5731 174.472 88.8351 174.37 88.1751 174.166C87.5151 173.962 86.9511 173.662 86.4831 173.266C86.0271 172.87 85.6731 172.378 85.4211 171.79C85.1691 171.214 85.0431 170.554 85.0431 169.81C85.0431 168.85 85.3311 167.98 85.9071 167.2C86.4951 166.42 87.3531 165.772 88.4811 165.256V165.166C87.7731 164.734 87.2331 164.224 86.8611 163.636C86.5011 163.048 86.3211 162.412 86.3211 161.728C86.3211 161.188 86.4111 160.678 86.5911 160.198C86.7831 159.718 87.0471 159.304 87.3831 158.956C87.7191 158.596 88.1151 158.314 88.5711 158.11C89.0391 157.906 89.5491 157.804 90.1011 157.804C90.8571 157.804 91.5171 157.972 92.0811 158.308C92.6451 158.644 93.1011 159.1 93.4491 159.676L92.1171 161.008C91.8291 160.612 91.5051 160.324 91.1451 160.144C90.7971 159.952 90.3831 159.856 89.9031 159.856C89.2311 159.856 88.7151 160.024 88.3551 160.36C87.9951 160.696 87.8151 161.152 87.8151 161.728C87.8151 162.424 88.0671 162.934 88.5711 163.258C89.0871 163.582 89.7891 163.744 90.6771 163.744C90.9531 163.744 91.2471 163.726 91.5591 163.69C91.8831 163.654 92.2251 163.606 92.5851 163.546L94.0251 163.294L94.3671 165.148L91.9911 165.616C90.1551 165.964 88.8051 166.438 87.9411 167.038C87.0891 167.626 86.6631 168.388 86.6631 169.324V169.63C86.6631 170.53 86.9931 171.214 87.6531 171.682C88.3131 172.15 89.2251 172.384 90.3891 172.384C91.1811 172.384 91.9371 172.24 92.6571 171.952C93.3891 171.664 94.0611 171.214 94.6731 170.602L95.7891 172.204C94.3251 173.716 92.5251 174.472 90.3891 174.472ZM96.1523 171.286H96.5663C97.1063 171.286 97.5563 171.208 97.9163 171.052C98.2763 170.896 98.5643 170.674 98.7803 170.386C99.0083 170.11 99.1703 169.774 99.2663 169.378C99.3623 168.982 99.4103 168.538 99.4103 168.046C99.4103 167.41 99.3443 166.726 99.2123 165.994L98.8343 163.816L100.4 163.528L100.634 165.04C100.838 166.204 100.94 167.2 100.94 168.028C100.94 168.772 100.856 169.462 100.688 170.098C100.532 170.746 100.274 171.31 99.9143 171.79C99.5663 172.27 99.1163 172.642 98.5643 172.906C98.0123 173.182 97.3463 173.32 96.5663 173.32H96.1523V171.286ZM106.173 169C104.997 169 104.151 168.76 103.635 168.28C103.119 167.788 102.861 166.972 102.861 165.832V155.68H104.535V165.67C104.535 166.174 104.649 166.516 104.877 166.696C105.117 166.876 105.507 166.966 106.047 166.966H106.641V168.568L106.191 169H106.173ZM106.214 167.398L106.646 166.966H107.006C107.258 166.966 107.48 166.948 107.672 166.912C107.864 166.876 108.032 166.81 108.176 166.714C108.32 166.618 108.452 166.492 108.572 166.336C108.692 166.18 108.812 165.982 108.932 165.742L109.67 164.248L111.02 164.932L110.192 166.534L110.318 166.606C110.678 166.81 111.026 166.96 111.362 167.056C111.698 167.152 112.04 167.2 112.388 167.2C112.928 167.2 113.324 167.08 113.576 166.84C113.828 166.588 113.954 166.156 113.954 165.544V164.248H115.52V165.544C115.52 166.132 115.61 166.552 115.79 166.804C115.97 167.044 116.252 167.164 116.636 167.164H116.906C117.59 167.164 117.932 166.774 117.932 165.994C117.932 165.61 117.878 165.058 117.77 164.338L117.608 163.384L119.156 163.15L119.3 164.086C119.348 164.446 119.384 164.788 119.408 165.112C119.432 165.436 119.444 165.73 119.444 165.994C119.444 167.05 119.216 167.854 118.76 168.406C118.316 168.946 117.65 169.216 116.762 169.216C115.994 169.216 115.4 169.042 114.98 168.694C114.56 168.346 114.284 167.818 114.152 167.11H114.044C113.84 168.514 113.174 169.216 112.046 169.216C111.698 169.216 111.338 169.15 110.966 169.018C110.606 168.886 110.174 168.67 109.67 168.37L109.184 168.082C108.836 168.454 108.428 168.7 107.96 168.82C107.504 168.94 106.922 169 106.214 169V167.398ZM115.898 162.412C115.622 162.412 115.4 162.328 115.232 162.16C115.064 161.992 114.98 161.734 114.98 161.386C114.98 161.026 115.064 160.768 115.232 160.612C115.4 160.444 115.622 160.36 115.898 160.36H116.15C116.426 160.36 116.648 160.444 116.816 160.612C116.984 160.768 117.068 161.026 117.068 161.386C117.068 161.734 116.984 161.992 116.816 162.16C116.648 162.328 116.426 162.412 116.15 162.412H115.898ZM113.342 162.412C113.066 162.412 112.844 162.328 112.676 162.16C112.52 161.992 112.442 161.734 112.442 161.386C112.442 161.026 112.52 160.768 112.676 160.612C112.844 160.444 113.066 160.36 113.342 160.36H113.612C113.888 160.36 114.11 160.444 114.278 160.612C114.446 160.768 114.53 161.026 114.53 161.386C114.53 161.734 114.446 161.992 114.278 162.16C114.11 162.328 113.888 162.412 113.612 162.412H113.342ZM114.62 160.036C114.356 160.036 114.14 159.958 113.972 159.802C113.804 159.634 113.72 159.376 113.72 159.028C113.72 158.68 113.804 158.428 113.972 158.272C114.14 158.116 114.356 158.038 114.62 158.038H114.89C115.154 158.038 115.364 158.116 115.52 158.272C115.688 158.428 115.772 158.68 115.772 159.028C115.772 159.376 115.688 159.634 115.52 159.802C115.364 159.958 115.154 160.036 114.89 160.036H114.62ZM123.32 171.286H124.004C124.616 171.286 125.126 171.208 125.534 171.052C125.942 170.896 126.272 170.674 126.524 170.386C126.776 170.11 126.956 169.774 127.064 169.378C127.172 168.982 127.226 168.538 127.226 168.046C127.226 167.722 127.208 167.386 127.172 167.038C127.136 166.69 127.088 166.342 127.028 165.994L126.65 163.816L128.198 163.528L128.45 165.04C128.51 165.388 128.558 165.724 128.594 166.048C128.642 166.372 128.678 166.678 128.702 166.966H130.376V168.568L129.944 169H128.702C128.63 169.624 128.486 170.2 128.27 170.728C128.054 171.256 127.754 171.712 127.37 172.096C126.998 172.48 126.536 172.78 125.984 172.996C125.432 173.212 124.778 173.32 124.022 173.32H123.32V171.286ZM129.945 167.398L130.377 166.966H130.755C131.571 166.966 132.147 166.876 132.483 166.696C132.819 166.504 132.987 166.162 132.987 165.67C132.987 165.466 132.969 165.208 132.933 164.896C132.909 164.584 132.855 164.17 132.771 163.654L132.483 162.088L134.049 161.836L134.283 163.402C134.427 164.362 134.499 165.118 134.499 165.67C134.499 166.798 134.193 167.638 133.581 168.19C132.969 168.73 132.027 169 130.755 169H129.945V167.398ZM134.121 172.726C133.845 172.726 133.623 172.642 133.455 172.474C133.299 172.306 133.221 172.048 133.221 171.7C133.221 171.34 133.299 171.076 133.455 170.908C133.623 170.752 133.845 170.674 134.121 170.674H134.391C134.667 170.674 134.889 170.752 135.057 170.908C135.225 171.076 135.309 171.34 135.309 171.7C135.309 172.048 135.225 172.306 135.057 172.474C134.889 172.642 134.667 172.726 134.391 172.726H134.121ZM131.583 172.726C131.307 172.726 131.085 172.642 130.917 172.474C130.761 172.306 130.683 172.048 130.683 171.7C130.683 171.34 130.761 171.076 130.917 170.908C131.085 170.752 131.307 170.674 131.583 170.674H131.853C132.129 170.674 132.351 170.752 132.519 170.908C132.687 171.076 132.771 171.34 132.771 171.7C132.771 172.048 132.687 172.306 132.519 172.474C132.351 172.642 132.129 172.726 131.853 172.726H131.583ZM136.191 171.286H137.235C138.495 171.286 139.479 171.082 140.187 170.674C140.895 170.278 141.363 169.72 141.591 169H139.431C138.459 169 137.703 168.736 137.163 168.208C136.635 167.68 136.371 166.93 136.371 165.958C136.371 165.382 136.455 164.842 136.623 164.338C136.803 163.834 137.043 163.402 137.343 163.042C137.655 162.67 138.021 162.376 138.441 162.16C138.861 161.944 139.323 161.836 139.827 161.836C140.883 161.836 141.705 162.286 142.293 163.186C142.893 164.086 143.205 165.346 143.229 166.966H144.075V168.568L143.643 169H143.031C142.731 170.38 142.101 171.442 141.141 172.186C140.193 172.942 138.915 173.32 137.307 173.32H136.191V171.286ZM137.865 165.706C137.865 166.15 138.003 166.474 138.279 166.678C138.555 166.87 138.963 166.966 139.503 166.966H141.735V166.624C141.735 165.796 141.543 165.136 141.159 164.644C140.775 164.14 140.277 163.888 139.665 163.888C139.113 163.888 138.675 164.056 138.351 164.392C138.027 164.728 137.865 165.166 137.865 165.706ZM143.638 167.398L144.07 166.966H144.952C145.54 166.966 146.08 166.954 146.572 166.93C147.064 166.906 147.544 166.852 148.012 166.768C148.48 166.672 148.96 166.54 149.452 166.372C149.944 166.192 150.49 165.958 151.09 165.67L152.332 165.076V164.986L149.56 164.392L146.266 163.582V165.04H144.664V163.654C144.664 163.006 144.82 162.526 145.132 162.214C145.456 161.89 145.906 161.728 146.482 161.728C146.638 161.728 146.818 161.746 147.022 161.782C147.238 161.818 147.58 161.896 148.048 162.016L152.044 163.042C153.196 163.342 154.186 163.492 155.014 163.492H155.338V165.526H154.024V165.616C154.024 166.12 154.138 166.474 154.366 166.678C154.594 166.87 154.966 166.966 155.482 166.966H156.076V168.568L155.644 169C154.648 169 153.91 168.796 153.43 168.388C152.962 167.968 152.698 167.29 152.638 166.354L151.72 166.93C150.952 167.41 150.268 167.788 149.668 168.064C149.08 168.34 148.528 168.55 148.012 168.694C147.496 168.826 146.992 168.91 146.5 168.946C146.02 168.982 145.504 169 144.952 169H143.638V167.398ZM148.66 159.946C148.384 159.946 148.162 159.862 147.994 159.694C147.838 159.526 147.76 159.268 147.76 158.92C147.76 158.56 147.838 158.302 147.994 158.146C148.162 157.978 148.384 157.894 148.66 157.894H148.93C149.206 157.894 149.428 157.978 149.596 158.146C149.764 158.302 149.848 158.56 149.848 158.92C149.848 159.268 149.764 159.526 149.596 159.694C149.428 159.862 149.206 159.946 148.93 159.946H148.66ZM155.644 167.398L156.076 166.966H156.706C157.234 166.966 157.6 166.852 157.804 166.624C158.02 166.396 158.128 166.036 158.128 165.544V155.68H159.82V165.544C159.82 166.732 159.58 167.608 159.1 168.172C158.62 168.724 157.822 169 156.706 169H155.644V167.398ZM162.31 155.68H163.984V169H162.31V155.68ZM183.33 169C182.886 169 182.496 168.958 182.16 168.874C181.824 168.778 181.512 168.61 181.224 168.37C180.54 168.79 179.574 169 178.326 169H170.226V166.966H171.9L172.494 165.976V155.68H174.186V161.422L173.97 163.528L174.06 163.582C174.768 162.706 175.5 162.094 176.256 161.746C177.024 161.386 177.858 161.206 178.758 161.206C180.03 161.206 181.002 161.56 181.674 162.268C182.346 162.964 182.682 163.93 182.682 165.166C182.682 165.838 182.592 166.408 182.412 166.876C182.556 166.912 182.7 166.936 182.844 166.948C183 166.96 183.162 166.966 183.33 166.966H183.762V168.568L183.33 169ZM178.326 166.966C179.322 166.966 180.048 166.84 180.504 166.588C180.96 166.336 181.188 165.874 181.188 165.202C181.188 163.906 180.468 163.258 179.028 163.258H178.488C177.984 163.258 177.534 163.294 177.138 163.366C176.742 163.438 176.37 163.564 176.022 163.744C175.686 163.924 175.368 164.17 175.068 164.482C174.768 164.794 174.456 165.19 174.132 165.67L173.358 166.858L173.412 166.966H178.326ZM183.33 167.398L183.762 166.966H186.084L186.12 166.876C185.04 165.952 184.5 164.866 184.5 163.618C184.5 163.114 184.578 162.64 184.734 162.196C184.902 161.752 185.136 161.362 185.436 161.026C185.736 160.69 186.09 160.426 186.498 160.234C186.918 160.042 187.38 159.946 187.884 159.946C188.388 159.946 188.844 160.042 189.252 160.234C189.672 160.426 190.026 160.69 190.314 161.026C190.614 161.35 190.848 161.74 191.016 162.196C191.184 162.64 191.268 163.114 191.268 163.618C191.268 164.854 190.728 165.94 189.648 166.876L189.684 166.966H192.024V168.568L191.592 169H191.376C190.74 169 190.128 168.928 189.54 168.784C188.964 168.628 188.412 168.376 187.884 168.028C187.368 168.376 186.816 168.628 186.228 168.784C185.64 168.928 185.034 169 184.41 169H183.33V167.398ZM187.884 166.552C188.496 166.216 188.97 165.832 189.306 165.4C189.642 164.968 189.81 164.464 189.81 163.888C189.81 163.312 189.636 162.85 189.288 162.502C188.952 162.154 188.514 161.98 187.974 161.98H187.776C187.236 161.98 186.792 162.154 186.444 162.502C186.108 162.85 185.94 163.312 185.94 163.888C185.94 164.464 186.108 164.968 186.444 165.4C186.792 165.832 187.272 166.216 187.884 166.552ZM188.982 158.11C188.706 158.11 188.484 158.026 188.316 157.858C188.16 157.69 188.082 157.432 188.082 157.084C188.082 156.724 188.16 156.466 188.316 156.31C188.484 156.142 188.706 156.058 188.982 156.058H189.252C189.528 156.058 189.75 156.142 189.918 156.31C190.086 156.466 190.17 156.724 190.17 157.084C190.17 157.432 190.086 157.69 189.918 157.858C189.75 158.026 189.528 158.11 189.252 158.11H188.982ZM186.444 158.11C186.168 158.11 185.946 158.026 185.778 157.858C185.622 157.69 185.544 157.432 185.544 157.084C185.544 156.724 185.622 156.466 185.778 156.31C185.946 156.142 186.168 156.058 186.444 156.058H186.714C186.99 156.058 187.212 156.142 187.38 156.31C187.548 156.466 187.632 156.724 187.632 157.084C187.632 157.432 187.548 157.69 187.38 157.858C187.212 158.026 186.99 158.11 186.714 158.11H186.444ZM191.591 167.398L192.023 166.966H192.383C192.635 166.966 192.857 166.948 193.049 166.912C193.241 166.876 193.409 166.81 193.553 166.714C193.697 166.618 193.829 166.492 193.949 166.336C194.069 166.18 194.189 165.982 194.309 165.742L195.047 164.248L196.397 164.932L195.587 166.534L195.713 166.606C196.073 166.81 196.415 166.96 196.739 167.056C197.075 167.152 197.417 167.2 197.765 167.2C198.305 167.2 198.701 167.08 198.953 166.84C199.205 166.588 199.331 166.156 199.331 165.544V164.248H200.897V165.544C200.897 166.132 200.975 166.552 201.131 166.804C201.299 167.044 201.587 167.164 201.995 167.164H202.319C202.703 167.164 202.979 167.044 203.147 166.804C203.327 166.552 203.417 166.132 203.417 165.544V163.528H204.983V165.544C204.983 166.492 205.451 166.966 206.387 166.966H207.071V168.568L206.621 169C205.781 169 205.127 168.85 204.659 168.55C204.203 168.238 203.891 167.758 203.723 167.11H203.633C203.561 167.866 203.363 168.406 203.039 168.73C202.727 169.054 202.283 169.216 201.707 169.216C200.483 169.216 199.757 168.514 199.529 167.11H199.421C199.217 168.514 198.551 169.216 197.423 169.216C197.075 169.216 196.715 169.15 196.343 169.018C195.983 168.886 195.551 168.67 195.047 168.37L194.561 168.082C194.201 168.454 193.793 168.7 193.337 168.82C192.881 168.94 192.299 169 191.591 169V167.398ZM209.104 167.974C208.828 168.346 208.498 168.61 208.114 168.766C207.73 168.922 207.238 169 206.638 169V167.398L207.07 166.966C207.526 166.966 207.856 166.87 208.06 166.678C208.276 166.474 208.474 166.132 208.654 165.652L209.158 164.356C209.446 163.612 209.824 163.018 210.292 162.574C210.772 162.118 211.414 161.89 212.218 161.89C213.202 161.89 213.958 162.31 214.486 163.15C215.014 163.978 215.278 165.142 215.278 166.642V167.344L213.928 169.324L209.104 167.974ZM209.95 166.084L213.73 167.146V166.642C213.73 165.79 213.568 165.124 213.244 164.644C212.92 164.164 212.47 163.924 211.894 163.924C211.474 163.924 211.132 164.05 210.868 164.302C210.616 164.542 210.406 164.878 210.238 165.31L209.95 166.084Z" fill="#FEFEFE"/>
<path d="M34.9102 129.178H216.003V130.564H34.9102V129.178Z" fill="#FEFEFE"/>
<a href="mailto:info@gleemtours.com">
<rect fill="black" fill-opacity="0" x="34.9102" y="97.84" width="181.093" height="27"/>
</a>
<path d="M249.547 87.1488C249.547 87.5838 249.45 88.0309 249.245 88.4659C249.04 88.9009 248.774 89.3117 248.423 89.6984C247.831 90.3509 247.179 90.8222 246.442 91.1242C245.717 91.4263 244.931 91.5834 244.085 91.5834C242.853 91.5834 241.536 91.2934 240.146 90.7013C238.757 90.1092 237.367 89.3117 235.99 88.3088C234.6 87.2938 233.283 86.1701 232.026 84.9255C230.782 83.6688 229.658 82.3517 228.655 80.9742C227.664 79.5967 226.867 78.2192 226.287 76.8538C225.707 75.4763 225.417 74.1592 225.417 72.9026C225.417 72.0809 225.562 71.2955 225.852 70.5705C226.142 69.8334 226.601 69.1567 227.241 68.5526C228.015 67.7913 228.86 67.4167 229.755 67.4167C230.093 67.4167 230.431 67.4892 230.733 67.6342C231.047 67.7792 231.325 67.9967 231.543 68.3109L234.346 72.2622C234.564 72.5642 234.721 72.8422 234.83 73.108C234.938 73.3617 234.999 73.6155 234.999 73.8451C234.999 74.1351 234.914 74.4251 234.745 74.703C234.588 74.9809 234.358 75.2709 234.068 75.5609L233.15 76.5155C233.017 76.6484 232.957 76.8055 232.957 76.9988C232.957 77.0955 232.969 77.1801 232.993 77.2767C233.029 77.3734 233.065 77.4459 233.09 77.5184C233.307 77.9172 233.682 78.4367 234.213 79.0651C234.757 79.6934 235.337 80.3338 235.965 80.9742C236.618 81.6147 237.246 82.2067 237.887 82.7505C238.515 83.2822 239.035 83.6447 239.445 83.8622C239.506 83.8863 239.578 83.9226 239.663 83.9588C239.76 83.9951 239.856 84.0072 239.965 84.0072C240.17 84.0072 240.327 83.9347 240.46 83.8017L241.379 82.8955C241.681 82.5934 241.971 82.3638 242.249 82.2188C242.527 82.0497 242.805 81.9651 243.107 81.9651C243.336 81.9651 243.578 82.0134 243.844 82.1222C244.11 82.2309 244.387 82.388 244.69 82.5934L248.689 85.433C249.003 85.6505 249.221 85.9042 249.354 86.2063C249.475 86.5084 249.547 86.8105 249.547 87.1488Z" stroke="#FEFEFE" stroke-width="1.5" stroke-miterlimit="10"/>
<path d="M243.542 131.771H231.458C227.833 131.771 225.417 129.958 225.417 125.729V117.271C225.417 113.042 227.833 111.229 231.458 111.229H243.542C247.167 111.229 249.583 113.042 249.583 117.271V125.729C249.583 129.958 247.167 131.771 243.542 131.771Z" stroke="#FEFEFE" stroke-width="1.5" stroke-miterlimit="10" stroke-linecap="round" stroke-linejoin="round"/>
<path d="M243.542 117.875L239.76 120.896C238.515 121.887 236.473 121.887 235.228 120.896L231.458 117.875" stroke="#FEFEFE" stroke-width="1.5" stroke-miterlimit="10" stroke-linecap="round" stroke-linejoin="round"/>
<path d="M237.5 165.228C239.582 165.228 241.27 163.54 241.27 161.458C241.27 159.376 239.582 157.688 237.5 157.688C235.418 157.688 233.73 159.376 233.73 161.458C233.73 163.54 235.418 165.228 237.5 165.228Z" stroke="#FEFEFE" stroke-width="1.5"/>
<path d="M227.374 159.259C229.755 148.795 245.257 148.807 247.626 159.271C249.015 165.409 245.197 170.605 241.85 173.819C239.421 176.163 235.579 176.163 233.138 173.819C229.803 170.605 225.985 165.397 227.374 159.259Z" stroke="#FEFEFE" stroke-width="1.5"/>
<path d="M158.29 33C156.808 33 155.708 32.648 154.99 31.944C154.271 31.24 153.912 30.096 153.912 28.512V16.72H156.552V28.072C156.552 28.732 156.684 29.172 156.948 29.392C157.212 29.5973 157.666 29.7 158.312 29.7H158.972V32.34L158.312 33H158.29ZM158.313 30.36L158.973 29.7H159.633C160.806 29.7 161.393 29.1867 161.393 28.16V25.014H163.813V28.16C163.813 29.1867 164.326 29.7 165.353 29.7H166.233V32.34L165.573 33C164.399 33 163.505 32.7653 162.889 32.296C162.287 31.812 161.884 31.0567 161.679 30.03H161.547C161.341 31.0567 160.989 31.812 160.491 32.296C159.992 32.7653 159.266 33 158.313 33V30.36ZM162.383 23.254C162.001 23.254 161.686 23.1367 161.437 22.902C161.202 22.6673 161.085 22.2933 161.085 21.78C161.085 21.2667 161.202 20.8927 161.437 20.658C161.686 20.4233 162.001 20.306 162.383 20.306H162.823C163.204 20.306 163.512 20.4233 163.747 20.658C163.996 20.8927 164.121 21.2667 164.121 21.78C164.121 22.2933 163.996 22.6673 163.747 22.902C163.512 23.1367 163.204 23.254 162.823 23.254H162.383ZM165.574 30.36L166.234 29.7H169.094L169.138 29.59L167.004 26.972V23.562C167.738 23.2247 168.508 22.968 169.314 22.792C170.136 22.6013 170.935 22.506 171.712 22.506C173.414 22.506 174.66 22.8067 175.452 23.408C176.244 24.0093 176.64 24.9553 176.64 26.246C176.64 26.642 176.604 26.994 176.53 27.302C176.457 27.5953 176.34 27.874 176.178 28.138C176.032 28.3873 175.834 28.6293 175.584 28.864C175.35 29.0987 175.056 29.3553 174.704 29.634L174.726 29.7H177.41V32.34L176.75 33H176.53C175.738 33 174.917 32.912 174.066 32.736C173.23 32.5453 172.475 32.2373 171.8 31.812C171.126 32.2373 170.414 32.5453 169.666 32.736C168.918 32.912 168.148 33 167.356 33H165.574V30.36ZM169.116 26.224L171.976 29.59L173.318 28.49C173.524 28.314 173.7 28.1673 173.846 28.05C173.993 27.9327 174.11 27.8227 174.198 27.72C174.286 27.6027 174.345 27.4927 174.374 27.39C174.418 27.2727 174.44 27.1333 174.44 26.972C174.44 26.5467 174.235 26.246 173.824 26.07C173.428 25.894 172.724 25.806 171.712 25.806C171.258 25.806 170.796 25.8353 170.326 25.894C169.857 25.9527 169.454 26.0187 169.116 26.092V26.224ZM179.98 31.768C179.643 32.2227 179.218 32.5453 178.704 32.736C178.206 32.912 177.553 33 176.746 33V30.36L177.406 29.7C177.949 29.7 178.345 29.6193 178.594 29.458C178.844 29.2967 179.049 29.0107 179.21 28.6L179.826 27.082C180.017 26.6127 180.23 26.1727 180.464 25.762C180.699 25.3513 180.978 24.992 181.3 24.684C181.623 24.376 181.982 24.134 182.378 23.958C182.789 23.782 183.258 23.694 183.786 23.694C185.165 23.694 186.199 24.2367 186.888 25.322C187.592 26.4073 187.944 27.9107 187.944 29.832V30.47L185.854 33.572L179.98 31.768ZM181.19 28.71L185.612 30.052V29.832C185.612 28.952 185.4 28.2627 184.974 27.764C184.549 27.2653 183.97 27.016 183.236 27.016C182.767 27.016 182.356 27.1407 182.004 27.39C181.667 27.6393 181.41 28.0353 181.234 28.578L181.19 28.71ZM200.858 38.28C198.82 38.28 197.28 37.752 196.238 36.696C195.197 35.6547 194.676 34.1733 194.676 32.252C194.676 31.592 194.764 30.8513 194.94 30.03C195.131 29.194 195.388 28.3873 195.71 27.61L197.822 28.226C197.529 28.8567 197.294 29.4947 197.118 30.14C196.957 30.7853 196.876 31.3427 196.876 31.812C196.876 32.736 197.148 33.4473 197.69 33.946C198.248 34.4593 199.01 34.716 199.978 34.716H201.738C202.31 34.716 202.794 34.6427 203.19 34.496C203.586 34.364 203.902 34.1367 204.136 33.814C204.386 33.506 204.562 33.1027 204.664 32.604C204.782 32.0907 204.84 31.4673 204.84 30.734V16.72H207.48V29.7H209.922V32.34L209.262 33H207.304C207.011 34.804 206.344 36.1313 205.302 36.982C204.261 37.8473 202.78 38.28 200.858 38.28ZM214.752 28.16C214.752 28.7907 214.928 29.2233 215.28 29.458L216.248 27.786C216.761 26.8913 217.282 26.1287 217.81 25.498C218.353 24.8673 218.917 24.354 219.504 23.958C220.091 23.562 220.707 23.276 221.352 23.1C222.012 22.9093 222.716 22.814 223.464 22.814C225.195 22.814 226.493 23.2907 227.358 24.244C228.223 25.1827 228.656 26.4953 228.656 28.182C228.656 29.8393 228.187 31.0567 227.248 31.834C226.309 32.6113 224.828 33 222.804 33H216.512C215.339 33 214.444 32.7653 213.828 32.296C213.227 31.812 212.823 31.0567 212.618 30.03H212.486C212.281 31.0567 211.929 31.812 211.43 32.296C210.931 32.7653 210.205 33 209.252 33V30.36L209.912 29.7H210.572C211.745 29.7 212.332 29.1867 212.332 28.16V26.774H214.752V28.16ZM222.804 29.7C223.508 29.7 224.087 29.678 224.542 29.634C225.011 29.5753 225.385 29.4873 225.664 29.37C225.957 29.238 226.163 29.062 226.28 28.842C226.397 28.622 226.456 28.336 226.456 27.984C226.456 27.3533 226.251 26.884 225.84 26.576C225.429 26.268 224.747 26.114 223.794 26.114H223.134C222.474 26.114 221.895 26.1433 221.396 26.202C220.897 26.246 220.457 26.3413 220.076 26.488C219.695 26.6347 219.35 26.84 219.042 27.104C218.734 27.368 218.441 27.7127 218.162 28.138L217.216 29.568L217.282 29.7H222.804ZM230.74 16.72H233.38V33H230.74V16.72ZM235.365 34.98H236.773C238.166 34.98 239.281 34.804 240.117 34.452C240.968 34.1 241.569 33.616 241.921 33H239.369C238.181 33 237.25 32.6553 236.575 31.966C235.915 31.262 235.585 30.2867 235.585 29.04C235.585 28.2773 235.695 27.5733 235.915 26.928C236.15 26.268 236.465 25.7033 236.861 25.234C237.272 24.75 237.748 24.376 238.291 24.112C238.848 23.8333 239.45 23.694 240.095 23.694C241.43 23.694 242.486 24.222 243.263 25.278C244.04 26.334 244.466 27.808 244.539 29.7H245.661V32.34L245.001 33H244.253C243.842 34.6867 243.028 35.9847 241.811 36.894C240.608 37.818 239.002 38.28 236.993 38.28H235.365V34.98ZM237.785 28.6C237.785 28.996 237.946 29.282 238.269 29.458C238.592 29.6193 239.032 29.7 239.589 29.7H242.339V29.634C242.339 28.842 242.097 28.204 241.613 27.72C241.144 27.236 240.542 26.994 239.809 26.994C239.237 26.994 238.753 27.148 238.357 27.456C237.976 27.7493 237.785 28.1307 237.785 28.6ZM245.002 30.36L245.662 29.7H246.3C246.828 29.7 247.261 29.678 247.598 29.634C247.95 29.59 248.229 29.5167 248.434 29.414C248.654 29.2967 248.801 29.1573 248.874 28.996C248.962 28.82 249.006 28.6073 249.006 28.358C249.006 28.138 248.984 27.8593 248.94 27.522C248.911 27.17 248.845 26.7153 248.742 26.158L248.368 24.112L250.766 23.716L251.096 25.762C251.169 26.158 251.228 26.598 251.272 27.082C251.316 27.566 251.338 27.9913 251.338 28.358C251.338 29.9567 250.942 31.13 250.15 31.878C249.373 32.626 248.089 33 246.3 33H245.002V30.36ZM250.744 21.956C250.363 21.956 250.047 21.8387 249.798 21.604C249.563 21.3693 249.446 20.9953 249.446 20.482C249.446 19.9687 249.563 19.5947 249.798 19.36C250.047 19.1253 250.363 19.008 250.744 19.008H251.184C251.565 19.008 251.873 19.1253 252.108 19.36C252.357 19.5947 252.482 19.9687 252.482 20.482C252.482 20.9953 252.357 21.3693 252.108 21.604C251.873 21.8387 251.565 21.956 251.184 21.956H250.744ZM247.268 21.956C246.887 21.956 246.571 21.8387 246.322 21.604C246.087 21.3693 245.97 20.9953 245.97 20.482C245.97 19.9687 246.087 19.5947 246.322 19.36C246.571 19.1253 246.887 19.008 247.268 19.008H247.708C248.089 19.008 248.397 19.1253 248.632 19.36C248.881 19.5947 249.006 19.9687 249.006 20.482C249.006 20.9953 248.881 21.3693 248.632 21.604C248.397 21.8387 248.089 21.956 247.708 21.956H247.268Z" fill="white"/>
</svg>
