<svg width="56" height="56" viewBox="0 0 56 56" fill="none" xmlns="http://www.w3.org/2000/svg">
<path d="M28 12.9733H51.3333" stroke="#103C55" stroke-width="4" stroke-miterlimit="10" stroke-linecap="round" stroke-linejoin="round"/>
<path d="M33.18 4.66669H46.1533C50.3067 4.66669 51.3333 5.69336 51.3333 9.80002V19.39C51.3333 23.4967 50.3067 24.5233 46.1533 24.5233H33.18C29.0267 24.5233 28 23.4967 28 19.39V9.80002C28 5.69336 29.0267 4.66669 33.18 4.66669Z" stroke="#103C55" stroke-width="4" stroke-linecap="round" stroke-linejoin="round"/>
<path d="M4.66663 39.8066H28" stroke="#103C55" stroke-width="4" stroke-miterlimit="10" stroke-linecap="round" stroke-linejoin="round"/>
<path d="M9.84663 31.5H22.82C26.9733 31.5 28 32.5267 28 36.6333V46.2233C28 50.33 26.9733 51.3567 22.82 51.3567H9.84663C5.6933 51.3567 4.66663 50.33 4.66663 46.2233V36.6333C4.66663 32.5267 5.6933 31.5 9.84663 31.5Z" stroke="#103C55" stroke-width="4" stroke-linecap="round" stroke-linejoin="round"/>
<path d="M51.3333 35C51.3333 44.03 44.03 51.3333 35 51.3333L37.45 47.25" stroke="#2877D4" stroke-width="4" stroke-linecap="round" stroke-linejoin="round"/>
<path d="M4.66663 21C4.66663 11.97 11.97 4.66669 21 4.66669L18.55 8.75002" stroke="#2877D4" stroke-width="4" stroke-linecap="round" stroke-linejoin="round"/>
</svg>
