<svg width="99" height="99" viewBox="0 0 99 99" fill="none" xmlns="http://www.w3.org/2000/svg">
<path d="M74.2499 29.535C74.0024 29.4938 73.7137 29.4938 73.4662 29.535C67.7737 29.3288 63.2362 24.6675 63.2362 18.8925C63.2362 12.9938 67.9799 8.25 73.8787 8.25C79.7774 8.25 84.5212 13.035 84.5212 18.8925C84.4799 24.6675 79.9424 29.3288 74.2499 29.535Z" stroke="#185C82" stroke-width="5" stroke-linecap="round" stroke-linejoin="round"/>
<path d="M70.0012 59.5651C75.6525 60.5138 81.8812 59.5238 86.2537 56.5951C92.07 52.7176 92.07 46.3651 86.2537 42.4876C81.84 39.5588 75.5287 38.5688 69.8774 39.5588" stroke="#185C82" stroke-width="5" stroke-linecap="round" stroke-linejoin="round"/>
<path d="M24.6264 29.535C24.8739 29.4938 25.1626 29.4938 25.4101 29.535C31.1026 29.3288 35.6401 24.6675 35.6401 18.8925C35.6401 12.9938 30.8964 8.25 24.9976 8.25C19.0989 8.25 14.3551 13.035 14.3551 18.8925C14.3964 24.6675 18.9339 29.3288 24.6264 29.535Z" stroke="#185C82" stroke-width="5" stroke-linecap="round" stroke-linejoin="round"/>
<path d="M28.8751 59.5651C23.2238 60.5138 16.9951 59.5238 12.6226 56.5951C6.80631 52.7176 6.80631 46.3651 12.6226 42.4876C17.0363 39.5588 23.3476 38.5688 28.9988 39.5588" stroke="#185C82" stroke-width="5" stroke-linecap="round" stroke-linejoin="round"/>
<path d="M49.4999 60.3487C49.2524 60.3075 48.9637 60.3075 48.7162 60.3487C43.0237 60.1425 38.4862 55.4812 38.4862 49.7062C38.4862 43.8075 43.2299 39.0637 49.1287 39.0637C55.0274 39.0637 59.7712 43.8487 59.7712 49.7062C59.73 55.4812 55.1924 60.1837 49.4999 60.3487Z" stroke="#185C82" stroke-width="5" stroke-linecap="round" stroke-linejoin="round"/>
<path d="M37.4962 73.3425C31.68 77.22 31.68 83.5725 37.4962 87.45C44.0962 91.8637 54.9037 91.8637 61.5037 87.45C67.32 83.5725 67.32 77.22 61.5037 73.3425C54.945 68.97 44.0962 68.97 37.4962 73.3425Z" stroke="#185C82" stroke-width="5" stroke-linecap="round" stroke-linejoin="round"/>
</svg>
