<svg width="72" height="69" viewBox="0 0 72 69" fill="none" xmlns="http://www.w3.org/2000/svg">
<g clip-path="url(#clip0_288_3539)">
<path d="M17.9046 54.4268C19.552 54.4268 20.9336 54.9299 22.0494 55.9363C22.7592 56.5803 23.1974 57.2984 23.3641 58.0898C23.5308 58.8812 23.6141 60.0891 23.6141 61.7134C23.6141 63.3376 23.5308 64.5455 23.3641 65.3371C23.1974 66.1288 22.7592 66.8466 22.0494 67.4904C20.9336 68.4968 19.5522 68.9999 17.9046 68.9999C16.257 68.9999 14.8752 68.4968 13.7598 67.4904C13.0496 66.8331 12.6114 66.1119 12.4447 65.3271C12.278 64.5423 12.1951 63.3376 12.1951 61.7134C12.1951 60.0891 12.278 58.8848 12.4447 58.1C12.6114 57.3152 13.0496 56.5938 13.7598 55.9363C14.8752 54.9299 16.257 54.4268 17.9046 54.4268ZM17.9046 56.9215C17.0953 56.9215 16.4518 57.1765 15.9752 57.6865C15.6718 57.9954 15.4693 58.4083 15.3684 58.9251C15.2672 59.4419 15.2167 60.3712 15.2167 61.7134C15.2167 63.0555 15.2672 63.965 15.3684 64.4818C15.4693 64.9987 15.6718 65.4115 15.9752 65.72C16.4666 66.2437 17.1096 66.5053 17.9046 66.5053C18.6996 66.5053 19.3424 66.2437 19.834 65.72C20.1374 65.4115 20.3397 64.9987 20.4408 64.4818C20.5416 63.965 20.5925 63.0422 20.5925 61.7134C20.5925 60.3845 20.5416 59.4417 20.4408 58.9251C20.3395 58.4083 20.1374 57.9954 19.834 57.6865C19.357 57.1765 18.7139 56.9215 17.9046 56.9215Z" fill="#FEFEFE"/>
<path d="M40.6696 54.5515V68.8752H37.6481V60.5467L34.6984 65.6365H32.6596L29.6883 60.5467V68.8752H26.6669V54.5515H29.645L33.679 61.9749L37.6915 54.5515H40.6696Z" fill="#FEFEFE"/>
<path d="M50.5421 54.5515L56.1604 68.8752H53.1887L52.1777 66.339H46.625L45.6857 68.8752H42.5292L48.0535 54.5515H50.5419H50.5421ZM49.356 58.8035L47.2866 63.9898H51.2412L49.356 58.8035Z" fill="#FEFEFE"/>
<path d="M69.8695 54.5515V68.8752H67.1856L61.0552 60.1338V68.8752H58.0337V54.5515H60.7384L66.8481 63.2944V54.5515H69.8695Z" fill="#FEFEFE"/>
<path d="M9.43595 12.7388C7.29362 10.8079 4.85978 9.05263 2.20755 7.40842C2.14629 7.37017 2.08482 7.33379 2.02355 7.29554C1.70161 6.12552 1.37967 4.95738 1.05772 3.78924C0.73203 2.60966 0.398626 1.43196 0 0C0.0670975 0.0419941 0.13607 0.084196 0.203168 0.128061C5.09941 3.18885 8.65412 6.92861 9.43595 12.7385V12.7388Z" fill="#FEFEFE"/>
<path d="M44.7995 7.47304C42.4654 12.8682 40.2443 17.9768 38.0445 23.0946C34.39 31.5966 30.7223 40.0929 27.1272 48.6197C26.5523 49.9848 25.8663 50.5947 24.291 50.5068C21.4893 50.3519 18.6704 50.3787 15.8669 50.4972C14.5006 50.5565 13.9198 50.09 13.5693 48.811C10.8998 39.0663 8.17486 29.337 5.46325 19.6037C4.87875 17.5026 4.27904 15.4053 3.55847 12.8549C3.63891 12.9046 3.72142 12.9543 3.80186 13.004C3.86312 13.0422 3.92438 13.0786 3.98585 13.1169C6.63808 14.7611 9.07172 16.5161 11.2143 18.4472C11.3293 18.5503 11.4422 18.6536 11.5535 18.757C12.1169 19.2769 12.6573 19.8104 13.1765 20.3571C14.1328 21.3629 15.0142 22.4181 15.8134 23.5289C18.3889 27.1155 20.0926 31.2872 20.6462 36.3134C20.7919 36.2791 20.9376 36.2446 21.0813 36.2103C21.273 35.914 21.5202 35.6386 21.6467 35.3174C25.0538 26.6587 28.486 18.0113 31.8109 9.32202C32.3608 7.88445 33.0603 7.37762 34.5973 7.43499C37.903 7.55931 41.2162 7.47325 44.7997 7.47325L44.7995 7.47304Z" fill="#FEFEFE"/>
<path d="M56.7988 7.58545H67.0919V34.535H71.9998V41.6102H67.0919V49.7797C67.0919 50.5689 66.4505 51.2088 65.6595 51.2088H59.2391C58.4481 51.2088 57.8068 50.5689 57.8068 49.7797V41.6102H41.0636C39.9078 41.6102 38.9707 40.6753 38.9707 39.5221V34.7976C38.9707 34.4652 39.067 34.1398 39.2478 33.8608L55.9995 8.01932C56.175 7.74885 56.4757 7.58545 56.7986 7.58545H56.7988ZM55.673 19.5577L45.6027 34.5348H57.807V20.2055C57.807 19.0565 56.3146 18.6033 55.673 19.5575V19.5577Z" fill="#FEFEFE"/>
</g>
<defs>
<clipPath id="clip0_288_3539">
<rect width="72" height="69" fill="white"/>
</clipPath>
</defs>
</svg>
