<svg width="83" height="80" viewBox="0 0 83 80" fill="none" xmlns="http://www.w3.org/2000/svg">
<g clip-path="url(#clip0_288_3351)">
<path d="M20.6401 62.8148C22.5392 62.8148 24.1318 63.3908 25.4181 64.543C26.2363 65.2804 26.7415 66.1025 26.9336 67.0087C27.1258 67.9148 27.2219 69.2977 27.2219 71.1574C27.2219 73.017 27.1258 74.3999 26.9336 75.3063C26.7415 76.2127 26.2363 77.0346 25.4181 77.7717C24.1318 78.924 22.5394 79.5 20.6401 79.5C18.7407 79.5 17.1478 78.924 15.862 77.7717C15.0433 77.0191 14.5382 76.1934 14.346 75.2949C14.1538 74.3964 14.0582 73.017 14.0582 71.1574C14.0582 69.2977 14.1538 67.9189 14.346 67.0203C14.5382 66.1218 15.0433 65.2959 15.862 64.543C17.1478 63.3908 18.7407 62.8148 20.6401 62.8148ZM20.6401 65.671C19.7071 65.671 18.9653 65.9631 18.4159 66.5469C18.0662 66.9006 17.8327 67.3733 17.7164 67.965C17.5997 68.5568 17.5416 69.6207 17.5416 71.1574C17.5416 72.694 17.5997 73.7354 17.7164 74.3271C17.8327 74.9188 18.0662 75.3915 18.4159 75.7448C18.9823 76.3443 19.7236 76.6438 20.6401 76.6438C21.5565 76.6438 22.2975 76.3443 22.8642 75.7448C23.2139 75.3915 23.4472 74.9188 23.5637 74.3271C23.68 73.7354 23.7386 72.6788 23.7386 71.1574C23.7386 69.636 23.68 68.5565 23.5637 67.965C23.4469 67.3733 23.2139 66.9006 22.8642 66.5469C22.3143 65.9631 21.573 65.671 20.6401 65.671Z" fill="#231F20"/>
<path d="M46.883 62.9576V79.3572H43.3999V69.8216L39.9995 75.6491H37.6492L34.2241 69.8216V79.3572H30.741V62.9576H34.1741L38.8244 71.4568L43.4499 62.9576H46.883Z" fill="#231F20"/>
<path d="M58.2639 62.9576L64.7405 79.3572H61.3148L60.1493 76.4534H53.7484L52.6655 79.3572H49.0267L55.395 62.9576H58.2636H58.2639ZM56.8966 67.8258L54.511 73.7637H59.0698L56.8966 67.8258Z" fill="#231F20"/>
<path d="M80.5441 62.9576V79.3572H77.4502L70.3831 69.3489V79.3572H66.9V62.9576H70.018L77.061 72.9675V62.9576H80.5441Z" fill="#231F20"/>
<path d="M10.8776 15.085C8.40793 12.8742 5.60224 10.8646 2.54481 8.9821C2.47419 8.93831 2.40333 8.89665 2.33271 8.85286C1.96158 7.51328 1.59045 6.17584 1.21932 4.8384C0.843867 3.48787 0.459527 2.13949 0 0.5C0.0773485 0.54808 0.156859 0.596398 0.234207 0.646621C5.87849 4.151 9.97628 8.43275 10.8776 15.0847V15.085Z" fill="#195B04"/>
<path d="M51.6439 9.05614C48.9533 15.2333 46.3928 21.0821 43.8569 26.9417C39.6441 36.6758 35.4161 46.4035 31.2717 56.1661C30.6089 57.729 29.8181 58.4273 28.0021 58.3267C24.7725 58.1493 21.5229 58.18 18.2911 58.3157C16.716 58.3835 16.0465 57.8494 15.6425 56.3851C12.5651 45.2281 9.42385 34.0888 6.29796 22.9449C5.62416 20.5392 4.93283 18.1381 4.10217 15.218C4.19489 15.2749 4.29002 15.3318 4.38274 15.3887C4.45336 15.4325 4.52399 15.4741 4.59485 15.5179C7.65228 17.4004 10.4577 19.4098 12.9276 21.6208C13.0602 21.7388 13.1904 21.8571 13.3187 21.9754C13.9682 22.5707 14.5911 23.1815 15.1897 23.8075C16.292 24.959 17.3081 26.1672 18.2293 27.439C21.1984 31.5453 23.1623 36.3216 23.8006 42.0763C23.9685 42.037 24.1364 41.9975 24.3021 41.9582C24.5231 41.619 24.808 41.3037 24.9538 40.9359C28.8816 31.0224 32.8381 21.1216 36.6709 11.1731C37.3049 9.52719 38.1113 8.94689 39.8831 9.01259C43.6938 9.15492 47.5132 9.05638 51.6441 9.05638L51.6439 9.05614Z" fill="#F05A28"/>
<path d="M65.4764 9.18463H77.342V40.04H82.9997V48.1405H77.342V57.494C77.342 58.3975 76.6026 59.1302 75.6908 59.1302H68.2896C67.3777 59.1302 66.6384 58.3975 66.6384 57.494V48.1405H47.3373C46.0048 48.1405 44.9246 47.0701 44.9246 45.7498V40.3406C44.9246 39.96 45.0355 39.5875 45.244 39.2681L64.555 9.68138C64.7572 9.37172 65.1039 9.18463 65.4762 9.18463H65.4764ZM64.1786 22.892L52.5698 40.0397H66.6386V23.6337C66.6386 22.3181 64.9182 21.7992 64.1786 22.8918V22.892Z" fill="#103C55"/>
</g>
<defs>
<clipPath id="clip0_288_3351">
<rect width="83" height="79" fill="white" transform="translate(0 0.5)"/>
</clipPath>
</defs>
</svg>
