<svg width="56" height="56" viewBox="0 0 56 56" fill="none" xmlns="http://www.w3.org/2000/svg">
<path d="M43.0967 39.27L44.0067 46.6433C44.2401 48.5799 42.1634 49.9332 40.5067 48.9299L30.73 43.1199C29.6567 43.1199 28.6067 43.05 27.5801 42.91C29.3067 40.88 30.3334 38.3132 30.3334 35.5366C30.3334 28.9099 24.5934 23.5434 17.5001 23.5434C14.7934 23.5434 12.2967 24.3133 10.2201 25.6666C10.1501 25.0833 10.1267 24.4999 10.1267 23.8933C10.1267 13.2766 19.3434 4.66663 30.73 4.66663C42.1167 4.66663 51.3334 13.2766 51.3334 23.8933C51.3334 30.1933 48.0901 35.77 43.0967 39.27Z" stroke="#103C55" stroke-width="4" stroke-linecap="round" stroke-linejoin="round"/>
<path d="M30.3333 35.5367C30.3333 38.3133 29.3066 40.8801 27.58 42.9101C25.27 45.7101 21.6066 47.5067 17.5 47.5067L11.41 51.1233C10.3833 51.7533 9.07662 50.89 9.21662 49.7L9.79995 45.1034C6.67329 42.9334 4.66663 39.4567 4.66663 35.5367C4.66663 31.43 6.85997 27.8134 10.22 25.6667C12.2966 24.3134 14.7933 23.5435 17.5 23.5435C24.5933 23.5435 30.3333 28.91 30.3333 35.5367Z" stroke="#C31162" stroke-width="4" stroke-linecap="round" stroke-linejoin="round"/>
</svg>
