<svg width="524" height="60" viewBox="0 0 524 60" fill="none" xmlns="http://www.w3.org/2000/svg">
<g clip-path="url(#clip0_288_3480)">
<path d="M271.178 15.0387L273.757 14.2631L277.798 9.17993L272.294 11.4201L271.178 15.0387Z" fill="url(#paint0_linear_288_3480)"/>
<path d="M300.287 30.0075L298.858 27.5247L298.215 26.4082V30.0075H298.858H300.287Z" fill="url(#paint1_linear_288_3480)"/>
<path d="M296.135 30.005L297.446 27.7335L298.21 26.4081V25.426C294.445 22.6983 289.182 25.3924 289.182 30.0458V34.2598L290.613 36.7425H289.184V52.8301L298.212 46.9714V30.005H296.135Z" fill="url(#paint2_linear_288_3480)"/>
<path d="M287.778 34.4686V33.7483L287.764 31.5344C287.763 31.3272 287.712 31.1231 287.617 30.9391C287.521 30.7552 287.383 30.5965 287.215 30.4762C287.046 30.3559 286.851 30.2775 286.646 30.2473C286.441 30.2171 286.231 30.2361 286.035 30.3027C285.103 30.6228 284.158 30.9574 283.199 31.3063C282.05 31.7273 280.929 32.1539 279.838 32.5861C279.594 32.6826 279.384 32.8504 279.237 33.0675C279.09 33.2846 279.011 33.5411 279.012 33.8035V45.5691L280.452 48.0759H279.012V54.8855C279.014 55.1146 279.071 55.3398 279.178 55.5424C279.285 55.745 279.439 55.9191 279.627 56.0504C279.815 56.1816 280.031 56.2662 280.258 56.297C280.485 56.3278 280.717 56.3041 280.933 56.2277L287.176 53.9514C287.431 53.8583 287.651 53.688 287.805 53.4643C287.959 53.2405 288.039 52.9744 288.035 52.7028L287.819 36.7353H286.477L287.778 34.4686Z" fill="url(#paint3_linear_288_3480)"/>
<path d="M276.729 45.8069V38.2985C276.731 37.7665 276.609 37.2413 276.374 36.7641C276.139 36.2869 275.797 35.8705 275.374 35.5477C274.951 35.2249 274.46 35.0043 273.937 34.9034C273.415 34.8024 272.876 34.8238 272.364 34.9657H272.32C271.564 35.1794 264.776 36.8987 264.766 37.218C264.829 45.5932 264.889 40.5796 264.944 48.9427C259.422 48.4193 253.805 46.1382 250.499 41.6697C245.86 35.4003 246.177 25.695 251.138 19.7234C252.074 18.6245 253.148 17.6498 254.331 16.8228C259.321 13.2595 265.645 11.5835 271.274 9.31924C277.809 6.6892 284.312 3.97432 290.78 1.1746C289.114 0.115703 287.042 -0.134015 285.078 0.0604774C283.114 0.254969 281.219 0.862457 279.315 1.40511C275.473 2.50723 271.458 3.36444 267.489 2.87701C265.405 2.62009 263.379 1.99819 261.294 1.75328C259.21 1.50836 256.972 1.69325 255.244 2.89621C259.286 4.68771 263.428 6.24306 267.65 7.55441C264.903 8.95187 262.092 10.1957 259.301 11.4995C259.097 11.61 258.875 11.6847 258.646 11.7204C258.313 11.7246 257.983 11.6488 257.686 11.4995C256.161 10.88 254.3 10.3205 252.987 11.3122L254.72 13.382C251.853 14.5854 249.273 16.3834 247.152 18.6572C242.066 23.9613 239.67 31.6882 240.738 38.954C242.244 49.1828 250.645 57.3155 260.574 59.4885C264.459 60.3462 268.504 60.122 272.27 58.8402C272.75 58.6769 276.731 57.3539 276.731 56.6552V48.0831H275.413L276.729 45.8069Z" fill="url(#paint4_linear_288_3480)"/>
<path d="M9.43866 21.808C8.26704 22.4988 6.92316 22.8422 5.56377 22.7982C3.8416 22.7982 2.48539 22.2744 1.49514 21.2267C0.504895 20.1791 0.00833601 18.7439 0.00546573 16.9213C-0.0637035 15.2612 0.525891 13.641 1.64583 12.4135C2.20176 11.8395 2.87266 11.3894 3.61461 11.0926C4.35655 10.7958 5.15281 10.6591 5.95126 10.6914C6.98079 10.6696 8.00463 10.8495 8.96506 11.2209V13.5932C8.04124 13.0381 6.97679 12.7615 5.89959 12.7967C5.42183 12.7809 4.94657 12.872 4.50856 13.0634C4.07055 13.2549 3.68086 13.5418 3.368 13.9032C2.694 14.7189 2.34856 15.7567 2.39928 16.8137C2.333 17.8432 2.63856 18.8622 3.26037 19.6854C3.55511 20.0262 3.92322 20.2958 4.33706 20.4741C4.75091 20.6523 5.19974 20.7344 5.64988 20.7144C6.15688 20.7338 6.66093 20.6289 7.11803 20.4087V18.002H4.95671V16H9.43866V21.808Z" fill="#ED6D05"/>
<path d="M11.3242 22.5958V10.2048H13.5717V22.5958H11.3242Z" fill="#ED6D05"/>
<path d="M22.4297 19.0998H17.358C17.4355 20.3943 18.153 21.043 19.5107 21.0459C20.3146 21.0604 21.1026 20.8208 21.7624 20.3613V22.1438C20.9193 22.608 19.9641 22.83 19.0026 22.7853C18.4732 22.816 17.9434 22.7315 17.4498 22.5375C16.9562 22.3434 16.5106 22.0446 16.1438 21.6615C15.4193 20.7802 15.0548 19.6575 15.1234 18.5186C15.0704 17.3335 15.4585 16.1708 16.2127 15.2551C16.5453 14.8545 16.9637 14.534 17.4369 14.3171C17.9102 14.1002 18.4262 13.9926 18.9467 14.0022C19.431 13.9746 19.9153 14.0576 20.3628 14.2449C20.8104 14.4321 21.2095 14.7186 21.5299 15.0829C22.1861 15.9258 22.5135 16.9786 22.4513 18.045L22.4297 19.0998ZM20.333 17.5714C20.333 16.3142 19.8594 15.6856 18.9122 15.6856C18.7148 15.6899 18.5208 15.7381 18.3443 15.8268C18.1678 15.9154 18.0132 16.0422 17.8918 16.198C17.5728 16.5866 17.3778 17.062 17.3321 17.5628L20.333 17.5714Z" fill="#ED6D05"/>
<path d="M30.7391 19.1H25.663C25.7434 20.3945 26.461 21.0432 27.8158 21.046C28.6197 21.0606 29.4077 20.821 30.0675 20.3615V22.1439C29.2242 22.6078 28.2692 22.8297 27.3077 22.7854C26.7776 22.8159 26.2473 22.7313 25.753 22.5373C25.2588 22.3433 24.8124 22.0446 24.4446 21.6617C23.72 20.7803 23.3555 19.6576 23.4242 18.5187C23.3684 17.3339 23.7551 16.1707 24.5092 15.2552C24.84 14.8538 25.2575 14.5326 25.7303 14.3156C26.203 14.0986 26.7188 13.9915 27.2388 14.0023C27.7197 13.9775 28.2 14.0618 28.6436 14.2489C29.0873 14.4361 29.4828 14.7212 29.8006 15.083C30.4583 15.9254 30.7873 16.9782 30.7262 18.0451L30.7391 19.1ZM28.6424 17.5715C28.6424 16.3201 28.1745 15.6944 27.2388 15.6944C27.0437 15.7012 26.8524 15.7505 26.6784 15.839C26.5043 15.9275 26.3518 16.053 26.2314 16.2067C25.9154 16.5968 25.7222 17.0717 25.676 17.5715H28.6424Z" fill="#ED6D05"/>
<path d="M44.3116 22.5959H42.0685V17.8384C42.0685 16.5554 41.6379 15.9139 40.7768 15.9139C40.574 15.917 40.3753 15.9725 40.2003 16.0751C40.0253 16.1777 39.8798 16.3239 39.778 16.4994C39.5046 16.9218 39.3665 17.4174 39.3819 17.9202V22.6131H37.1215V17.7609C37.1215 16.5181 36.691 15.8967 35.8299 15.8967C35.6272 15.894 35.4272 15.9442 35.2498 16.0424C35.0724 16.1405 34.9236 16.2832 34.8181 16.4564C34.5461 16.8961 34.4139 17.4081 34.4392 17.9245V22.5959H32.1875V14.2261H34.4392V15.5178H34.4651C34.7175 15.0578 35.0874 14.673 35.5371 14.4027C35.9608 14.1425 36.4479 14.004 36.945 14.0023C37.4397 13.9799 37.9276 14.1237 38.331 14.4109C38.7344 14.698 39.0301 15.1119 39.1709 15.5867C39.4065 15.1044 39.7745 14.6993 40.232 14.4187C40.6895 14.1381 41.2175 13.9936 41.7542 14.0023C43.4333 14.0023 44.2714 15.1274 44.2685 17.3777L44.3116 22.5959Z" fill="#ED6D05"/>
<path d="M55.3602 12.0906C55.0891 11.9685 54.7964 11.9012 54.4992 11.8925C53.7285 11.8925 53.341 12.3575 53.341 13.2875V14.2261H55.0761V16.0473H53.3539V22.5958H51.1022V16.0473H49.8105V14.2261H51.1022V13.1497C51.0836 12.7302 51.1504 12.3113 51.2984 11.9184C51.4464 11.5254 51.6726 11.1666 51.9633 10.8635C52.2606 10.5749 52.6136 10.3497 53.0007 10.2017C53.3878 10.0536 53.8009 9.98582 54.215 10.0025C54.6115 9.99048 55.0072 10.0443 55.3861 10.1618L55.3602 12.0906Z" fill="#ED6D05"/>
<path d="M55.7922 18.4497C55.7591 17.8601 55.8429 17.2698 56.0387 16.7127C56.2345 16.1556 56.5385 15.6427 56.9331 15.2034C57.3337 14.8038 57.8132 14.492 58.341 14.2882C58.8688 14.0843 59.4334 13.9928 59.9986 14.0194C60.545 13.9937 61.0908 14.084 61.5998 14.2844C62.1089 14.4847 62.5698 14.7906 62.9521 15.1819C63.7107 16.0394 64.1033 17.1599 64.0457 18.3033C64.1078 19.4988 63.7069 20.6722 62.9263 21.5798C62.1164 22.3529 61.0424 22.7886 59.9227 22.7982C58.803 22.8078 57.7217 22.3906 56.8987 21.6314C56.1273 20.7567 55.73 19.6143 55.7922 18.4497ZM58.0741 18.4196C58.0741 20.0901 58.7012 20.9253 59.9555 20.9253C61.1567 20.9253 61.7595 20.0643 61.7595 18.3421C61.7595 16.706 61.1539 15.888 59.9426 15.888C59.6765 15.876 59.4115 15.9298 59.1712 16.0447C58.9309 16.1596 58.7226 16.332 58.5649 16.5467C58.2096 17.1038 58.0435 17.7606 58.0913 18.4196H58.0741Z" fill="#ED6D05"/>
<path d="M70.5516 16.4433C70.25 16.2639 69.9035 16.1743 69.5527 16.185C69.3127 16.1785 69.0751 16.2337 68.8625 16.3453C68.65 16.4568 68.4696 16.621 68.3386 16.8222C68.0099 17.3438 67.8519 17.9547 67.8865 18.5702V22.5958H65.6348V14.226H67.8865V15.7975H67.9166C68.2869 14.6494 68.9629 14.0754 69.9445 14.0754C70.1515 14.0663 70.3582 14.1 70.5516 14.1744V16.4433Z" fill="#ED6D05"/>
<path d="M80.478 22.4969C79.9989 22.7287 79.4679 22.8325 78.9367 22.7982C77.3006 22.7982 76.4826 21.8654 76.4826 19.9997V16.0473H75.2168V14.2261H76.4826V12.3877L78.7214 11.6902V14.2261H80.478V16.0473H78.7214V19.5606C78.7214 20.4518 79.0443 20.8995 79.6944 20.8995C79.9733 20.8916 80.2445 20.8067 80.478 20.6541V22.4969Z" fill="#ED6D05"/>
<path d="M81.3394 18.4498C81.3054 17.8601 81.3888 17.2696 81.5846 16.7123C81.7805 16.1551 82.0849 15.6422 82.4804 15.2035C82.8799 14.8037 83.3587 14.4919 83.8858 14.288C84.413 14.0841 84.977 13.9927 85.5415 14.0195C86.0887 13.9932 86.6353 14.0832 87.1451 14.2836C87.655 14.4839 88.1165 14.7901 88.4994 15.182C89.258 16.0395 89.6505 17.16 89.5929 18.3034C89.6557 19.4997 89.253 20.6739 88.4692 21.5798C87.6598 22.354 86.5856 22.7903 85.4657 22.7999C84.3457 22.8095 83.2642 22.3916 82.4416 21.6315C81.6718 20.7561 81.2761 19.6138 81.3394 18.4498ZM83.6213 18.4197C83.6213 20.0902 84.2456 20.9254 85.5028 20.9254C86.76 20.9254 87.3068 20.0643 87.3068 18.3422C87.3068 16.7061 86.6997 15.8881 85.4856 15.8881C85.2173 15.8735 84.9495 15.9261 84.7067 16.0411C84.4639 16.1561 84.2536 16.3299 84.0949 16.5468C83.7336 17.1018 83.5614 17.7588 83.6041 18.4197H83.6213Z" fill="#ED6D05"/>
<path d="M98.3708 22.596H96.132V21.3044H96.0975C95.8816 21.7477 95.5456 22.1216 95.1278 22.3834C94.7099 22.6452 94.227 22.7845 93.7339 22.7855C91.9428 22.7855 91.0458 21.6101 91.043 19.2593V14.2263H93.2947V19.0484C93.2947 20.297 93.7253 20.9256 94.6466 20.9256C94.8551 20.9331 95.0623 20.89 95.2505 20.8001C95.4387 20.7101 95.6023 20.5759 95.7273 20.4089C96.0159 20.0046 96.1586 19.5143 96.132 19.0182V14.2263H98.3708V22.596Z" fill="#ED6D05"/>
<path d="M105.325 16.4435C105.025 16.2635 104.68 16.1738 104.33 16.1852C104.09 16.1792 103.852 16.2346 103.638 16.3461C103.425 16.4575 103.244 16.6215 103.112 16.8224C102.793 17.3476 102.643 17.9575 102.681 18.5704V22.596H100.412V14.2262H102.664V15.7977H102.694C103.064 14.6496 103.74 14.0756 104.722 14.0756C104.927 14.0659 105.133 14.0997 105.325 14.1746V16.4435Z" fill="#ED6D05"/>
<path d="M106.311 11.5223C106.305 11.353 106.335 11.1844 106.398 11.0272C106.461 10.87 106.556 10.7277 106.677 10.6095C106.802 10.4924 106.949 10.4012 107.109 10.3414C107.27 10.2815 107.44 10.2541 107.612 10.2608C107.786 10.2529 107.96 10.2805 108.124 10.3419C108.287 10.4034 108.437 10.4973 108.563 10.6182C108.682 10.7362 108.775 10.8773 108.837 11.0328C108.9 11.1883 108.929 11.3549 108.925 11.5223C108.929 11.693 108.899 11.8629 108.835 12.0214C108.771 12.1798 108.676 12.3236 108.554 12.4437C108.299 12.68 107.964 12.8112 107.616 12.8112C107.268 12.8112 106.933 12.68 106.677 12.4437C106.556 12.3234 106.462 12.1795 106.399 12.021C106.336 11.8625 106.306 11.6927 106.311 11.5223ZM106.479 22.5958V14.2261H108.722V22.5958H106.479Z" fill="#ED6D05"/>
<path d="M110.535 20.3484C111.198 20.8212 111.986 21.0865 112.8 21.1105C113.73 21.1105 114.195 20.8435 114.195 20.301C114.195 19.9179 113.812 19.5993 113.041 19.3409C112.307 19.1455 111.63 18.7763 111.069 18.2646C110.666 17.7378 110.48 17.0759 110.552 16.4162C110.623 15.7565 110.945 15.1496 111.452 14.7212C112.156 14.2261 113.004 13.9792 113.863 14.0194C114.559 14.0186 115.25 14.1335 115.908 14.3596V16.2841C115.318 15.9031 114.63 15.7026 113.928 15.7072C113.627 15.6934 113.328 15.7666 113.067 15.9181C112.968 15.9718 112.886 16.0508 112.829 16.147C112.771 16.2431 112.74 16.3529 112.74 16.4649C112.74 16.8481 113.067 17.1581 113.717 17.3949C114.259 17.5797 114.785 17.8101 115.288 18.0838C115.624 18.2792 115.901 18.5618 116.089 18.9018C116.279 19.264 116.374 19.6684 116.365 20.0772C116.383 20.4644 116.305 20.8502 116.138 21.2002C115.972 21.5502 115.721 21.8536 115.409 22.0835C114.66 22.5941 113.765 22.8452 112.86 22.7982C112.066 22.8071 111.278 22.6608 110.539 22.3676L110.535 20.3484Z" fill="#ED6D05"/>
<path d="M129.875 22.5958H127.632V17.8383C127.632 16.5553 127.201 15.9138 126.34 15.9138C126.138 15.9164 125.939 15.9717 125.765 16.0744C125.591 16.1771 125.446 16.3236 125.346 16.4993C125.069 16.9204 124.929 17.4166 124.945 17.9201V22.613H122.702V17.7608C122.702 16.518 122.271 15.8966 121.41 15.8966C121.207 15.8936 121.006 15.9436 120.828 16.0418C120.65 16.1399 120.5 16.2828 120.394 16.4563C120.124 16.8967 119.992 17.4082 120.015 17.9244V22.5958H117.764V14.2261H120.015V15.5177H120.046C120.296 15.056 120.666 14.6706 121.118 14.4026C121.541 14.1414 122.028 14.0028 122.525 14.0022C123.02 13.98 123.507 14.124 123.91 14.4112C124.312 14.6984 124.607 15.1122 124.747 15.5866C124.983 15.1043 125.351 14.6992 125.808 14.4186C126.266 14.138 126.794 13.9935 127.33 14.0022C129.009 14.0022 129.849 15.1273 129.849 17.3776L129.875 22.5958Z" fill="#ED6D05"/>
<path d="M143.572 21.2827C142.503 22.2534 141.107 22.7853 139.663 22.7723C138.599 22.83 137.551 22.491 136.722 21.8208C136.357 21.4942 136.07 21.0899 135.881 20.6377C135.693 20.1855 135.608 19.6967 135.633 19.2074C135.633 17.6747 136.503 16.5395 138.242 15.8018C137.381 15.0613 136.929 14.2433 136.929 13.3564C136.913 12.985 136.982 12.6149 137.131 12.2745C137.281 11.9342 137.506 11.6326 137.79 11.3931C138.461 10.8749 139.295 10.6151 140.141 10.6612C140.94 10.6267 141.726 10.8803 142.354 11.3759C142.629 11.5937 142.85 11.8723 142.999 12.1897C143.149 12.5072 143.222 12.8549 143.215 13.2057C143.215 14.3997 142.572 15.2881 141.286 15.8707C142.369 16.4478 143.265 17.3215 143.869 18.3894C144.664 17.2682 145.071 15.9182 145.028 14.5447C145.033 14.1636 144.984 13.7837 144.881 13.4166H146.819C146.925 13.7697 146.974 14.1374 146.965 14.5059C146.965 16.5134 146.223 18.45 144.881 19.9437C145.424 20.5723 145.94 20.8865 146.427 20.8865C146.896 20.8916 147.359 20.7807 147.775 20.5636V22.4322C147.252 22.6619 146.687 22.7778 146.117 22.7723C145.226 22.7852 144.369 22.2858 143.572 21.2827ZM142.591 19.7241C141.917 18.4531 140.851 17.4337 139.551 16.8179C138.462 17.3604 137.919 18.1096 137.919 19.1084C137.91 19.3475 137.951 19.5858 138.04 19.8082C138.128 20.0306 138.261 20.2321 138.432 20.4C138.611 20.5688 138.822 20.6999 139.053 20.7857C139.284 20.8715 139.529 20.9102 139.775 20.8995C140.829 20.8944 141.84 20.4772 142.591 19.737V19.7241ZM139.896 14.958C140.757 14.6107 141.194 14.0883 141.209 13.3908C141.213 13.2471 141.187 13.104 141.133 12.9711C141.078 12.8382 140.995 12.7186 140.89 12.6201C140.689 12.4274 140.42 12.3222 140.141 12.3274C139.823 12.3168 139.514 12.4311 139.28 12.646C139.17 12.7461 139.083 12.8686 139.024 13.0052C138.965 13.1419 138.937 13.2895 138.94 13.4382C138.948 13.7539 139.041 14.0616 139.209 14.329C139.378 14.5964 139.615 14.8137 139.896 14.958Z" fill="#ED6D05"/>
<path d="M153.104 11.5223C153.099 11.3532 153.129 11.1849 153.192 11.0279C153.255 10.8708 153.35 10.7284 153.47 10.6096C153.595 10.4919 153.743 10.4005 153.904 10.3406C154.065 10.2807 154.237 10.2536 154.409 10.2609C154.582 10.2536 154.756 10.2815 154.919 10.3429C155.081 10.4043 155.23 10.4979 155.356 10.6182C155.475 10.7363 155.568 10.8774 155.63 11.0329C155.692 11.1884 155.722 11.3549 155.717 11.5223C155.723 11.6928 155.693 11.8626 155.63 12.0211C155.567 12.1796 155.472 12.3234 155.351 12.4437C155.096 12.68 154.761 12.8113 154.413 12.8113C154.065 12.8113 153.73 12.68 153.474 12.4437C153.353 12.3236 153.257 12.1799 153.194 12.0214C153.13 11.8629 153.099 11.6931 153.104 11.5223ZM153.272 22.5959V14.2262H155.519V22.5959H153.272Z" fill="#ED6D05"/>
<path d="M164.864 22.5958H162.625V17.9245C162.625 16.5725 162.178 15.8966 161.282 15.8966C161.073 15.8941 160.867 15.9421 160.681 16.0366C160.496 16.1311 160.335 16.2692 160.214 16.4391C159.916 16.8362 159.763 17.3245 159.784 17.8211V22.5958H157.545V14.2261H159.797V15.5565H159.827C160.047 15.0879 160.399 14.6934 160.839 14.4206C161.279 14.1478 161.789 14.0084 162.307 14.0194C164.029 14.0194 164.89 15.1675 164.89 17.4638L164.864 22.5958Z" fill="#ED6D05"/>
<path d="M173.98 14.2263L171.087 22.596H168.542L165.791 14.2263H168.202L169.601 19.4918C169.735 19.9642 169.82 20.4489 169.855 20.9385H169.89C169.942 20.4651 170.034 19.997 170.165 19.5392L171.608 14.2263H173.98Z" fill="#ED6D05"/>
<path d="M181.707 19.0999H176.635C176.713 20.3944 177.43 21.0431 178.788 21.0459C179.592 21.0605 180.38 20.8209 181.04 20.3614V22.1438C180.197 22.6081 179.241 22.8301 178.28 22.7853C177.751 22.8161 177.221 22.7315 176.727 22.5375C176.234 22.3435 175.788 22.0447 175.421 21.6616C174.697 20.7803 174.332 19.6575 174.401 18.5186C174.348 17.3355 174.734 16.1746 175.486 15.2594C175.818 14.8589 176.237 14.5383 176.71 14.3215C177.183 14.1046 177.699 13.997 178.22 14.0066C178.704 13.979 179.188 14.062 179.636 14.2492C180.083 14.4364 180.482 14.723 180.803 15.0872C181.459 15.9302 181.787 16.9829 181.724 18.0494L181.707 19.0999ZM179.61 17.5715C179.61 16.3186 179.141 15.6943 178.211 15.6943C178.013 15.698 177.818 15.7459 177.641 15.8345C177.463 15.9232 177.308 16.0503 177.186 16.2066C176.867 16.5952 176.672 17.0707 176.627 17.5715H179.61Z" fill="#ED6D05"/>
<path d="M182.968 20.3484C183.631 20.8205 184.419 21.0857 185.233 21.1105C186.163 21.1105 186.628 20.8435 186.628 20.301C186.628 19.9179 186.244 19.5993 185.478 19.3409C184.744 19.1455 184.068 18.7763 183.506 18.2646C183.13 17.8153 182.937 17.2399 182.968 16.6543C182.952 16.2814 183.028 15.9102 183.188 15.5732C183.349 15.2363 183.59 14.9437 183.889 14.7212C184.593 14.2261 185.441 13.9792 186.3 14.0194C186.995 14.0189 187.685 14.1339 188.341 14.3596V16.2841C187.752 15.9024 187.063 15.7019 186.361 15.7072C186.059 15.6919 185.76 15.7652 185.5 15.9181C185.401 15.9711 185.318 16.05 185.26 16.1463C185.203 16.2426 185.172 16.3527 185.172 16.4649C185.172 16.8481 185.495 17.1581 186.145 17.3949C186.688 17.5788 187.214 17.8093 187.717 18.0838C188.055 18.2765 188.332 18.5598 188.518 18.9018C188.707 19.264 188.802 19.6684 188.793 20.0772C188.811 20.4639 188.734 20.8492 188.568 21.199C188.402 21.5489 188.153 21.8526 187.842 22.0835C187.092 22.5939 186.195 22.8449 185.289 22.7982C184.495 22.8068 183.706 22.6605 182.968 22.3676V20.3484Z" fill="#ED6D05"/>
<path d="M194.751 22.4969C194.274 22.7287 193.744 22.8326 193.214 22.7982C191.578 22.7982 190.76 21.8654 190.76 19.9997V16.0473H189.49V14.2261H190.76V12.3877L192.999 11.6902V14.2261H194.751V16.0473H192.999V19.5606C192.999 20.4518 193.322 20.8995 193.972 20.8995C194.25 20.8915 194.519 20.8066 194.751 20.6541V22.4969Z" fill="#ED6D05"/>
<path d="M208.218 22.5958H205.975V17.8383C205.975 16.5553 205.545 15.9138 204.683 15.9138C204.481 15.9163 204.283 15.9717 204.108 16.0744C203.934 16.1771 203.789 16.3236 203.689 16.4993C203.414 16.9207 203.275 17.417 203.293 17.9201V22.613H201.028V17.7608C201.028 16.5165 200.598 15.8965 199.737 15.8965C199.533 15.8935 199.333 15.9436 199.154 16.0417C198.976 16.1399 198.827 16.2827 198.72 16.4562C198.45 16.8967 198.318 17.4081 198.342 17.9244V22.5958H196.09V14.226H198.342V15.5177H198.372C198.622 15.0559 198.992 14.6706 199.444 14.4026C199.867 14.1424 200.354 14.0039 200.852 14.0021C201.346 13.9792 201.834 14.1229 202.236 14.4102C202.639 14.6975 202.934 15.1118 203.073 15.5865C203.31 15.105 203.678 14.7004 204.135 14.4199C204.593 14.1394 205.12 13.9945 205.657 14.0021C207.33 14.0021 208.168 15.1273 208.171 17.3776L208.218 22.5958Z" fill="#ED6D05"/>
<path d="M216.991 19.1001H211.915C211.992 20.3917 212.716 21.0461 214.068 21.0461C214.872 21.0601 215.659 20.8206 216.319 20.3615V22.144C215.476 22.6078 214.521 22.8298 213.56 22.7855C213.03 22.8163 212.499 22.7318 212.005 22.5378C211.511 22.3438 211.064 22.0449 210.697 21.6618C209.972 20.7804 209.607 19.6577 209.676 18.5188C209.623 17.3349 210.011 16.1734 210.765 15.2596C211.096 14.8582 211.514 14.537 211.987 14.32C212.459 14.103 212.975 13.9959 213.495 14.0067C213.976 13.9819 214.456 14.0662 214.9 14.2533C215.344 14.4405 215.739 14.7256 216.057 15.0874C216.715 15.9298 217.044 16.9825 216.982 18.0495L216.991 19.1001ZM214.89 17.5716C214.89 16.3202 214.424 15.6945 213.491 15.6945C213.293 15.6981 213.098 15.746 212.92 15.8347C212.743 15.9233 212.588 16.0505 212.466 16.2068C212.151 16.5977 211.956 17.072 211.906 17.5716H214.89Z" fill="#ED6D05"/>
<path d="M225.777 22.596H223.538V17.9246C223.538 16.5727 223.09 15.8967 222.195 15.8967C221.986 15.8942 221.78 15.9423 221.594 16.0367C221.408 16.1312 221.248 16.2693 221.127 16.4392C220.828 16.8364 220.676 17.3247 220.697 17.8213V22.596H218.449V14.2262H220.697V15.5566H220.727C220.948 15.0884 221.299 14.6942 221.739 14.4214C222.18 14.1487 222.689 14.0091 223.207 14.0196C224.929 14.0196 225.79 15.1677 225.79 17.4639L225.777 22.596Z" fill="#ED6D05"/>
<path d="M232.24 22.4969C231.761 22.7282 231.23 22.832 230.699 22.7982C229.063 22.7982 228.245 21.8654 228.245 19.9997V16.0473H226.953V14.2261H228.245V12.3877L230.484 11.6902V14.2261H232.24V16.0473H230.484V19.5606C230.484 20.4518 230.806 20.8995 231.457 20.8995C231.735 20.891 232.006 20.8061 232.24 20.6541V22.4969Z" fill="#ED6D05"/>
<path d="M87.3885 36.8467L88.2194 38.3622C88.6108 39.0117 88.8149 39.7567 88.8093 40.5149V41.7549C88.8093 42.7537 88.2453 43.8215 87.3282 44.8763C86.6092 45.5996 85.9763 45.901 85.3908 45.901C84.3345 45.8421 83.3049 45.5479 82.377 45.0399L82.5061 44.6567C82.924 44.789 83.3595 44.8572 83.7977 44.8591C85.4553 44.8591 87.1474 43.49 87.9223 41.8238C88.0019 41.6705 88.046 41.5013 88.0515 41.3287C88.0294 41.1231 87.9741 40.9224 87.8879 40.7345C87.4869 39.8728 87.0145 39.0462 86.4757 38.2632C86.747 37.7767 87.0182 37.316 87.311 36.8553L87.3885 36.8467Z" fill="#ED6D05"/>
<path d="M94.858 40.9499C95.5168 40.6012 95.788 39.9597 96.2099 39.1632C96.5121 38.5566 96.8711 37.9799 97.282 37.441H97.3982C98.0942 38.3336 98.8402 39.186 99.6328 39.9941C100.494 40.8552 101.29 41.2082 102.078 41.2082H102.216V42.6462H102.078C101.616 42.6525 101.16 42.5501 100.745 42.3475C100.329 42.1448 99.9678 41.8475 99.6887 41.4795H99.6543V41.6603C99.6543 43.2103 98.8578 43.9852 98.1861 43.9852C97.0452 43.9852 95.9645 42.896 95.7062 41.5699H95.6459C95.4322 41.904 95.1363 42.1777 94.7865 42.3646C94.4367 42.5516 94.0448 42.6456 93.6482 42.6376C93.3263 42.6508 93.005 42.6002 92.7028 42.4886C92.4005 42.377 92.1234 42.2067 91.8873 41.9875C91.1683 41.2901 91.1123 40.5021 91.1123 38.8489C91.1123 36.6961 90.9832 34.4788 90.8066 32.0936C91.149 31.7195 91.5173 31.3699 91.9088 31.0474L91.9906 31.0948C92.1801 33.5575 92.1801 36.468 92.1801 39.232V39.8735C92.1645 40.1421 92.2415 40.4078 92.3982 40.6264C92.5549 40.8451 92.7818 41.0033 93.0412 41.0748C93.2841 41.1562 93.5384 41.1984 93.7946 41.1996C94.1631 41.1956 94.5262 41.1103 94.858 40.9499ZM97.0108 38.9694C96.6937 39.4223 96.4967 39.9481 96.4381 40.4978C96.4381 41.3589 97.2002 42.4999 98.2722 42.4999C98.4608 42.4672 98.6304 42.3651 98.7475 42.2137C98.8646 42.0623 98.9209 41.8726 98.9051 41.6818C98.9024 41.3154 98.7591 40.964 98.5047 40.7002C98.0742 40.119 97.5662 39.5765 97.071 38.978L97.0108 38.9694Z" fill="#ED6D05"/>
<path d="M102.474 41.2083C103.378 41.2083 104.321 40.8596 104.493 40.2181L104.837 39.0039L105.647 38.4442L105.716 38.5217C105.581 38.9411 105.494 39.3744 105.457 39.8134C105.443 39.9887 105.471 40.1649 105.538 40.3274C105.605 40.4898 105.711 40.6339 105.845 40.7477C106.268 41.0536 106.783 41.2056 107.304 41.1782H107.515V42.6162H107.244C106.094 42.6162 105.225 42.3148 104.824 41.471H104.777C104.377 42.2244 103.447 42.6162 102.439 42.6162H102.215C102.11 42.6286 102.004 42.6182 101.903 42.5857C101.802 42.5532 101.71 42.4994 101.631 42.4279C101.553 42.3564 101.492 42.2689 101.451 42.1714C101.409 42.0738 101.39 41.9686 101.393 41.8628C101.393 41.5958 101.578 41.1782 102.215 41.1782L102.474 41.2083ZM103.765 36.946C103.283 36.5154 102.861 36.1495 102.392 35.7792C102.676 35.4028 102.985 35.0461 103.317 34.7114C103.797 35.0747 104.246 35.4765 104.661 35.9127C104.404 36.2912 104.103 36.638 103.765 36.946ZM104.402 34.5521C103.92 34.1216 103.494 33.7556 103.025 33.3854C103.31 33.0089 103.621 32.6521 103.955 32.3176C104.434 32.6799 104.882 33.0817 105.294 33.5188C105.037 33.8963 104.738 34.243 104.402 34.5521ZM106.034 36.7996C105.552 36.369 105.13 36.0031 104.661 35.6328C104.945 35.2564 105.254 34.8997 105.586 34.5651C106.066 34.9283 106.515 35.3301 106.93 35.7663C106.671 36.1377 106.37 36.4786 106.034 36.7824V36.7996Z" fill="#ED6D05"/>
<path d="M107.774 41.2082C108.678 41.2082 109.617 40.8594 109.794 40.2179L110.138 39.0038L110.947 38.4441L111.016 38.5216C110.882 38.941 110.795 39.3743 110.758 39.8132C110.744 39.9885 110.771 40.1647 110.839 40.3272C110.906 40.4897 111.011 40.6338 111.146 40.7475C111.569 41.0535 112.084 41.2054 112.605 41.178H112.816V42.616H112.545C111.395 42.616 110.526 42.3147 110.125 41.4708H110.078C109.677 42.2243 108.747 42.616 107.74 42.616H107.516C107.411 42.6285 107.304 42.6181 107.204 42.5856C107.103 42.5531 107.01 42.4992 106.932 42.4277C106.854 42.3562 106.792 42.2687 106.751 42.1712C106.71 42.0737 106.69 41.9684 106.694 41.8626C106.694 41.5957 106.879 41.178 107.516 41.178L107.774 41.2082ZM109.066 36.9458C108.584 36.5153 108.162 36.1493 107.693 35.779C107.977 35.4027 108.286 35.0459 108.618 34.7113C109.098 35.0746 109.547 35.4763 109.962 35.9125C109.705 36.291 109.404 36.6378 109.066 36.9458ZM111.335 36.7994C110.853 36.3689 110.431 36.0029 109.962 35.6326C110.246 35.2563 110.555 34.8995 110.887 34.5649C111.366 34.9272 111.814 35.329 112.226 35.7661C111.97 36.1384 111.671 36.4794 111.335 36.7822V36.7994Z" fill="#ED6D05"/>
<path d="M122.291 37.8371C122.408 38.4968 122.472 39.1649 122.481 39.8348C122.454 40.3743 122.307 40.901 122.05 41.3762C121.62 42.0866 120.996 42.6118 120.328 42.6118C120.029 42.578 119.741 42.4768 119.487 42.3157C119.233 42.1546 119.018 41.9379 118.86 41.6819H118.765C118.51 41.9781 118.195 42.2172 117.841 42.3834C117.488 42.5496 117.103 42.6392 116.712 42.6463C116.573 42.6657 116.433 42.6558 116.298 42.617C116.164 42.5782 116.04 42.5115 115.933 42.4212C115.827 42.3309 115.741 42.2192 115.68 42.0933C115.62 41.9673 115.587 41.8301 115.584 41.6905H115.536C115.212 42.0205 114.82 42.2767 114.388 42.4416C113.955 42.6066 113.492 42.6764 113.03 42.6463H112.832C112.727 42.6587 112.621 42.6483 112.52 42.6158C112.419 42.5833 112.327 42.5295 112.249 42.458C112.171 42.3865 112.109 42.299 112.068 42.2014C112.027 42.1039 112.007 41.9986 112.01 41.8928C112.01 41.6259 112.195 41.2083 112.832 41.2083H113.203C114.27 41.2083 115.119 40.937 115.683 40.162L116.328 39.2751L117.233 38.9695L117.28 39.0254C116.811 39.7487 116.479 40.317 116.479 40.6442C116.478 40.7229 116.493 40.8009 116.523 40.8733C116.554 40.9456 116.6 41.0106 116.658 41.0639C116.716 41.1173 116.784 41.1577 116.859 41.1826C116.933 41.2074 117.012 41.2162 117.091 41.2083C117.464 41.2027 117.827 41.089 118.137 40.8811C118.567 40.5883 118.606 40.2654 118.972 39.0943L119.678 38.7025L119.747 38.7456C119.654 39.1058 119.603 39.4757 119.596 39.8478C119.589 40.0131 119.616 40.1781 119.673 40.3332C119.731 40.4882 119.82 40.6301 119.933 40.7504C120.047 40.8708 120.183 40.9672 120.335 41.034C120.486 41.1008 120.649 41.1367 120.815 41.1394C121.146 41.1394 121.439 40.9715 121.439 40.6357C121.398 40.0208 121.3 39.4111 121.146 38.8145C121.469 38.4469 121.823 38.1084 122.205 37.8027L122.291 37.8371Z" fill="#ED6D05"/>
<path d="M129.558 31.1377C129.547 31.2147 129.54 31.2923 129.537 31.3702C129.537 32.0375 129.968 32.8125 130.488 33.6521C130.268 33.8567 130.029 34.0398 129.774 34.1988C129.83 35.5723 129.864 36.8639 129.864 38.2373C129.85 38.9835 129.719 39.7229 129.477 40.4288C129.264 41.1855 128.811 41.8522 128.185 42.3275C127.313 42.9196 126.29 43.2511 125.236 43.2833C124.248 43.256 123.27 43.0819 122.334 42.7667V42.6418C124.603 42.349 126.39 41.8797 127.6 41.1822C127.539 40.7302 126.954 39.8906 126.269 38.8875C125.52 37.7853 124.672 36.64 123.707 35.2924C122.945 34.2247 122.545 33.5703 122.545 33.2C122.656 32.8089 122.84 32.4422 123.087 32.1193H123.143C123.737 32.8177 124.377 33.4751 125.059 34.0869L124.685 34.7241C125.752 36.343 126.786 37.8068 127.483 38.9736C127.816 39.5729 127.989 40.2473 127.987 40.9325H128.056C128.375 40.7006 128.629 40.3908 128.794 40.0328C128.959 39.6748 129.029 39.2805 128.999 38.8875C128.999 37.7422 128.891 36.3042 128.693 34.3452C128.667 33.8415 128.551 33.101 128.551 32.5929C128.534 32.3065 128.622 32.0238 128.796 31.7964C129.003 31.5339 129.235 31.293 129.49 31.0774L129.558 31.1377Z" fill="#ED6D05"/>
<path d="M132.536 42.8357C132.638 42.0911 132.681 41.3396 132.665 40.5882V39.4903C132.665 37.4323 132.428 34.4401 132.234 32.4983C132.587 32.0709 132.973 31.6722 133.388 31.3057L133.496 31.3402C133.741 33.79 133.802 36.6315 133.802 39.2535C133.808 39.8718 133.779 40.4899 133.715 41.1049C133.681 41.7248 133.367 42.1985 132.682 42.9175L132.536 42.8357Z" fill="#ED6D05"/>
<path d="M138.847 41.4665C137.469 41.4665 136.264 40.8465 136.264 39.3525C136.278 38.6392 136.545 37.9542 137.017 37.4194C137.436 36.9036 138.037 36.569 138.696 36.4851C139.381 36.4851 140.014 36.9458 140.474 37.7552C140.984 38.7046 141.242 39.7689 141.223 40.8465C141.237 41.9005 140.926 42.9332 140.332 43.8043C139.286 45.3198 138.287 45.957 137.318 45.957C136.11 45.9316 134.937 45.548 133.947 44.8548L134.124 44.4975C134.66 44.7564 135.25 44.8861 135.846 44.8763C137.034 44.8763 138.223 44.3037 139.29 43.1542C139.84 42.6545 140.226 42.0001 140.397 41.277C139.89 41.4055 139.369 41.4691 138.847 41.4665ZM138.326 37.9016C137.775 37.9016 137.013 38.4871 137.013 38.9047C137.013 39.6022 138.046 40.093 139.01 40.093C139.456 40.0959 139.901 40.0482 140.337 39.9509C140.018 38.8143 139.338 37.9016 138.326 37.9016Z" fill="#ED6D05"/>
<path d="M150.043 41.5785C148.808 41.5785 147.891 41.1479 147.891 40.2868C147.924 39.825 148.056 39.3757 148.278 38.9694C148.769 37.9705 150 36.9458 152.028 35.8781L151.955 35.017C152.245 34.6907 152.556 34.383 152.885 34.0956H153.014C153.061 35.8393 153.061 37.5916 153.083 39.3353C153.083 40.1232 153.178 40.627 153.514 40.9197C153.882 41.1497 154.316 41.2525 154.749 41.2125H155.029V42.6505H154.771C153.621 42.6505 152.786 42.3577 152.338 41.0876C151.614 41.4044 150.834 41.5714 150.043 41.5785ZM152.123 37.1051C150.03 38.1384 148.937 38.9694 148.937 39.5678C148.937 39.9984 149.643 40.1964 150.439 40.1964C151.026 40.1773 151.606 40.0714 152.162 39.8821L152.123 37.1051ZM150.737 33.1269C150.254 32.6964 149.828 32.3261 149.359 31.9558C149.644 31.5793 149.955 31.2226 150.289 30.8881C150.768 31.2518 151.216 31.655 151.628 32.0936C151.37 32.4701 151.071 32.8167 150.737 33.1269ZM153.001 32.9805C152.519 32.55 152.097 32.1797 151.628 31.8094C151.912 31.4319 152.223 31.0751 152.558 30.7417C153.036 31.1066 153.484 31.5098 153.897 31.9472C153.638 32.3239 153.337 32.6705 153.001 32.9805Z" fill="#ED6D05"/>
<path d="M155.773 41.2082C157.681 41.2082 159.648 40.5667 162.051 39.1717V39.1287C160.872 38.6651 159.626 38.3989 158.361 38.3408C158.086 38.3221 157.81 38.3628 157.552 38.4601C157.295 38.5575 157.061 38.7091 156.867 38.9048L157.009 39.4645L156.656 40.4763H156.54L155.963 38.9952C156.057 37.7467 157.104 36.9717 158.512 36.9717C159.299 36.9717 160.535 37.2386 162.386 37.949C163.03 38.1811 163.709 38.302 164.393 38.3064H165.344L165.383 38.3279L164.759 39.5076C164.054 39.458 163.35 39.6072 162.727 39.9381L160.763 41.1609C159.245 42.1379 157.48 42.6607 155.674 42.6678H155.063C154.958 42.6802 154.851 42.6698 154.75 42.6373C154.65 42.6048 154.557 42.551 154.479 42.4795C154.401 42.408 154.339 42.3204 154.298 42.2229C154.257 42.1254 154.237 42.0201 154.241 41.9143C154.241 41.6474 154.426 41.2298 155.063 41.2298L155.773 41.2082Z" fill="#ED6D05"/>
<path d="M170.253 42.6461H170.124C169.194 42.6461 168.596 42.4652 168.113 42.0046C167.399 41.3071 167.386 40.5106 167.386 38.8573C167.386 36.7046 167.257 34.4873 167.08 32.1021C167.423 31.7267 167.793 31.377 168.187 31.0559L168.268 31.1032C168.454 33.5659 168.454 36.4764 168.454 39.2405V39.882C168.44 40.1532 168.52 40.4208 168.681 40.6396C168.842 40.8585 169.073 41.0152 169.336 41.0832C169.579 41.1647 169.833 41.2068 170.09 41.2081H170.253V42.6461Z" fill="#ED6D05"/>
<path d="M170.515 41.2082C171.419 41.2082 172.362 40.8594 172.538 40.2179L172.878 39.0038L173.688 38.4441L173.757 38.5216C173.622 38.9409 173.535 39.3742 173.498 39.8132C173.484 39.9885 173.512 40.1647 173.579 40.3272C173.646 40.4897 173.752 40.6338 173.886 40.7475C174.309 41.0534 174.824 41.2054 175.345 41.178H175.556V42.616H175.285C174.135 42.616 173.266 42.3146 172.865 41.4708H172.818C172.418 42.2242 171.492 42.616 170.48 42.616H170.256C170.151 42.6284 170.045 42.6181 169.944 42.5856C169.843 42.5531 169.751 42.4992 169.672 42.4277C169.594 42.3562 169.533 42.2687 169.492 42.1712C169.45 42.0736 169.431 41.9684 169.434 41.8626C169.434 41.5956 169.619 41.178 170.256 41.178L170.515 41.2082ZM171.841 47.1152C171.358 46.6846 170.937 46.3144 170.467 45.9441C170.752 45.5666 171.062 45.2098 171.397 44.8764C171.875 45.2413 172.323 45.6444 172.736 46.0819C172.477 46.4586 172.177 46.8052 171.841 47.1152ZM174.11 46.9688C173.627 46.5383 173.205 46.168 172.736 45.7977C173.02 45.4202 173.331 45.0634 173.666 44.73C174.144 45.096 174.591 45.4991 175.005 45.9355C174.747 46.3183 174.447 46.6707 174.11 46.986V46.9688Z" fill="#ED6D05"/>
<path d="M187.588 42.6463H187.295C185.836 42.6463 185.168 42.2157 184.876 41.5914H184.802C184.565 41.904 184.262 42.1606 183.915 42.3429C183.567 42.5252 183.184 42.6287 182.792 42.6463C182.498 42.6845 182.201 42.609 181.961 42.4354C181.721 42.2617 181.556 42.003 181.5 41.712H181.453C181.2 42.0032 180.888 42.2372 180.537 42.3983C180.187 42.5594 179.806 42.644 179.421 42.6463C179.282 42.665 179.142 42.6545 179.008 42.6155C178.874 42.5764 178.75 42.5097 178.644 42.4196C178.537 42.3294 178.451 42.2179 178.391 42.0923C178.33 41.9667 178.297 41.8298 178.293 41.6905H178.245C177.921 42.0205 177.529 42.2767 177.097 42.4416C176.664 42.6065 176.201 42.6763 175.739 42.6463H175.541C175.436 42.6587 175.33 42.6483 175.229 42.6158C175.128 42.5833 175.036 42.5295 174.958 42.4579C174.88 42.3864 174.818 42.2989 174.777 42.2014C174.736 42.1039 174.716 41.9986 174.719 41.8928C174.719 41.6259 174.904 41.2083 175.541 41.2083H175.942C177.01 41.2083 177.832 40.9284 178.422 40.162L179.007 39.3009L179.911 38.9996L179.959 39.0555C179.528 39.7961 179.197 40.3472 179.197 40.6615C179.197 40.7413 179.215 40.8201 179.248 40.8928C179.281 40.9654 179.329 41.0304 179.388 41.0835C179.448 41.1366 179.518 41.1767 179.594 41.2011C179.67 41.2256 179.75 41.2339 179.83 41.2255C180.198 41.2226 180.556 41.1052 180.854 40.8896C181.187 40.6281 181.449 40.2878 181.616 39.8994L181.901 39.2364L182.792 38.8403L182.839 38.8876C182.569 39.4117 182.406 39.9837 182.357 40.571C182.354 40.6582 182.369 40.745 182.401 40.826C182.433 40.9071 182.482 40.9807 182.543 41.0421C182.605 41.1035 182.679 41.1516 182.76 41.1831C182.842 41.2147 182.929 41.2291 183.016 41.2255C183.304 41.228 183.587 41.1424 183.825 40.9801C184.178 40.7164 184.422 40.3316 184.51 39.8994C184.557 39.7186 184.626 39.5076 184.742 39.0125L185.638 38.4355L185.685 38.47C185.519 38.9685 185.419 39.4867 185.388 40.0113C185.388 40.8983 186.202 41.2255 187.317 41.2255H187.575L187.588 42.6463Z" fill="#ED6D05"/>
<path d="M187.82 41.2083C188.296 41.1965 188.762 41.0773 189.185 40.8595C189.538 40.6701 189.749 40.3085 189.749 39.512C189.749 37.2516 189.62 35.2065 189.444 32.6233L189.409 32.0636L190.455 31.0518H190.516C190.735 33.6953 190.748 36.4465 190.748 39.8865C190.748 40.4032 191.123 41.1782 192.47 41.1782H192.625V42.6162H192.376C191.282 42.6162 190.46 42.2588 190.085 41.4236H190.038C189.802 41.8082 189.467 42.1221 189.067 42.332C188.668 42.5419 188.219 42.6401 187.769 42.6162H187.571C187.466 42.6286 187.359 42.6182 187.258 42.5857C187.158 42.5532 187.065 42.4994 186.987 42.4279C186.909 42.3563 186.847 42.2689 186.806 42.1713C186.765 42.0738 186.745 41.9685 186.748 41.8627C186.748 41.5958 186.934 41.1782 187.571 41.1782L187.82 41.2083Z" fill="#ED6D05"/>
<path d="M192.897 41.2082C193.355 41.2179 193.808 41.1128 194.215 40.9025C194.424 40.7813 194.595 40.6025 194.705 40.3872C194.816 40.1719 194.863 39.9293 194.839 39.6884C194.813 37.893 194.684 35.9254 194.499 33.8588C194.452 33.3378 194.378 32.8686 194.378 32.4509C194.397 32.1642 194.523 31.895 194.732 31.6975C194.929 31.4745 195.145 31.2686 195.377 31.0818L195.463 31.1378C195.438 31.8654 195.804 32.7437 196.415 33.721C196.18 33.9271 195.933 34.1183 195.674 34.2937C195.722 35.5853 195.825 36.9458 195.825 38.1944C195.883 39.1577 195.723 40.1217 195.356 41.0144C195.175 41.5638 194.794 42.0249 194.288 42.3061C193.827 42.5232 193.325 42.6377 192.816 42.6419H192.639C192.534 42.6543 192.427 42.6439 192.327 42.6114C192.226 42.5789 192.133 42.5251 192.055 42.4536C191.977 42.382 191.916 42.2946 191.874 42.197C191.833 42.0995 191.814 41.9942 191.817 41.8884C191.821 41.7876 191.845 41.6886 191.89 41.5981C191.935 41.5075 191.998 41.4273 192.075 41.3627C192.153 41.2982 192.243 41.2506 192.34 41.2233C192.437 41.1959 192.539 41.1893 192.639 41.2039L192.897 41.2082Z" fill="#ED6D05"/>
<path d="M206.629 37.0492C207.295 37.5527 207.911 38.1178 208.471 38.7369C209.061 39.3526 209.41 39.9037 209.905 40.4978C210.127 40.7294 210.395 40.9122 210.691 41.0345C210.988 41.1568 211.307 41.216 211.627 41.2082H211.795V42.6462H211.563C211.17 42.6617 210.781 42.573 210.434 42.3893C210.087 42.2055 209.794 41.9332 209.587 41.6L209.518 41.6258C209.423 42.4869 208.777 43.3222 208.011 43.3222C206.392 43.3222 205.062 41.7679 205.027 39.8348C204.089 40.5323 203.654 41.1264 203.654 41.5914C203.729 42.4307 203.922 43.2552 204.226 44.0412C204.863 45.9269 205.475 47.7826 205.475 48.3466C205.455 48.9054 205.371 49.4601 205.225 49.9999H205.087C204.745 48.651 204.314 47.3263 203.796 46.0346C203.24 44.5837 202.797 43.2447 202.797 42.4223C202.805 41.9585 202.876 41.498 203.008 41.0532C203.194 40.3023 203.608 39.6272 204.192 39.1201C205.053 38.3795 205.914 37.6821 206.521 37.0405L206.629 37.0492ZM205.793 39.4301C205.797 39.7808 205.879 40.1262 206.033 40.4413C206.188 40.7563 206.41 41.033 206.685 41.2513C207.082 41.608 207.597 41.8044 208.131 41.8023C208.562 41.8023 208.893 41.6258 208.893 41.3718C208.847 41.0457 208.696 40.7435 208.463 40.5107C207.891 39.7822 207.218 39.1386 206.465 38.5991C206.297 38.7799 205.793 39.1072 205.793 39.4301Z" fill="#ED6D05"/>
<path d="M212.067 41.2082C212.971 41.2082 213.914 40.8594 214.09 40.2179L214.43 39.0038L215.24 38.4441L215.313 38.5216C215.175 38.9404 215.087 39.3739 215.05 39.8132C215.036 39.9885 215.064 40.1647 215.131 40.3272C215.198 40.4897 215.304 40.6338 215.438 40.7475C215.861 41.0534 216.376 41.2054 216.897 41.178H217.108V42.616H216.837C215.687 42.616 214.818 42.3146 214.417 41.4708H214.379C213.978 42.2242 213.053 42.616 212.041 42.616H211.795C211.69 42.6284 211.584 42.6181 211.483 42.5856C211.382 42.5531 211.29 42.4992 211.212 42.4277C211.133 42.3562 211.072 42.2687 211.031 42.1712C210.989 42.0736 210.97 41.9684 210.973 41.8626C210.977 41.7617 211.002 41.6628 211.046 41.5722C211.091 41.4816 211.154 41.4015 211.231 41.3369C211.309 41.2723 211.399 41.2248 211.496 41.1974C211.594 41.17 211.695 41.1634 211.795 41.178L212.067 41.2082ZM213.393 47.1152C212.915 46.6846 212.489 46.3144 212.019 45.9441C212.305 45.5676 212.615 45.2109 212.949 44.8764C213.428 45.2401 213.876 45.6433 214.288 46.0819C214.03 46.4596 213.73 46.8063 213.393 47.1152ZM215.662 46.9688C215.179 46.5383 214.757 46.168 214.288 45.7977C214.58 45.4254 214.898 45.0743 215.24 44.7472C215.718 45.1121 216.166 45.5153 216.579 45.9527C216.316 46.3301 216.011 46.6767 215.67 46.986L215.662 46.9688Z" fill="#ED6D05"/>
<path d="M217.344 41.2083C217.818 41.1965 218.283 41.0772 218.705 40.8595C219.058 40.6701 219.269 40.3085 219.269 39.512C219.269 37.2516 219.14 35.2065 218.963 32.6233L218.929 32.0636L219.975 31.0518H220.035C220.259 33.6953 220.268 36.4465 220.268 39.8865C220.268 40.4032 220.647 41.1782 221.99 41.1782H222.145V42.6162H221.895C220.806 42.6162 219.979 42.2588 219.605 41.4236H219.557C219.322 41.8085 218.987 42.1226 218.587 42.3326C218.188 42.5425 217.739 42.6405 217.288 42.6162H217.09C216.985 42.6286 216.879 42.6182 216.778 42.5857C216.677 42.5532 216.584 42.4994 216.506 42.4279C216.428 42.3563 216.367 42.2689 216.326 42.1713C216.284 42.0738 216.265 41.9685 216.268 41.8627C216.272 41.7619 216.297 41.6629 216.341 41.5724C216.386 41.4818 216.449 41.4016 216.526 41.337C216.604 41.2725 216.694 41.2249 216.791 41.1976C216.889 41.1702 216.99 41.1636 217.09 41.1782L217.344 41.2083Z" fill="#ED6D05"/>
<path d="M222.874 41.2082C224.777 41.2082 226.749 40.5667 229.151 39.1717V39.1287C227.973 38.6643 226.727 38.3981 225.462 38.3408C225.187 38.3225 224.912 38.3633 224.655 38.4607C224.398 38.558 224.165 38.7095 223.972 38.9048L224.11 39.4645L223.761 40.4763H223.64L223.068 38.9952C223.158 37.7467 224.204 36.9717 225.617 36.9717C226.405 36.9717 227.636 37.2386 229.491 37.949C230.137 38.1808 230.817 38.3016 231.502 38.3064H232.454L232.488 38.3279L231.868 39.5076C231.162 39.4577 230.457 39.6069 229.832 39.9381L227.873 41.1609C226.355 42.1379 224.589 42.6607 222.784 42.6678H222.172C222.067 42.6802 221.961 42.6698 221.86 42.6373C221.759 42.6048 221.667 42.551 221.588 42.4795C221.51 42.408 221.449 42.3204 221.408 42.2229C221.366 42.1254 221.347 42.0201 221.35 41.9143C221.35 41.6474 221.535 41.2298 222.172 41.2298L222.874 41.2082ZM226.46 44.321C226.965 44.6781 227.436 45.0801 227.868 45.5223C227.605 45.9394 227.277 46.3115 226.895 46.6244C226.435 46.1939 225.978 45.8495 225.509 45.4663C225.823 45.0616 226.142 44.6698 226.46 44.321Z" fill="#ED6D05"/>
</g>
<path d="M331.663 36.216C330.379 36.216 329.299 36.144 328.423 36C327.547 35.868 326.839 35.652 326.299 35.352C325.759 35.04 325.369 34.638 325.129 34.146C324.901 33.642 324.787 33.03 324.787 32.31C324.787 31.35 325.033 30.276 325.525 29.088L326.911 29.502C326.683 29.982 326.509 30.426 326.389 30.834C326.269 31.23 326.209 31.602 326.209 31.95C326.209 32.658 326.539 33.174 327.199 33.498C327.871 33.81 328.963 33.966 330.475 33.966H332.995C333.823 33.966 334.507 33.948 335.047 33.912C335.599 33.864 336.037 33.786 336.361 33.678C336.685 33.57 336.913 33.426 337.045 33.246C337.189 33.066 337.261 32.838 337.261 32.562C337.261 32.37 337.249 32.13 337.225 31.842C337.201 31.542 337.141 31.146 337.045 30.654L336.757 29.088L338.323 28.836L338.575 30.402C338.635 30.858 338.683 31.272 338.719 31.644C338.755 32.004 338.773 32.31 338.773 32.562C338.773 33.27 338.659 33.858 338.431 34.326C338.203 34.794 337.813 35.166 337.261 35.442C336.721 35.718 335.995 35.916 335.083 36.036C334.171 36.156 333.031 36.216 331.663 36.216ZM332.815 29.412C332.539 29.412 332.317 29.328 332.149 29.16C331.993 28.992 331.915 28.734 331.915 28.386C331.915 28.026 331.993 27.768 332.149 27.612C332.317 27.444 332.539 27.36 332.815 27.36H333.085C333.361 27.36 333.583 27.444 333.751 27.612C333.919 27.768 334.003 28.026 334.003 28.386C334.003 28.734 333.919 28.992 333.751 29.16C333.583 29.328 333.361 29.412 333.085 29.412H332.815ZM330.277 29.412C330.001 29.412 329.779 29.328 329.611 29.16C329.455 28.992 329.377 28.734 329.377 28.386C329.377 28.026 329.455 27.768 329.611 27.612C329.779 27.444 330.001 27.36 330.277 27.36H330.547C330.823 27.36 331.045 27.444 331.213 27.612C331.381 27.768 331.465 28.026 331.465 28.386C331.465 28.734 331.381 28.992 331.213 29.16C331.045 29.328 330.823 29.412 330.547 29.412H330.277ZM344.036 36C342.86 36 342.014 35.76 341.498 35.28C340.982 34.788 340.724 33.972 340.724 32.832V22.68H342.398V32.67C342.398 33.174 342.512 33.516 342.74 33.696C342.98 33.876 343.37 33.966 343.91 33.966H344.504V35.568L344.054 36H344.036ZM344.078 34.398L344.51 33.966H346.886C347.39 33.966 347.768 33.888 348.02 33.732C348.284 33.564 348.416 33.3 348.416 32.94C348.416 32.712 348.35 32.508 348.218 32.328C348.098 32.148 347.864 31.926 347.516 31.662L344.69 29.484V25.704L352.826 22.482V24.426L345.428 27.36V27.468L347.498 29.124C347.942 29.46 348.314 29.772 348.614 30.06C348.926 30.348 349.172 30.636 349.352 30.924C349.544 31.212 349.682 31.506 349.766 31.806C349.85 32.106 349.892 32.424 349.892 32.76C349.892 33.828 349.616 34.638 349.064 35.19C348.524 35.73 347.696 36 346.58 36H344.078V34.398ZM349.758 38.286H350.532C351.12 38.286 351.612 38.208 352.008 38.052C352.404 37.896 352.722 37.674 352.962 37.386C353.214 37.11 353.394 36.774 353.502 36.378C353.61 35.982 353.664 35.538 353.664 35.046C353.664 34.41 353.598 33.726 353.466 32.994L353.178 31.248L359.082 30.528V32.544C359.082 33.648 359.616 34.2 360.684 34.2C361.224 34.2 361.62 34.08 361.872 33.84C362.136 33.588 362.268 33.156 362.268 32.544V31.248H363.834V32.544C363.834 33.132 363.918 33.552 364.086 33.804C364.266 34.044 364.548 34.164 364.932 34.164H365.22C365.904 34.164 366.246 33.774 366.246 32.994C366.246 32.814 366.228 32.586 366.192 32.31C366.168 32.022 366.126 31.698 366.066 31.338L365.922 30.384L367.47 30.15L367.596 31.086C367.704 31.806 367.758 32.442 367.758 32.994C367.758 34.05 367.53 34.854 367.074 35.406C366.63 35.946 365.964 36.216 365.076 36.216C364.308 36.216 363.708 36.042 363.276 35.694C362.856 35.346 362.58 34.818 362.448 34.11H362.358C362.142 35.514 361.416 36.216 360.18 36.216C359.28 36.216 358.608 35.94 358.164 35.388C357.732 34.836 357.516 33.978 357.516 32.814V32.706L355.05 32.994C355.098 33.378 355.134 33.744 355.158 34.092C355.182 34.44 355.194 34.752 355.194 35.028C355.194 35.772 355.104 36.462 354.924 37.098C354.756 37.746 354.48 38.31 354.096 38.79C353.724 39.27 353.244 39.642 352.656 39.906C352.068 40.182 351.36 40.32 350.532 40.32H349.758V38.286ZM364.194 29.412C363.918 29.412 363.696 29.328 363.528 29.16C363.36 28.992 363.276 28.734 363.276 28.386C363.276 28.026 363.36 27.768 363.528 27.612C363.696 27.444 363.918 27.36 364.194 27.36H364.446C364.722 27.36 364.944 27.444 365.112 27.612C365.28 27.768 365.364 28.026 365.364 28.386C365.364 28.734 365.28 28.992 365.112 29.16C364.944 29.328 364.722 29.412 364.446 29.412H364.194ZM361.638 29.412C361.362 29.412 361.14 29.328 360.972 29.16C360.816 28.992 360.738 28.734 360.738 28.386C360.738 28.026 360.816 27.768 360.972 27.612C361.14 27.444 361.362 27.36 361.638 27.36H361.908C362.184 27.36 362.406 27.444 362.574 27.612C362.742 27.768 362.826 28.026 362.826 28.386C362.826 28.734 362.742 28.992 362.574 29.16C362.406 29.328 362.184 29.412 361.908 29.412H361.638ZM362.916 27.036C362.652 27.036 362.436 26.958 362.268 26.802C362.1 26.634 362.016 26.376 362.016 26.028C362.016 25.68 362.1 25.428 362.268 25.272C362.436 25.116 362.652 25.038 362.916 25.038H363.186C363.45 25.038 363.66 25.116 363.816 25.272C363.984 25.428 364.068 25.68 364.068 26.028C364.068 26.376 363.984 26.634 363.816 26.802C363.66 26.958 363.45 27.036 363.186 27.036H362.916ZM379.15 40.32C377.326 40.32 375.904 39.906 374.884 39.078C373.876 38.262 373.372 37.116 373.372 35.64C373.372 35.1 373.444 34.506 373.588 33.858C373.744 33.21 373.954 32.574 374.218 31.95L375.586 32.364C375.358 32.856 375.172 33.36 375.028 33.876C374.884 34.392 374.812 34.86 374.812 35.28C374.812 36.192 375.142 36.894 375.802 37.386C376.462 37.89 377.374 38.142 378.538 38.142H379.78C381.16 38.142 382.234 37.896 383.002 37.404C383.782 36.924 384.172 36.252 384.172 35.388L381.346 34.812C380.278 34.596 379.48 34.248 378.952 33.768C378.436 33.288 378.178 32.64 378.178 31.824C378.178 31.236 378.286 30.654 378.502 30.078C378.73 29.49 379.036 28.968 379.42 28.512C379.816 28.044 380.272 27.666 380.788 27.378C381.304 27.09 381.85 26.946 382.426 26.946C383.11 26.946 383.704 27.114 384.208 27.45C384.712 27.774 385.126 28.23 385.45 28.818L384.01 30.15C383.782 29.79 383.512 29.508 383.2 29.304C382.9 29.088 382.534 28.98 382.102 28.98C381.778 28.98 381.466 29.046 381.166 29.178C380.866 29.31 380.602 29.49 380.374 29.718C380.146 29.934 379.966 30.192 379.834 30.492C379.702 30.78 379.636 31.086 379.636 31.41C379.636 31.758 379.792 32.046 380.104 32.274C380.416 32.49 380.902 32.664 381.562 32.796L383.92 33.282C384.532 33.414 384.97 33.648 385.234 33.984C385.498 34.308 385.63 34.776 385.63 35.388C385.63 36.168 385.48 36.864 385.18 37.476C384.892 38.088 384.466 38.604 383.902 39.024C383.35 39.444 382.672 39.762 381.868 39.978C381.076 40.206 380.17 40.32 379.15 40.32ZM388.69 36C388.078 36 387.598 35.838 387.25 35.514C386.902 35.19 386.728 34.686 386.728 34.002V32.688H388.33V33.966H390.778C391.414 33.966 391.852 33.912 392.092 33.804C392.332 33.696 392.452 33.492 392.452 33.192C392.452 33.06 392.422 32.898 392.362 32.706C392.302 32.502 392.218 32.244 392.11 31.932L390.436 27.27L392.146 26.658L393.982 31.752C394.138 32.196 394.282 32.562 394.414 32.85C394.558 33.126 394.702 33.348 394.846 33.516C394.99 33.684 395.14 33.804 395.296 33.876C395.464 33.936 395.656 33.966 395.872 33.966H396.357V35.568L395.908 36C395.512 36 395.164 35.97 394.864 35.91C394.564 35.838 394.294 35.73 394.054 35.586C393.826 35.43 393.616 35.226 393.424 34.974C393.244 34.722 393.064 34.404 392.884 34.02L392.794 34.038C392.686 34.746 392.446 35.25 392.074 35.55C391.702 35.85 391.132 36 390.364 36H388.69ZM395.933 34.398L396.365 33.966H397.247C397.835 33.966 398.375 33.954 398.867 33.93C399.359 33.906 399.839 33.852 400.307 33.768C400.775 33.672 401.255 33.54 401.747 33.372C402.239 33.192 402.785 32.958 403.385 32.67L404.627 32.076V31.986L401.855 31.392L398.561 30.582V32.04H396.959V30.654C396.959 30.006 397.115 29.526 397.427 29.214C397.751 28.89 398.201 28.728 398.777 28.728C398.933 28.728 399.113 28.746 399.317 28.782C399.533 28.818 399.875 28.896 400.343 29.016L404.339 30.042C405.491 30.342 406.481 30.492 407.309 30.492H407.633V32.526H406.229L404.105 33.858C403.337 34.338 402.653 34.722 402.053 35.01C401.453 35.286 400.889 35.502 400.361 35.658C399.833 35.802 399.317 35.898 398.813 35.946C398.321 35.982 397.799 36 397.247 36H395.933V34.398ZM409.244 22.68H410.918V36H409.244V22.68ZM408.2 39.474H408.902L408.92 39.384C408.692 39.132 408.578 38.82 408.578 38.448C408.578 37.968 408.746 37.566 409.082 37.242C409.418 36.93 409.844 36.774 410.36 36.774C410.672 36.774 410.978 36.84 411.278 36.972C411.578 37.116 411.824 37.308 412.016 37.548L411.26 38.52C410.984 38.244 410.684 38.106 410.36 38.106C410.144 38.106 409.97 38.154 409.838 38.25C409.706 38.358 409.64 38.49 409.64 38.646C409.64 39.126 410.06 39.366 410.9 39.366H412.142V40.716H408.2V39.474ZM422.884 40.32C421.06 40.32 419.638 39.906 418.618 39.078C417.61 38.262 417.106 37.116 417.106 35.64C417.106 35.1 417.178 34.506 417.322 33.858C417.478 33.21 417.688 32.574 417.952 31.95L419.32 32.364C419.092 32.856 418.906 33.36 418.762 33.876C418.618 34.392 418.546 34.86 418.546 35.28C418.546 36.192 418.876 36.894 419.536 37.386C420.196 37.89 421.108 38.142 422.272 38.142H423.514C424.714 38.142 425.68 37.95 426.412 37.566C427.156 37.194 427.624 36.666 427.816 35.982L423.766 35.406V33.336L426.016 33.678C426.64 33.774 427.21 33.846 427.726 33.894C428.254 33.942 428.71 33.966 429.094 33.966V34.848L429.364 35.208C429.364 36.012 429.214 36.732 428.914 37.368C428.626 38.004 428.2 38.538 427.636 38.97C427.084 39.414 426.406 39.75 425.602 39.978C424.81 40.206 423.904 40.32 422.884 40.32ZM424.018 44.046C423.742 44.046 423.52 43.962 423.352 43.794C423.196 43.626 423.118 43.368 423.118 43.02C423.118 42.66 423.196 42.396 423.352 42.228C423.52 42.072 423.742 41.994 424.018 41.994H424.288C424.564 41.994 424.786 42.072 424.954 42.228C425.122 42.396 425.206 42.66 425.206 43.02C425.206 43.368 425.122 43.626 424.954 43.794C424.786 43.962 424.564 44.046 424.288 44.046H424.018ZM421.48 44.046C421.204 44.046 420.982 43.962 420.814 43.794C420.658 43.626 420.58 43.368 420.58 43.02C420.58 42.66 420.658 42.396 420.814 42.228C420.982 42.072 421.204 41.994 421.48 41.994H421.75C422.026 41.994 422.248 42.072 422.416 42.228C422.584 42.396 422.668 42.66 422.668 43.02C422.668 43.368 422.584 43.626 422.416 43.794C422.248 43.962 422.026 44.046 421.75 44.046H421.48ZM428.664 34.398L429.096 33.966H431.418L431.454 33.876C430.458 33.024 429.96 32.04 429.96 30.924C429.96 30.456 430.032 30.012 430.176 29.592C430.332 29.172 430.542 28.8 430.806 28.476C431.082 28.152 431.4 27.888 431.76 27.684C432.12 27.468 432.51 27.342 432.93 27.306L433.506 26.208L436.296 27.738C436.956 28.098 437.52 28.482 437.988 28.89C438.456 29.286 438.84 29.724 439.14 30.204C439.44 30.684 439.662 31.212 439.806 31.788C439.95 32.352 440.022 32.988 440.022 33.696V34.056L438.708 36H436.71C436.074 36 435.462 35.934 434.874 35.802C434.298 35.658 433.746 35.43 433.218 35.118C432.702 35.43 432.15 35.658 431.562 35.802C430.974 35.934 430.368 36 429.744 36H428.664V34.398ZM433.218 33.552C433.794 33.216 434.238 32.826 434.55 32.382C434.874 31.938 435.036 31.464 435.036 30.96C435.036 30.348 434.88 29.868 434.568 29.52C434.268 29.16 433.854 28.98 433.326 28.98H433.128C432.6 28.98 432.18 29.16 431.868 29.52C431.556 29.868 431.4 30.348 431.4 30.96C431.4 31.464 431.556 31.938 431.868 32.382C432.192 32.826 432.642 33.216 433.218 33.552ZM436.332 29.898C436.428 30.246 436.476 30.588 436.476 30.924C436.476 32.04 435.978 33.024 434.982 33.876L435.018 33.966H438.528V33.804C438.528 32.868 438.354 32.094 438.006 31.482C437.67 30.87 437.124 30.33 436.368 29.862L436.332 29.898ZM450.838 38.898C449.158 38.898 447.862 38.484 446.95 37.656C446.05 36.84 445.6 35.694 445.6 34.218C445.6 33.666 445.672 33.072 445.816 32.436C445.972 31.788 446.182 31.152 446.446 30.528L447.814 30.942C447.586 31.434 447.4 31.938 447.256 32.454C447.112 32.97 447.04 33.438 447.04 33.858C447.04 34.758 447.322 35.46 447.886 35.964C448.45 36.468 449.23 36.72 450.226 36.72H451.468C452.632 36.72 453.484 36.48 454.024 36C454.576 35.508 454.852 34.734 454.852 33.678C454.852 33.342 454.822 32.958 454.762 32.526C454.702 32.082 454.612 31.572 454.492 30.996L454.15 29.412L455.716 29.106L456.004 30.672C456.124 31.308 456.214 31.872 456.274 32.364C456.334 32.856 456.364 33.294 456.364 33.678C456.364 35.466 455.92 36.78 455.032 37.62C454.144 38.472 452.746 38.898 450.838 38.898ZM450.91 29.106C450.634 29.106 450.412 29.022 450.244 28.854C450.088 28.686 450.01 28.428 450.01 28.08C450.01 27.72 450.088 27.462 450.244 27.306C450.412 27.138 450.634 27.054 450.91 27.054H451.18C451.456 27.054 451.678 27.138 451.846 27.306C452.014 27.462 452.098 27.72 452.098 28.08C452.098 28.428 452.014 28.686 451.846 28.854C451.678 29.022 451.456 29.106 451.18 29.106H450.91ZM461.564 36C460.388 36 459.542 35.76 459.026 35.28C458.51 34.788 458.252 33.972 458.252 32.832V22.68H459.926V32.67C459.926 33.174 460.04 33.516 460.268 33.696C460.508 33.876 460.898 33.966 461.438 33.966H462.032V35.568L461.582 36H461.564ZM461.605 34.398L462.037 33.966C462.409 33.966 462.703 33.954 462.919 33.93C463.147 33.906 463.345 33.852 463.513 33.768C463.477 33.576 463.459 33.366 463.459 33.138C463.459 32.466 463.669 31.848 464.089 31.284C464.521 30.72 465.163 30.168 466.015 29.628L467.005 29.016H468.823L470.173 32.634C470.269 32.898 470.365 33.12 470.461 33.3C470.557 33.468 470.659 33.6 470.767 33.696C470.887 33.792 471.019 33.864 471.163 33.912C471.307 33.948 471.481 33.966 471.685 33.966H472.117V35.568L471.685 36C471.025 36 470.503 35.904 470.119 35.712C469.735 35.508 469.399 35.16 469.111 34.668L469.003 34.686V36H466.789C465.985 36 465.325 35.868 464.809 35.604C464.305 35.328 463.939 34.938 463.711 34.434H463.603C463.435 34.974 463.195 35.37 462.883 35.622C462.571 35.874 462.145 36 461.605 36V34.398ZM464.845 32.94C464.845 33.3 464.989 33.564 465.277 33.732C465.565 33.888 465.979 33.966 466.519 33.966H468.769C468.721 33.87 468.679 33.768 468.643 33.66C468.607 33.552 468.565 33.438 468.517 33.318L467.563 30.762L466.483 31.302C466.003 31.542 465.607 31.8 465.295 32.076C464.995 32.34 464.845 32.628 464.845 32.94ZM474.096 24.62L476.184 23.648V23.576C475.944 23.42 475.752 23.228 475.608 23C475.476 22.76 475.41 22.502 475.41 22.226C475.41 21.734 475.566 21.326 475.878 21.002C476.19 20.678 476.598 20.516 477.102 20.516C477.558 20.516 477.942 20.678 478.254 21.002C478.566 21.314 478.722 21.716 478.722 22.208C478.722 23.18 478.152 23.936 477.012 24.476L474.564 25.628L474.096 24.62ZM476.436 22.172C476.436 22.448 476.64 22.688 477.048 22.892L477.336 23.036C477.468 22.94 477.564 22.838 477.624 22.73C477.684 22.622 477.714 22.484 477.714 22.316C477.714 22.112 477.648 21.944 477.516 21.812C477.384 21.68 477.216 21.614 477.012 21.614C476.844 21.614 476.706 21.668 476.598 21.776C476.49 21.872 476.436 22.004 476.436 22.172ZM471.677 34.398L472.109 33.966H474.017V33.876C473.669 33.564 473.381 33.168 473.153 32.688C472.937 32.208 472.829 31.686 472.829 31.122C472.829 30.57 472.925 30.054 473.117 29.574C473.309 29.094 473.567 28.686 473.891 28.35C474.227 28.002 474.617 27.732 475.061 27.54C475.517 27.336 476.009 27.234 476.537 27.234C477.329 27.234 478.001 27.402 478.553 27.738C479.117 28.062 479.579 28.518 479.939 29.106L478.607 30.438C478.319 30.03 477.995 29.736 477.635 29.556C477.287 29.364 476.879 29.268 476.411 29.268C475.739 29.268 475.217 29.436 474.845 29.772C474.485 30.096 474.305 30.546 474.305 31.122C474.305 31.77 474.569 32.298 475.097 32.706C475.637 33.102 476.339 33.3 477.203 33.3C477.791 33.3 478.385 33.216 478.985 33.048L480.569 32.634L481.055 34.488L478.571 35.19C478.019 35.358 477.497 35.496 477.005 35.604C476.525 35.7 476.021 35.778 475.493 35.838C474.977 35.898 474.413 35.94 473.801 35.964C473.189 35.988 472.481 36 471.677 36V34.398ZM492.142 36V33.552H486.31V31.806L491.404 23.436H494.068V31.95H495.778V33.552H494.068V36H492.142ZM488.038 31.95H492.142V25.29H492.016L488.038 31.95ZM501.969 22.68H503.643V36H501.969V22.68ZM503.813 38.286H504.497C505.109 38.286 505.619 38.208 506.027 38.052C506.435 37.896 506.765 37.674 507.017 37.386C507.269 37.11 507.449 36.774 507.557 36.378C507.665 35.982 507.719 35.538 507.719 35.046C507.719 34.722 507.701 34.386 507.665 34.038C507.629 33.69 507.581 33.342 507.521 32.994L507.143 30.816L508.691 30.528L508.907 31.842L511.985 31.338V29.808H513.551V32.67C513.551 33.174 513.665 33.516 513.893 33.696C514.133 33.876 514.523 33.966 515.063 33.966H515.657V35.568L515.207 36H515.117C514.073 36 513.305 35.796 512.813 35.388C512.333 34.968 512.063 34.278 512.003 33.318L509.177 33.786C509.201 34.014 509.219 34.23 509.231 34.434C509.243 34.638 509.249 34.836 509.249 35.028C509.249 35.772 509.159 36.462 508.979 37.098C508.811 37.746 508.535 38.31 508.151 38.79C507.767 39.27 507.275 39.642 506.675 39.906C506.075 40.182 505.355 40.32 504.515 40.32H503.813V38.286ZM513.893 39.726C513.617 39.726 513.395 39.642 513.227 39.474C513.071 39.306 512.993 39.048 512.993 38.7C512.993 38.34 513.071 38.076 513.227 37.908C513.395 37.752 513.617 37.674 513.893 37.674H514.163C514.439 37.674 514.661 37.752 514.829 37.908C514.997 38.076 515.081 38.34 515.081 38.7C515.081 39.048 514.997 39.306 514.829 39.474C514.661 39.642 514.439 39.726 514.163 39.726H513.893ZM511.355 39.726C511.079 39.726 510.857 39.642 510.689 39.474C510.533 39.306 510.455 39.048 510.455 38.7C510.455 38.34 510.533 38.076 510.689 37.908C510.857 37.752 511.079 37.674 511.355 37.674H511.625C511.901 37.674 512.123 37.752 512.291 37.908C512.459 38.076 512.543 38.34 512.543 38.7C512.543 39.048 512.459 39.306 512.291 39.474C512.123 39.642 511.901 39.726 511.625 39.726H511.355ZM507.503 28.692C507.227 28.692 507.005 28.608 506.837 28.44C506.681 28.272 506.603 28.014 506.603 27.666C506.603 27.306 506.681 27.048 506.837 26.892C507.005 26.724 507.227 26.64 507.503 26.64H507.773C508.049 26.64 508.271 26.724 508.439 26.892C508.607 27.048 508.691 27.306 508.691 27.666C508.691 28.014 508.607 28.272 508.439 28.44C508.271 28.608 508.049 28.692 507.773 28.692H507.503ZM515.218 34.398L515.65 33.966H519.088C520 33.966 520.672 33.816 521.104 33.516C521.548 33.216 521.77 32.676 521.77 31.896V31.212H521.68C521.5 31.656 521.212 31.992 520.816 32.22C520.432 32.448 519.958 32.562 519.394 32.562C518.422 32.562 517.666 32.31 517.126 31.806C516.598 31.302 516.334 30.6 516.334 29.7C516.334 29.136 516.418 28.608 516.586 28.116C516.766 27.612 517.006 27.18 517.306 26.82C517.618 26.448 517.984 26.16 518.404 25.956C518.824 25.74 519.286 25.632 519.79 25.632C520.882 25.632 521.734 26.1 522.346 27.036C522.97 27.972 523.282 29.268 523.282 30.924C523.282 31.908 523.204 32.73 523.048 33.39C522.892 34.038 522.64 34.554 522.292 34.938C521.956 35.322 521.524 35.598 520.996 35.766C520.468 35.922 519.832 36 519.088 36H515.218V34.398ZM519.826 30.654C520.33 30.654 520.732 30.618 521.032 30.546C521.332 30.474 521.572 30.366 521.752 30.222C521.704 29.442 521.488 28.824 521.104 28.368C520.732 27.9 520.24 27.666 519.628 27.666C519.076 27.666 518.638 27.834 518.314 28.17C517.99 28.494 517.828 28.92 517.828 29.448C517.828 29.868 517.966 30.174 518.242 30.366C518.518 30.558 518.926 30.654 519.466 30.654H519.826ZM519.646 23.796C519.37 23.796 519.148 23.712 518.98 23.544C518.824 23.376 518.746 23.118 518.746 22.77C518.746 22.41 518.824 22.152 518.98 21.996C519.148 21.828 519.37 21.744 519.646 21.744H519.916C520.192 21.744 520.414 21.828 520.582 21.996C520.75 22.152 520.834 22.41 520.834 22.77C520.834 23.118 520.75 23.376 520.582 23.544C520.414 23.712 520.192 23.796 519.916 23.796H519.646Z" fill="#FEFEFE"/>
<defs>
<linearGradient id="paint0_linear_288_3480" x1="263.062" y1="-15.0379" x2="286.305" y2="40.1905" gradientUnits="userSpaceOnUse">
<stop stop-color="#F09005"/>
<stop offset="0.39" stop-color="#EE8F06"/>
<stop offset="0.53" stop-color="#E78C0A"/>
<stop offset="0.64" stop-color="#DC8611"/>
<stop offset="0.72" stop-color="#CB7D1C"/>
<stop offset="0.79" stop-color="#B57329"/>
<stop offset="0.85" stop-color="#996539"/>
<stop offset="0.9" stop-color="#79554D"/>
<stop offset="0.95" stop-color="#554363"/>
<stop offset="1" stop-color="#2C2F7B"/>
</linearGradient>
<linearGradient id="paint1_linear_288_3480" x1="294.661" y1="19.1015" x2="298.575" y2="28.3963" gradientUnits="userSpaceOnUse">
<stop stop-color="#F09005"/>
<stop offset="0.49" stop-color="#F08E06"/>
<stop offset="0.67" stop-color="#EF8708"/>
<stop offset="0.8" stop-color="#ED7C0D"/>
<stop offset="0.9" stop-color="#EB6B13"/>
<stop offset="0.98" stop-color="#E8551B"/>
<stop offset="1" stop-color="#E7511D"/>
</linearGradient>
<linearGradient id="paint2_linear_288_3480" x1="269.711" y1="-17.8736" x2="292.966" y2="37.3836" gradientUnits="userSpaceOnUse">
<stop stop-color="#F09005"/>
<stop offset="0.49" stop-color="#F08E06"/>
<stop offset="0.67" stop-color="#EF8708"/>
<stop offset="0.8" stop-color="#ED7C0D"/>
<stop offset="0.9" stop-color="#EB6B13"/>
<stop offset="0.98" stop-color="#E8551B"/>
<stop offset="1" stop-color="#E7511D"/>
</linearGradient>
<linearGradient id="paint3_linear_288_3480" x1="259.488" y1="-13.5395" x2="282.736" y2="41.6961" gradientUnits="userSpaceOnUse">
<stop stop-color="#F09005"/>
<stop offset="0.49" stop-color="#F08E06"/>
<stop offset="0.67" stop-color="#EF8708"/>
<stop offset="0.8" stop-color="#ED7C0D"/>
<stop offset="0.9" stop-color="#EB6B13"/>
<stop offset="0.98" stop-color="#E8551B"/>
<stop offset="1" stop-color="#E7511D"/>
</linearGradient>
<linearGradient id="paint4_linear_288_3480" x1="252.338" y1="-10.8983" x2="275.586" y2="44.3374" gradientUnits="userSpaceOnUse">
<stop stop-color="#F09005"/>
<stop offset="0.49" stop-color="#F08E06"/>
<stop offset="0.67" stop-color="#EF8708"/>
<stop offset="0.8" stop-color="#ED7C0D"/>
<stop offset="0.9" stop-color="#EB6B13"/>
<stop offset="0.98" stop-color="#E8551B"/>
<stop offset="1" stop-color="#E7511D"/>
</linearGradient>
<clipPath id="clip0_288_3480">
<rect width="301" height="60" fill="white"/>
</clipPath>
</defs>
</svg>
