<svg width="42" height="40" viewBox="0 0 42 40" fill="none" xmlns="http://www.w3.org/2000/svg">
<g clip-path="url(#clip0_369_237)">
<path d="M10.4444 31.5518C11.4054 31.5518 12.2113 31.8434 12.8622 32.4268C13.2762 32.8002 13.5318 33.2165 13.6291 33.6753C13.7263 34.1341 13.7749 34.8343 13.7749 35.7759C13.7749 36.7175 13.7263 37.4177 13.6291 37.8766C13.5318 38.3355 13.2762 38.7517 12.8622 39.1249C12.2113 39.7083 11.4055 40 10.4444 40C9.48324 40 8.67722 39.7083 8.02655 39.1249C7.61229 38.7439 7.35666 38.3258 7.25942 37.8708C7.16218 37.4159 7.1138 36.7175 7.1138 35.7759C7.1138 34.8343 7.16218 34.1361 7.25942 33.6812C7.35666 33.2262 7.61229 32.808 8.02655 32.4268C8.67722 31.8434 9.48324 31.5518 10.4444 31.5518ZM10.4444 32.998C9.97225 32.998 9.59689 33.1458 9.3189 33.4415C9.14192 33.6206 9.02377 33.8599 8.96494 34.1595C8.90586 34.4591 8.87645 34.9978 8.87645 35.7759C8.87645 36.5539 8.90586 37.0812 8.96494 37.3808C9.02377 37.6804 9.14192 37.9198 9.3189 38.0986C9.60552 38.4022 9.98064 38.5538 10.4444 38.5538C10.9081 38.5538 11.2831 38.4022 11.5698 38.0986C11.7468 37.9198 11.8648 37.6804 11.9238 37.3808C11.9826 37.0812 12.0123 36.5462 12.0123 35.7759C12.0123 35.0055 11.9826 34.459 11.9238 34.1595C11.8647 33.8599 11.7468 33.6206 11.5698 33.4415C11.2916 33.1458 10.9165 32.998 10.4444 32.998Z" fill="#FEFEFE"/>
<path d="M23.724 31.6241V39.9277H21.9614V35.0995L20.2407 38.0502H19.0515L17.3182 35.0995V39.9277H15.5557V31.6241H17.2929L19.6461 35.9275L21.9867 31.6241H23.724Z" fill="#FEFEFE"/>
<path d="M29.4829 31.6241L32.7602 39.9277H31.0268L30.437 38.4574H27.198L26.65 39.9277H24.8087L28.0312 31.6241H29.4828H29.4829ZM28.791 34.089L27.5839 37.0955H29.8907L28.791 34.089Z" fill="#FEFEFE"/>
<path d="M40.7572 31.6241V39.9277H39.1916L35.6155 34.8602V39.9277H33.853V31.6241H35.4308L38.9947 36.6924V31.6241H40.7572Z" fill="#FEFEFE"/>
<path d="M5.50431 7.38479C4.25461 6.26543 2.83487 5.2479 1.28774 4.29474C1.252 4.27256 1.21614 4.25147 1.18041 4.2293C0.992606 3.55103 0.804805 2.87384 0.617005 2.19666C0.427017 1.51285 0.232532 0.83012 0 0C0.0391402 0.0243444 0.0793744 0.0488093 0.118515 0.0742383C2.97466 1.84861 5.04824 4.01658 5.50431 7.38467V7.38479Z" fill="#FEFEFE"/>
<path d="M26.133 4.33221C24.7715 7.45986 23.4759 10.4213 22.1926 13.3882C20.0608 18.3169 17.9214 23.2423 15.8242 28.1854C15.4888 28.9767 15.0887 29.3303 14.1697 29.2793C12.5354 29.1895 10.8911 29.2051 9.25569 29.2738C8.45867 29.3081 8.1199 29.0377 7.91545 28.2962C6.35822 22.6471 4.76867 17.007 3.1869 11.3645C2.84594 10.1464 2.49611 8.93065 2.07578 7.45215C2.12269 7.48095 2.17083 7.50976 2.21775 7.53856C2.25349 7.56074 2.28922 7.58183 2.32508 7.604C3.87221 8.55717 5.29184 9.57457 6.54165 10.6941C6.60875 10.7538 6.67463 10.8137 6.73954 10.8736C7.06822 11.175 7.38341 11.4843 7.68632 11.8012C8.24413 12.3843 8.7583 12.996 9.22446 13.64C10.7269 15.7191 11.7207 18.1375 12.0436 21.0513C12.1286 21.0314 12.2136 21.0114 12.2974 20.9915C12.4093 20.8197 12.5534 20.6601 12.6272 20.4739C14.6147 15.4543 16.6168 10.4413 18.5564 5.40409C18.8771 4.57071 19.2852 4.27689 20.1818 4.31016C22.1101 4.38223 24.0428 4.33233 26.1331 4.33233L26.133 4.33221Z" fill="#FEFEFE"/>
<path d="M33.1327 4.39729H39.1369V20.0202H41.9999V24.1218H39.1369V28.8577C39.1369 29.3152 38.7628 29.6862 38.3014 29.6862H34.5562C34.0948 29.6862 33.7206 29.3152 33.7206 28.8577V24.1218H23.9538C23.2796 24.1218 22.7329 23.5798 22.7329 22.9113V20.1725C22.7329 19.9797 22.7891 19.7911 22.8946 19.6294L32.6664 4.64881C32.7687 4.49202 32.9441 4.39729 33.1326 4.39729H33.1327ZM32.4759 11.3377L26.6016 20.0201H33.7207V11.7133C33.7207 11.0472 32.8502 10.7844 32.4759 11.3376V11.3377Z" fill="#FEFEFE"/>
</g>
<defs>
<clipPath id="clip0_369_237">
<rect width="42" height="40" fill="white"/>
</clipPath>
</defs>
</svg>
