<svg width="263" height="52" viewBox="0 0 263 52" fill="none" xmlns="http://www.w3.org/2000/svg">
<g clip-path="url(#clip0_288_3369)">
<path d="M236.943 13.0336L239.196 12.3614L242.727 7.95599L237.918 9.89751L236.943 13.0336Z" fill="url(#paint0_linear_288_3369)"/>
<path d="M262.377 26.0064L261.128 23.8547L260.567 22.887V26.0064H261.128H262.377Z" fill="url(#paint1_linear_288_3369)"/>
<path d="M258.749 26.0044L259.895 24.0358L260.562 22.8871V22.036C257.273 19.6719 252.674 22.0068 252.674 26.0398V29.6919L253.924 31.8436H252.676V45.7862L260.564 40.7086V26.0044H258.749Z" fill="url(#paint2_linear_288_3369)"/>
<path d="M251.447 29.8729V29.2486L251.435 27.3299C251.434 27.1503 251.39 26.9734 251.307 26.814C251.223 26.6546 251.102 26.5171 250.955 26.4128C250.808 26.3085 250.637 26.2406 250.458 26.2144C250.279 26.1882 250.095 26.2047 249.924 26.2624C249.11 26.5399 248.284 26.8298 247.446 27.1322C246.442 27.4971 245.463 27.8668 244.51 28.2414C244.296 28.325 244.113 28.4704 243.984 28.6586C243.856 28.8467 243.787 29.069 243.788 29.2965V39.4933L245.046 41.6659H243.788V47.5675C243.79 47.7661 243.839 47.9613 243.933 48.1368C244.026 48.3124 244.161 48.4633 244.325 48.5771C244.489 48.6908 244.678 48.7641 244.877 48.7908C245.075 48.8175 245.278 48.797 245.466 48.7308L250.921 46.758C251.144 46.6773 251.336 46.5297 251.471 46.3358C251.605 46.1419 251.675 45.9112 251.672 45.6759L251.483 31.8374H250.31L251.447 29.8729Z" fill="url(#paint3_linear_288_3369)"/>
<path d="M241.793 39.6993V33.192C241.795 32.731 241.688 32.2758 241.483 31.8622C241.278 31.4486 240.979 31.0878 240.609 30.808C240.24 30.5282 239.811 30.3371 239.354 30.2496C238.897 30.1621 238.426 30.1806 237.979 30.3036H237.941C237.28 30.4888 231.349 31.9789 231.34 32.2556C231.395 39.5141 231.448 35.169 231.496 42.417C226.671 41.9634 221.763 39.9864 218.874 36.1137C214.821 30.6803 215.098 22.269 219.433 17.0936C220.251 16.1412 221.189 15.2965 222.223 14.5798C226.583 11.4916 232.108 10.039 237.027 8.07667C242.737 5.79731 248.419 3.44441 254.07 1.01799C252.614 0.100276 250.804 -0.116146 249.088 0.0524138C247.372 0.220973 245.716 0.747463 244.053 1.21776C240.696 2.17293 237.188 2.91585 233.72 2.49341C231.899 2.27075 230.128 1.73176 228.307 1.51951C226.486 1.30725 224.53 1.46748 223.02 2.51005C226.552 4.06268 230.171 5.41065 233.86 6.54716C231.46 7.75829 229.004 8.83627 226.565 9.96623C226.387 10.062 226.193 10.1267 225.993 10.1577C225.702 10.1613 225.414 10.0956 225.154 9.96623C223.822 9.42933 222.196 8.94443 221.048 9.80391L222.563 11.5977C220.058 12.6407 217.803 14.1989 215.95 16.1696C211.506 20.7665 209.413 27.4631 210.346 33.7601C211.662 42.6251 219.002 49.6734 227.678 51.5567C231.072 52.3 234.606 52.1057 237.897 50.9948C238.316 50.8533 241.795 49.7067 241.795 49.1012V41.672H240.643L241.793 39.6993Z" fill="url(#paint4_linear_288_3369)"/>
<path d="M8.24707 18.9004C7.22336 19.4991 6.04914 19.7967 4.86137 19.7585C3.35661 19.7585 2.17162 19.3046 1.30638 18.3966C0.441154 17.4887 0.00728362 16.2448 0.0047757 14.6652C-0.0556612 13.2265 0.4595 11.8223 1.43805 10.7585C1.9238 10.261 2.51 9.87092 3.15828 9.61369C3.80655 9.35646 4.50229 9.23799 5.19994 9.26598C6.09949 9.24709 6.99408 9.403 7.83326 9.72488V11.7809C7.02607 11.2998 6.096 11.0601 5.15479 11.0906C4.73735 11.0769 4.32209 11.1558 3.93937 11.3217C3.55666 11.4877 3.21617 11.7363 2.9428 12.0495C2.35389 12.7565 2.05206 13.6559 2.09638 14.572C2.03847 15.4642 2.30545 16.3473 2.84876 17.0608C3.10629 17.3561 3.42793 17.5898 3.78952 17.7443C4.15113 17.8988 4.54329 17.9699 4.93661 17.9526C5.3796 17.9694 5.82002 17.8785 6.21941 17.6876V15.6018H4.33095V13.8668H8.24707V18.9004Z" fill="#ED6D05"/>
<path d="M9.89453 19.583V8.84418H11.8583V19.583H9.89453Z" fill="#ED6D05"/>
<path d="M19.5981 16.5533H15.1667C15.2344 17.6752 15.8613 18.2374 17.0476 18.2399C17.75 18.2525 18.4385 18.0448 19.015 17.6466V19.1914C18.2784 19.5937 17.4438 19.7861 16.6037 19.7474C16.1411 19.774 15.6782 19.7007 15.2469 19.5326C14.8156 19.3644 14.4263 19.1054 14.1058 18.7734C13.4727 18.0096 13.1542 17.0366 13.2142 16.0496C13.1679 15.0225 13.507 14.0148 14.166 13.2212C14.4566 12.874 14.8222 12.5962 15.2356 12.4083C15.6492 12.2203 16.1 12.127 16.5548 12.1353C16.978 12.1114 17.4011 12.1834 17.7921 12.3457C18.1832 12.5079 18.5319 12.7562 18.8119 13.072C19.3852 13.8025 19.6713 14.7149 19.617 15.6391L19.5981 16.5533ZM17.7661 15.2287C17.7661 14.1391 17.3523 13.5943 16.5247 13.5943C16.3522 13.598 16.1827 13.6398 16.0285 13.7167C15.8742 13.7935 15.7392 13.9033 15.6331 14.0384C15.3544 14.3752 15.184 14.7872 15.144 15.2212L17.7661 15.2287Z" fill="#ED6D05"/>
<path d="M26.8584 16.5533H22.4232C22.4934 17.6752 23.1204 18.2374 24.3042 18.2398C25.0066 18.2525 25.6951 18.0448 26.2716 17.6466V19.1913C25.5348 19.5934 24.7003 19.7857 23.8602 19.7473C23.3971 19.7737 22.9337 19.7004 22.5018 19.5323C22.07 19.3641 21.68 19.1053 21.3586 18.7734C20.7255 18.0095 20.407 17.0365 20.467 16.0495C20.4183 15.0227 20.7561 14.0145 21.415 13.2211C21.7041 12.8732 22.0689 12.5949 22.482 12.4068C22.895 12.2187 23.3457 12.1259 23.8 12.1353C24.2202 12.1138 24.6399 12.1868 25.0275 12.349C25.4152 12.5112 25.7607 12.7583 26.0384 13.0719C26.6131 13.802 26.9005 14.7144 26.8472 15.639L26.8584 16.5533ZM25.0264 15.2286C25.0264 14.144 24.6176 13.6018 23.8 13.6018C23.6296 13.6076 23.4624 13.6504 23.3104 13.7271C23.1583 13.8038 23.025 13.9125 22.9198 14.0457C22.6437 14.3838 22.4749 14.7954 22.4345 15.2286H25.0264Z" fill="#ED6D05"/>
<path d="M38.7175 19.5831H36.7576V15.4599C36.7576 14.348 36.3813 13.7921 35.629 13.7921C35.4518 13.7947 35.2781 13.8428 35.1252 13.9318C34.9723 14.0207 34.8452 14.1474 34.7563 14.2995C34.5174 14.6656 34.3967 15.0951 34.4102 15.5308V19.598H32.4351V15.3928C32.4351 14.3157 32.059 13.7771 31.3066 13.7771C31.1295 13.7748 30.9547 13.8183 30.7997 13.9034C30.6447 13.9884 30.5147 14.1121 30.4225 14.2622C30.1849 14.6433 30.0694 15.087 30.0915 15.5346V19.5831H28.124V12.3293H30.0915V13.4488H30.1141C30.3346 13.0501 30.6578 12.7166 31.0508 12.4823C31.421 12.2568 31.8466 12.1368 32.2809 12.1353C32.7132 12.1159 33.1395 12.2405 33.4919 12.4895C33.8444 12.7383 34.1028 13.097 34.2258 13.5085C34.4317 13.0905 34.7532 12.7394 35.1529 12.4962C35.5527 12.253 36.014 12.1278 36.483 12.1353C37.9501 12.1353 38.6824 13.1104 38.6798 15.0607L38.7175 19.5831Z" fill="#ED6D05"/>
<path d="M48.3712 10.4785C48.1343 10.3727 47.8785 10.3144 47.6189 10.3068C46.9455 10.3068 46.6069 10.7098 46.6069 11.5158V12.3293H48.1229V13.9077H46.6182V19.583H44.6507V13.9077H43.5221V12.3293H44.6507V11.3964C44.6345 11.0328 44.6928 10.6698 44.8222 10.3293C44.9515 9.98867 45.1491 9.67771 45.4031 9.41503C45.6629 9.16491 45.9713 8.96973 46.3095 8.84147C46.6478 8.71311 47.0087 8.6544 47.3705 8.66883C47.717 8.65843 48.0627 8.70505 48.3938 8.80689L48.3712 10.4785Z" fill="#ED6D05"/>
<path d="M48.7487 15.9899C48.7198 15.4789 48.793 14.9673 48.9641 14.4845C49.1352 14.0016 49.4008 13.5571 49.7456 13.1764C50.0956 12.8301 50.5146 12.5599 50.9757 12.3832C51.4369 12.2065 51.9302 12.1272 52.4241 12.1503C52.9015 12.128 53.3784 12.2063 53.8231 12.3799C54.268 12.5535 54.6707 12.8186 55.0047 13.1578C55.6675 13.9009 56.0106 14.872 55.9602 15.863C56.0145 16.8991 55.6642 17.916 54.9822 18.7026C54.2745 19.3726 53.3361 19.7502 52.3577 19.7586C51.3794 19.7669 50.4346 19.4053 49.7155 18.7473C49.0415 17.9893 48.6944 16.9992 48.7487 15.9899ZM50.7425 15.9638C50.7425 17.4115 51.2905 18.1354 52.3864 18.1354C53.436 18.1354 53.9627 17.3892 53.9627 15.8966C53.9627 14.4786 53.4335 13.7697 52.3751 13.7697C52.1426 13.7593 51.9111 13.8059 51.7011 13.9055C51.4912 14.0051 51.3092 14.1545 51.1714 14.3406C50.8609 14.8234 50.7158 15.3926 50.7576 15.9638H50.7425Z" fill="#ED6D05"/>
<path d="M61.6447 14.2509C61.3812 14.0954 61.0784 14.0178 60.7719 14.027C60.5622 14.0214 60.3546 14.0692 60.1688 14.166C59.9832 14.2626 59.8255 14.4049 59.7111 14.5793C59.4239 15.0313 59.2858 15.5608 59.3161 16.0942V19.5831H57.3486V12.3292H59.3161V13.6912H59.3424C59.6659 12.6962 60.2566 12.1987 61.1143 12.1987C61.2951 12.1908 61.4757 12.22 61.6447 12.2845V14.2509Z" fill="#ED6D05"/>
<path d="M70.3179 19.4973C69.8993 19.6982 69.4354 19.7882 68.9712 19.7585C67.5417 19.7585 66.8269 18.95 66.8269 17.3331V13.9077H65.7209V12.3293H66.8269V10.736L68.7831 10.1315V12.3293H70.3179V13.9077H68.7831V16.9525C68.7831 17.7249 69.0652 18.1129 69.6333 18.1129C69.877 18.1061 70.1139 18.0325 70.3179 17.9002V19.4973Z" fill="#ED6D05"/>
<path d="M71.0707 15.9897C71.041 15.4787 71.1138 14.9669 71.2849 14.4839C71.4561 14.001 71.7221 13.5565 72.0676 13.1763C72.4167 12.8298 72.835 12.5595 73.2956 12.3828C73.7562 12.2061 74.249 12.1269 74.7423 12.1501C75.2204 12.1273 75.698 12.2053 76.1434 12.379C76.589 12.5526 76.9922 12.818 77.3268 13.1576C77.9896 13.9008 78.3325 14.8719 78.2822 15.8629C78.3371 16.8996 77.9852 17.9173 77.3004 18.7024C76.5931 19.3734 75.6546 19.7515 74.676 19.7598C73.6974 19.7681 72.7525 19.406 72.0337 18.7472C71.3611 17.9885 71.0154 16.9985 71.0707 15.9897ZM73.0645 15.9636C73.0645 17.4114 73.61 18.1353 74.7085 18.1353C75.8069 18.1353 76.2847 17.389 76.2847 15.8965C76.2847 14.4785 75.7543 13.7696 74.6934 13.7696C74.459 13.7569 74.225 13.8025 74.0129 13.9022C73.8007 14.0019 73.617 14.1525 73.4783 14.3405C73.1626 14.8215 73.0122 15.3909 73.0495 15.9636H73.0645Z" fill="#ED6D05"/>
<path d="M85.9519 19.5831H83.9957V18.4637H83.9656C83.7769 18.8479 83.4834 19.1719 83.1183 19.3988C82.7532 19.6257 82.3312 19.7465 81.9004 19.7473C80.3354 19.7473 79.5516 18.7286 79.5492 16.6913V12.3293H81.5166V16.5085C81.5166 17.5906 81.8929 18.1354 82.6979 18.1354C82.88 18.1419 83.0611 18.1046 83.2255 18.0266C83.39 17.9486 83.5329 17.8323 83.6421 17.6876C83.8943 17.3372 84.019 16.9123 83.9957 16.4823V12.3293H85.9519V19.5831Z" fill="#ED6D05"/>
<path d="M92.0281 14.251C91.766 14.095 91.4645 14.0172 91.1587 14.0271C90.949 14.0219 90.7411 14.0699 90.5541 14.1666C90.368 14.2631 90.2098 14.4052 90.0945 14.5794C89.8158 15.0345 89.6847 15.5631 89.7179 16.0943V19.5831H87.7354V12.3293H89.703V13.6913H89.7293C90.0525 12.6963 90.6432 12.1988 91.5012 12.1988C91.6803 12.1904 91.8603 12.2197 92.0281 12.2846V14.251Z" fill="#ED6D05"/>
<path d="M92.8897 9.98611C92.8845 9.83938 92.9107 9.69326 92.9657 9.55702C93.0208 9.42078 93.1038 9.29745 93.2095 9.19501C93.3187 9.09353 93.4472 9.01449 93.587 8.96266C93.7276 8.91075 93.8762 8.887 94.0265 8.89281C94.1785 8.88596 94.3305 8.90988 94.4738 8.96309C94.6162 9.01639 94.7473 9.09777 94.8574 9.20255C94.9614 9.30482 95.0426 9.42711 95.0968 9.56187C95.1518 9.69664 95.1772 9.84103 95.1737 9.98611C95.1772 10.134 95.151 10.2813 95.0951 10.4187C95.0391 10.5559 94.9561 10.6806 94.8495 10.7847C94.6267 10.9894 94.334 11.1032 94.0299 11.1032C93.7259 11.1032 93.4332 10.9894 93.2095 10.7847C93.1038 10.6804 93.0216 10.5557 92.9666 10.4183C92.9115 10.2809 92.8853 10.1338 92.8897 9.98611ZM93.0365 19.5831V12.3294H94.9963V19.5831H93.0365Z" fill="#ED6D05"/>
<path d="M96.5804 17.6353C97.1597 18.045 97.8483 18.275 98.5595 18.2958C99.3721 18.2958 99.7784 18.0644 99.7784 17.5942C99.7784 17.2622 99.4437 16.9861 98.7701 16.7621C98.1287 16.5928 97.5372 16.2728 97.047 15.8293C96.6949 15.3728 96.5324 14.7991 96.5953 14.2274C96.6573 13.6556 96.9387 13.1297 97.3817 12.7584C97.9968 12.3293 98.7377 12.1153 99.4883 12.1502C100.096 12.1495 100.7 12.249 101.275 12.445V14.1129C100.76 13.7827 100.158 13.6089 99.5451 13.6129C99.2821 13.601 99.0208 13.6644 98.7928 13.7957C98.7063 13.8422 98.6346 13.9107 98.5848 13.9941C98.5342 14.0774 98.5071 14.1725 98.5071 14.2696C98.5071 14.6017 98.7928 14.8704 99.3607 15.0756C99.8343 15.2357 100.294 15.4354 100.733 15.6726C101.027 15.842 101.269 16.0869 101.433 16.3816C101.599 16.6955 101.682 17.046 101.674 17.4002C101.69 17.7358 101.622 18.0702 101.476 18.3735C101.331 18.6768 101.112 18.9398 100.839 19.139C100.185 19.5816 99.4027 19.7992 98.6119 19.7584C97.9182 19.7662 97.2296 19.6394 96.5839 19.3853L96.5804 17.6353Z" fill="#ED6D05"/>
<path d="M113.479 19.5831H111.519V15.46C111.519 14.348 111.142 13.7921 110.39 13.7921C110.214 13.7943 110.04 13.8423 109.888 13.9313C109.736 14.0203 109.609 14.1472 109.522 14.2995C109.28 14.6645 109.157 15.0945 109.171 15.5309V19.598H107.211V15.3928C107.211 14.3157 106.835 13.7772 106.082 13.7772C105.905 13.7746 105.729 13.8179 105.574 13.903C105.418 13.988 105.287 14.1119 105.195 14.2622C104.959 14.6439 104.843 15.0872 104.864 15.5346V19.5831H102.897V12.3294H104.864V13.4488H104.891C105.109 13.0486 105.432 12.7146 105.827 12.4824C106.197 12.256 106.622 12.1359 107.057 12.1354C107.489 12.1161 107.915 12.2409 108.267 12.4898C108.618 12.7387 108.876 13.0974 108.998 13.5085C109.204 13.0905 109.526 12.7394 109.925 12.4962C110.325 12.253 110.787 12.1278 111.255 12.1354C112.722 12.1354 113.456 13.1104 113.456 15.0607L113.479 19.5831Z" fill="#ED6D05"/>
<path d="M125.447 18.445C124.513 19.2863 123.293 19.7473 122.031 19.736C121.101 19.786 120.186 19.4922 119.461 18.9114C119.142 18.6283 118.892 18.2779 118.727 17.886C118.562 17.4941 118.488 17.0705 118.51 16.6464C118.51 15.3181 119.27 14.3342 120.789 13.6949C120.037 13.0531 119.642 12.3442 119.642 11.5755C119.628 11.2537 119.689 10.9329 119.819 10.6379C119.95 10.343 120.146 10.0816 120.395 9.87402C120.981 9.42491 121.71 9.19975 122.449 9.2397C123.147 9.2098 123.834 9.42959 124.382 9.85911C124.623 10.0479 124.816 10.2893 124.946 10.5644C125.077 10.8396 125.141 11.1409 125.135 11.4449C125.135 12.4797 124.573 13.2497 123.449 13.7546C124.395 14.2548 125.178 15.012 125.706 15.9375C126.401 14.9658 126.756 13.7958 126.719 12.6054C126.723 12.2751 126.68 11.9459 126.59 11.6277H128.284C128.376 11.9337 128.419 12.2524 128.411 12.5718C128.411 14.3116 127.763 15.99 126.59 17.2845C127.065 17.8293 127.516 18.1016 127.941 18.1016C128.351 18.106 128.755 18.0099 129.119 17.8218V19.4412C128.662 19.6403 128.168 19.7408 127.67 19.736C126.892 19.7472 126.143 19.3144 125.447 18.445ZM124.589 17.0942C124.001 15.9927 123.069 15.1092 121.933 14.5755C120.982 15.0457 120.507 15.695 120.507 16.5606C120.499 16.7678 120.535 16.9744 120.613 17.1671C120.69 17.3598 120.806 17.5345 120.955 17.68C121.112 17.8263 121.296 17.9399 121.498 18.0143C121.7 18.0886 121.914 18.1222 122.129 18.1129C123.05 18.1085 123.933 17.7469 124.589 17.1054V17.0942ZM122.235 12.9636C122.987 12.6626 123.369 12.2099 123.382 11.6054C123.385 11.4808 123.363 11.3568 123.315 11.2416C123.267 11.1264 123.195 11.0228 123.103 10.9374C122.928 10.7704 122.693 10.6792 122.449 10.6837C122.171 10.6746 121.901 10.7736 121.696 10.9599C121.6 11.0466 121.524 11.1528 121.473 11.2712C121.421 11.3896 121.397 11.5176 121.399 11.6464C121.406 11.92 121.488 12.1867 121.634 12.4185C121.782 12.6502 121.989 12.8385 122.235 12.9636Z" fill="#ED6D05"/>
<path d="M133.775 9.98601C133.771 9.83945 133.797 9.69359 133.852 9.55753C133.907 9.42137 133.99 9.29796 134.095 9.195C134.204 9.09299 134.334 9.01378 134.474 8.96187C134.615 8.90995 134.765 8.88647 134.915 8.89279C135.067 8.88647 135.219 8.91065 135.361 8.96386C135.503 9.01707 135.633 9.09819 135.743 9.20245C135.847 9.30481 135.928 9.42709 135.982 9.56186C136.037 9.69663 136.063 9.84093 136.058 9.98601C136.064 10.1338 136.037 10.2809 135.982 10.4183C135.927 10.5557 135.844 10.6803 135.739 10.7846C135.516 10.9893 135.223 11.1031 134.919 11.1031C134.615 11.1031 134.322 10.9893 134.099 10.7846C133.993 10.6805 133.909 10.5559 133.854 10.4186C133.798 10.2812 133.771 10.134 133.775 9.98601ZM133.922 19.5831V12.3294H135.885V19.5831H133.922Z" fill="#ED6D05"/>
<path d="M144.051 19.5831H142.094V15.5347C142.094 14.3629 141.704 13.7771 140.921 13.7771C140.738 13.775 140.558 13.8166 140.396 13.8985C140.234 13.9804 140.093 14.1001 139.988 14.2473C139.727 14.5915 139.594 15.0147 139.612 15.445V19.5831H137.656V12.3294H139.623V13.4824H139.65C139.842 13.0763 140.149 12.7344 140.534 12.4979C140.918 12.2615 141.364 12.1407 141.816 12.1502C143.321 12.1502 144.073 13.1453 144.073 15.1354L144.051 19.5831Z" fill="#ED6D05"/>
<path d="M152.016 12.3293L149.488 19.5831H147.264L144.861 12.3293H146.967L148.19 16.8928C148.307 17.3022 148.381 17.7223 148.412 18.1466H148.442C148.488 17.7363 148.568 17.3306 148.682 16.9339L149.943 12.3293H152.016Z" fill="#ED6D05"/>
<path d="M158.767 16.5533H154.336C154.404 17.6752 155.03 18.2374 156.217 18.2398C156.919 18.2524 157.608 18.0448 158.184 17.6466V19.1913C157.448 19.5937 156.613 19.7861 155.773 19.7473C155.311 19.774 154.848 19.7007 154.416 19.5325C153.985 19.3644 153.595 19.1054 153.275 18.7734C152.642 18.0096 152.323 17.0365 152.384 16.0495C152.337 15.0241 152.675 14.018 153.332 13.2248C153.622 12.8777 153.988 12.5999 154.401 12.412C154.814 12.224 155.265 12.1308 155.72 12.1391C156.143 12.1152 156.566 12.1871 156.958 12.3493C157.348 12.5116 157.697 12.76 157.977 13.0756C158.551 13.8062 158.837 14.7185 158.782 15.6428L158.767 16.5533ZM156.935 15.2287C156.935 14.1428 156.525 13.6017 155.713 13.6017C155.54 13.6049 155.369 13.6465 155.215 13.7233C155.059 13.8001 154.924 13.9103 154.817 14.0457C154.538 14.3825 154.368 14.7946 154.329 15.2287H156.935Z" fill="#ED6D05"/>
<path d="M159.869 17.6353C160.448 18.0444 161.137 18.2743 161.848 18.2958C162.661 18.2958 163.067 18.0644 163.067 17.5942C163.067 17.2622 162.731 16.9861 162.062 16.7621C161.421 16.5928 160.83 16.2728 160.339 15.8293C160.011 15.4399 159.842 14.9413 159.869 14.4337C159.855 14.1106 159.921 13.7888 160.061 13.4968C160.202 13.2048 160.413 12.9512 160.674 12.7584C161.289 12.3293 162.03 12.1153 162.78 12.1502C163.388 12.1497 163.991 12.2494 164.564 12.445V14.1129C164.049 13.7821 163.447 13.6083 162.834 13.6129C162.57 13.5997 162.309 13.6632 162.081 13.7957C161.995 13.8416 161.922 13.91 161.872 13.9935C161.822 14.0769 161.795 14.1723 161.795 14.2696C161.795 14.6017 162.077 14.8704 162.645 15.0756C163.119 15.235 163.579 15.4347 164.018 15.6726C164.314 15.8396 164.556 16.0852 164.718 16.3816C164.884 16.6955 164.967 17.046 164.959 17.4002C164.974 17.7354 164.907 18.0693 164.762 18.3725C164.617 18.6757 164.399 18.9389 164.128 19.139C163.472 19.5814 162.689 19.7989 161.897 19.7584C161.203 19.7659 160.514 19.6391 159.869 19.3853V17.6353Z" fill="#ED6D05"/>
<path d="M170.164 19.4973C169.748 19.6982 169.285 19.7883 168.821 19.7585C167.392 19.7585 166.677 18.95 166.677 17.3331V13.9077H165.568V12.3293H166.677V10.736L168.634 10.1315V12.3293H170.164V13.9077H168.634V16.9525C168.634 17.7249 168.916 18.1129 169.484 18.1129C169.727 18.106 169.962 18.0324 170.164 17.9002V19.4973Z" fill="#ED6D05"/>
<path d="M181.931 19.5831H179.972V15.4599C179.972 14.348 179.596 13.792 178.843 13.792C178.666 13.7942 178.493 13.8422 178.34 13.9312C178.188 14.0202 178.062 14.1472 177.974 14.2995C177.734 14.6647 177.612 15.0948 177.628 15.5308V19.598H175.649V15.3928C175.649 14.3144 175.273 13.777 174.521 13.777C174.343 13.7744 174.168 13.8179 174.012 13.9029C173.856 13.988 173.726 14.1118 173.632 14.2621C173.397 14.6439 173.281 15.0871 173.302 15.5346V19.5831H171.334V12.3293H173.302V13.4488H173.328C173.547 13.0485 173.87 12.7146 174.265 12.4823C174.635 12.2568 175.06 12.1368 175.495 12.1352C175.927 12.1154 176.353 12.2399 176.705 12.4889C177.057 12.7379 177.314 13.097 177.436 13.5084C177.643 13.0911 177.965 12.7404 178.364 12.4973C178.764 12.2542 179.224 12.1286 179.694 12.1352C181.155 12.1352 181.888 13.1104 181.89 15.0607L181.931 19.5831Z" fill="#ED6D05"/>
<path d="M189.597 16.5533H185.162C185.229 17.6727 185.861 18.2399 187.043 18.2399C187.745 18.252 188.433 18.0444 189.01 17.6465V19.1914C188.273 19.5933 187.439 19.7857 186.599 19.7473C186.136 19.774 185.672 19.7008 185.24 19.5327C184.809 19.3645 184.418 19.1055 184.097 18.7735C183.464 18.0096 183.145 17.0366 183.205 16.0495C183.159 15.0235 183.498 14.0169 184.157 13.2249C184.446 12.877 184.811 12.5986 185.224 12.4106C185.637 12.2225 186.088 12.1297 186.542 12.139C186.962 12.1176 187.382 12.1906 187.77 12.3528C188.158 12.515 188.503 12.7621 188.781 13.0757C189.356 13.8057 189.643 14.7181 189.589 15.6428L189.597 16.5533ZM187.761 15.2286C187.761 14.1441 187.354 13.6018 186.539 13.6018C186.366 13.6049 186.195 13.6464 186.04 13.7233C185.885 13.8001 185.75 13.9103 185.643 14.0458C185.368 14.3846 185.197 14.7956 185.154 15.2286H187.761Z" fill="#ED6D05"/>
<path d="M197.274 19.5831H195.317V15.5346C195.317 14.3629 194.926 13.7771 194.144 13.7771C193.961 13.7749 193.781 13.8166 193.619 13.8984C193.456 13.9803 193.316 14.1 193.211 14.2472C192.949 14.5915 192.817 15.0147 192.835 15.4451V19.5831H190.871V12.3293H192.835V13.4823H192.861C193.054 13.0766 193.361 12.7349 193.745 12.4985C194.131 12.2621 194.575 12.1412 195.028 12.1503C196.533 12.1503 197.285 13.1453 197.285 15.1353L197.274 19.5831Z" fill="#ED6D05"/>
<path d="M202.921 19.4973C202.502 19.6978 202.038 19.7878 201.574 19.7585C200.145 19.7585 199.43 18.95 199.43 17.3331V13.9077H198.301V12.3293H199.43V10.736L201.386 10.1315V12.3293H202.921V13.9077H201.386V16.9525C201.386 17.7249 201.668 18.1129 202.237 18.1129C202.479 18.1056 202.716 18.032 202.921 17.9002V19.4973Z" fill="#ED6D05"/>
<path d="M76.3561 31.9339L77.0821 33.2473C77.4241 33.8102 77.6024 34.4559 77.5975 35.113V36.1877C77.5975 37.0533 77.1047 37.9787 76.3034 38.8929C75.6752 39.5197 75.1222 39.781 74.6106 39.781C73.6877 39.7299 72.7881 39.4749 71.9773 39.0347L72.0901 38.7026C72.4552 38.8172 72.8358 38.8763 73.2186 38.878C74.667 38.878 76.1455 37.6914 76.8225 36.2474C76.8921 36.1145 76.9306 35.9679 76.9354 35.8183C76.9161 35.6401 76.8678 35.4662 76.7925 35.3033C76.4421 34.5565 76.0293 33.8401 75.5586 33.1615C75.7956 32.7399 76.0326 32.3406 76.2884 31.9414L76.3561 31.9339Z" fill="#ED6D05"/>
<path d="M82.8826 35.4899C83.4582 35.1877 83.6952 34.6317 84.0638 33.9414C84.3279 33.4157 84.6415 32.9159 85.0006 32.4488H85.1021C85.7102 33.2224 86.362 33.9612 87.0546 34.6615C87.8071 35.4078 88.5026 35.7137 89.1911 35.7137H89.3117V36.96H89.1911C88.7874 36.9655 88.389 36.8767 88.0264 36.7011C87.6629 36.5255 87.3473 36.2678 87.1034 35.9489H87.0734V36.1056C87.0734 37.4489 86.3774 38.1205 85.7905 38.1205C84.7936 38.1205 83.8494 37.1765 83.6237 36.0272H83.571C83.3843 36.3168 83.1257 36.554 82.8201 36.716C82.5145 36.878 82.172 36.9595 81.8255 36.9526C81.5442 36.964 81.2635 36.9201 80.9995 36.8234C80.7353 36.7267 80.4932 36.5791 80.2869 36.3891C79.6587 35.7847 79.6098 35.1018 79.6098 33.669C79.6098 31.8033 79.497 29.8816 79.3427 27.8144C79.6418 27.4902 79.9636 27.1872 80.3057 26.9077L80.3772 26.9488C80.5428 29.0831 80.5428 31.6056 80.5428 34.001V34.557C80.5291 34.7898 80.5964 35.0201 80.7333 35.2095C80.8702 35.3991 81.0685 35.5362 81.2951 35.5981C81.5074 35.6687 81.7296 35.7052 81.9534 35.7063C82.2754 35.7028 82.5927 35.6289 82.8826 35.4899ZM84.7636 33.7734C84.4865 34.166 84.3144 34.6217 84.2632 35.0981C84.2632 35.8443 84.9291 36.8332 85.8657 36.8332C86.0305 36.8049 86.1787 36.7164 86.281 36.5852C86.3834 36.454 86.4326 36.2896 86.4187 36.1242C86.4164 35.8066 86.2912 35.5021 86.0689 35.2735C85.6927 34.7698 85.2489 34.2996 84.8162 33.7809L84.7636 33.7734Z" fill="#ED6D05"/>
<path d="M89.5371 35.7139C90.327 35.7139 91.1509 35.4117 91.3012 34.8557L91.6018 33.8034L92.3095 33.3183L92.3698 33.3855C92.2518 33.749 92.1758 34.1245 92.1435 34.505C92.1313 34.6569 92.1557 34.8096 92.2143 34.9504C92.2728 35.0912 92.3654 35.2161 92.4825 35.3147C92.8521 35.5798 93.3021 35.7115 93.7573 35.6878H93.9417V36.9341H93.7049C92.7001 36.9341 91.9408 36.6728 91.5904 35.9416H91.5493C91.1998 36.5945 90.3872 36.9341 89.5065 36.9341H89.3108C89.219 36.9448 89.1264 36.9358 89.0382 36.9076C88.9499 36.8795 88.8695 36.8328 88.8005 36.7709C88.7324 36.7089 88.6791 36.6331 88.6432 36.5486C88.6065 36.464 88.5899 36.3728 88.5926 36.2811C88.5926 36.0497 88.7542 35.6878 89.3108 35.6878L89.5371 35.7139ZM90.6651 32.0199C90.2439 31.6467 89.8752 31.3296 89.4654 31.0087C89.7136 30.6824 89.9836 30.3733 90.2737 30.0832C90.6931 30.3981 91.0854 30.7463 91.448 31.1244C91.2234 31.4524 90.9604 31.753 90.6651 32.0199ZM91.2217 29.9452C90.8005 29.5721 90.4283 29.2549 90.0185 28.934C90.2675 28.6077 90.5393 28.2985 90.8311 28.0086C91.2496 28.3226 91.6411 28.6708 92.0011 29.0496C91.7765 29.3768 91.5153 29.6773 91.2217 29.9452ZM92.6476 31.893C92.2265 31.5198 91.8578 31.2027 91.448 30.8818C91.6961 30.5556 91.9661 30.2464 92.2562 29.9564C92.6756 30.2712 93.0679 30.6194 93.4305 30.9975C93.2042 31.3194 92.9412 31.6148 92.6476 31.8781V31.893Z" fill="#ED6D05"/>
<path d="M94.168 35.7139C94.9578 35.7139 95.7783 35.4116 95.933 34.8556L96.2335 33.8034L96.9404 33.3183L97.0007 33.3855C96.8836 33.749 96.8076 34.1245 96.7753 34.5049C96.763 34.6568 96.7866 34.8095 96.846 34.9504C96.9046 35.0912 96.9963 35.2161 97.1143 35.3146C97.4839 35.5798 97.9339 35.7115 98.3891 35.6877H98.5734V36.934H98.3366C97.3318 36.934 96.5725 36.6729 96.2222 35.9415H96.1811C95.8307 36.5945 95.0181 36.934 94.1383 36.934H93.9425C93.8508 36.9448 93.7573 36.9358 93.6699 36.9076C93.5817 36.8795 93.5004 36.8328 93.4323 36.7708C93.3641 36.7088 93.3099 36.633 93.2741 36.5485C93.2383 36.464 93.2208 36.3727 93.2243 36.281C93.2243 36.0497 93.386 35.6877 93.9425 35.6877L94.168 35.7139ZM95.2969 32.0198C94.8757 31.6467 94.507 31.3295 94.0972 31.0086C94.3453 30.6825 94.6153 30.3732 94.9054 30.0832C95.3248 30.3981 95.7171 30.7462 96.0797 31.1243C95.8552 31.4523 95.5922 31.7529 95.2969 32.0198ZM97.2794 31.8929C96.8583 31.5198 96.4895 31.2026 96.0797 30.8817C96.3279 30.5556 96.5979 30.2463 96.888 29.9564C97.3065 30.2704 97.6979 30.6186 98.0579 30.9974C97.8342 31.3201 97.573 31.6156 97.2794 31.878V31.8929Z" fill="#ED6D05"/>
<path d="M106.852 32.7921C106.954 33.3639 107.01 33.9429 107.018 34.5235C106.995 34.991 106.866 35.4475 106.642 35.8594C106.266 36.475 105.721 36.9302 105.137 36.9302C104.876 36.9009 104.624 36.8132 104.402 36.6736C104.18 36.534 103.992 36.3462 103.854 36.1243H103.771C103.549 36.381 103.273 36.5882 102.964 36.7323C102.656 36.8763 102.319 36.954 101.978 36.9601C101.856 36.9769 101.734 36.9683 101.616 36.9347C101.499 36.9011 101.39 36.8433 101.297 36.765C101.204 36.6868 101.129 36.59 101.076 36.4808C101.023 36.3716 100.995 36.2527 100.992 36.1318H100.95C100.667 36.4178 100.324 36.6398 99.9469 36.7827C99.5686 36.9257 99.1641 36.9862 98.7604 36.9601H98.5874C98.4956 36.9709 98.403 36.9618 98.3148 36.9337C98.2265 36.9055 98.1461 36.8589 98.078 36.7969C98.0098 36.735 97.9557 36.6591 97.9198 36.5745C97.884 36.49 97.8665 36.3988 97.8692 36.3071C97.8692 36.0758 98.0308 35.7139 98.5874 35.7139H98.9115C99.8438 35.7139 100.586 35.4787 101.078 34.8071L101.642 34.0384L102.433 33.7736L102.474 33.822C102.064 34.4489 101.774 34.9414 101.774 35.225C101.773 35.2932 101.786 35.3608 101.812 35.4235C101.839 35.4862 101.88 35.5425 101.93 35.5887C101.981 35.635 102.04 35.67 102.106 35.6916C102.171 35.7131 102.24 35.7207 102.309 35.7139C102.635 35.709 102.952 35.6105 103.223 35.4303C103.598 35.1765 103.632 34.8967 103.952 33.8817L104.569 33.5422L104.629 33.5795C104.548 33.8917 104.504 34.2123 104.497 34.5348C104.491 34.678 104.515 34.821 104.565 34.9554C104.615 35.0898 104.693 35.2127 104.792 35.317C104.892 35.4213 105.01 35.5049 105.143 35.5628C105.275 35.6207 105.418 35.6518 105.563 35.6541C105.852 35.6541 106.108 35.5086 106.108 35.2176C106.072 34.6847 105.986 34.1563 105.852 33.6392C106.134 33.3206 106.443 33.0273 106.777 32.7623L106.852 32.7921Z" fill="#ED6D05"/>
<path d="M113.202 26.9861C113.192 27.0528 113.186 27.1201 113.184 27.1876C113.184 27.7659 113.56 28.4376 114.014 29.1652C113.822 29.3426 113.613 29.5013 113.391 29.6391C113.44 30.8294 113.469 31.9488 113.469 33.1391C113.457 33.7858 113.343 34.4266 113.131 35.0384C112.945 35.6942 112.549 36.272 112.002 36.6839C111.24 37.1971 110.346 37.4844 109.426 37.5123C108.562 37.4886 107.708 37.3377 106.89 37.0646V36.9563C108.872 36.7026 110.434 36.2958 111.491 35.6913C111.438 35.2996 110.927 34.5719 110.328 33.7026C109.674 32.7474 108.933 31.7548 108.09 30.5868C107.424 29.6615 107.074 29.0944 107.074 28.7734C107.171 28.4345 107.332 28.1167 107.548 27.8368H107.597C108.116 28.4421 108.675 29.0118 109.271 29.5421L108.944 30.0943C109.876 31.4974 110.78 32.766 111.389 33.7772C111.68 34.2966 111.831 34.8811 111.829 35.4749H111.89C112.168 35.2739 112.39 35.0055 112.534 34.6952C112.679 34.3849 112.74 34.0432 112.713 33.7026C112.713 32.71 112.619 31.4637 112.446 29.7659C112.423 29.3294 112.322 28.6876 112.322 28.2473C112.307 27.9991 112.384 27.7541 112.536 27.557C112.717 27.3295 112.92 27.1207 113.142 26.9338L113.202 26.9861Z" fill="#ED6D05"/>
<path d="M115.804 37.1243C115.893 36.4789 115.931 35.8276 115.917 35.1764V34.2249C115.917 32.4413 115.71 29.8481 115.54 28.1652C115.848 27.7948 116.186 27.4492 116.548 27.1316L116.643 27.1615C116.857 29.2847 116.91 31.7473 116.91 34.0197C116.915 34.5555 116.89 35.0912 116.834 35.6242C116.804 36.1615 116.53 36.572 115.931 37.1952L115.804 37.1243Z" fill="#ED6D05"/>
<path d="M121.318 35.9377C120.114 35.9377 119.061 35.4004 119.061 34.1056C119.073 33.4874 119.307 32.8937 119.719 32.4302C120.085 31.9832 120.61 31.6932 121.186 31.6205C121.785 31.6205 122.338 32.0198 122.74 32.7212C123.185 33.544 123.411 34.4664 123.394 35.4004C123.406 36.3138 123.135 37.2088 122.616 37.9638C121.702 39.2772 120.829 39.8295 119.982 39.8295C118.927 39.8075 117.902 39.475 117.037 38.8742L117.191 38.5646C117.66 38.7889 118.175 38.9014 118.696 38.8929C119.734 38.8929 120.773 38.3966 121.705 37.4004C122.186 36.9673 122.523 36.4002 122.672 35.7735C122.229 35.8848 121.774 35.9399 121.318 35.9377ZM120.863 32.8481C120.381 32.8481 119.716 33.3556 119.716 33.7175C119.716 34.322 120.618 34.7473 121.461 34.7473C121.85 34.7498 122.239 34.7085 122.62 34.6242C122.341 33.6391 121.747 32.8481 120.863 32.8481Z" fill="#ED6D05"/>
<path d="M131.101 36.0347C130.022 36.0347 129.22 35.6615 129.22 34.9152C129.249 34.515 129.365 34.1256 129.558 33.7735C129.987 32.9078 131.063 32.0197 132.835 31.0944L132.771 30.3481C133.025 30.0653 133.296 29.7986 133.584 29.5495H133.697C133.738 31.0607 133.738 32.5794 133.757 34.0906C133.757 34.7735 133.84 35.2101 134.133 35.4638C134.455 35.6631 134.834 35.7522 135.213 35.7175H135.457V36.9638H135.232C134.227 36.9638 133.497 36.71 133.106 35.6093C132.473 35.8838 131.792 36.0286 131.101 36.0347ZM132.918 32.1578C131.089 33.0533 130.134 33.7735 130.134 34.2921C130.134 34.6653 130.751 34.8369 131.447 34.8369C131.96 34.8203 132.466 34.7286 132.952 34.5645L132.918 32.1578ZM131.707 28.71C131.285 28.3369 130.913 28.016 130.503 27.695C130.752 27.3687 131.024 27.0596 131.316 26.7697C131.734 27.0849 132.126 27.4344 132.486 27.8145C132.26 28.1408 131.999 28.4412 131.707 28.71ZM133.685 28.5831C133.264 28.21 132.895 27.8891 132.486 27.5682C132.734 27.241 133.005 26.9318 133.298 26.6428C133.716 26.9591 134.107 27.3085 134.468 27.6876C134.242 28.0141 133.979 28.3144 133.685 28.5831Z" fill="#ED6D05"/>
<path d="M136.107 35.7137C137.774 35.7137 139.493 35.1578 141.593 33.9488V33.9115C140.563 33.5097 139.474 33.279 138.369 33.2287C138.128 33.2125 137.887 33.2477 137.662 33.3321C137.437 33.4165 137.233 33.5479 137.063 33.7175L137.187 34.2025L136.879 35.0794H136.778L136.273 33.7958C136.355 32.7138 137.27 32.0421 138.501 32.0421C139.188 32.0421 140.268 32.2734 141.885 32.8891C142.448 33.0903 143.041 33.195 143.639 33.1989H144.47L144.504 33.2175L143.959 34.2399C143.343 34.1969 142.728 34.3262 142.183 34.613L140.467 35.6728C139.141 36.5195 137.599 36.9726 136.021 36.9787H135.487C135.395 36.9895 135.302 36.9805 135.213 36.9523C135.126 36.9241 135.045 36.8775 134.977 36.8155C134.909 36.7536 134.854 36.6777 134.819 36.5932C134.783 36.5087 134.765 36.4174 134.769 36.3257C134.769 36.0944 134.93 35.7325 135.487 35.7325L136.107 35.7137Z" fill="#ED6D05"/>
<path d="M148.759 36.9601H148.647C147.834 36.9601 147.311 36.8033 146.889 36.4041C146.266 35.7996 146.254 35.1093 146.254 33.6764C146.254 31.8108 146.141 29.8891 145.987 27.8219C146.287 27.4966 146.61 27.1935 146.954 26.9152L147.025 26.9562C147.187 29.0906 147.187 31.613 147.187 34.0085V34.5645C147.175 34.7995 147.245 35.0315 147.386 35.2211C147.526 35.4108 147.728 35.5466 147.958 35.6056C148.17 35.6762 148.392 35.7127 148.617 35.7138H148.759V36.9601Z" fill="#ED6D05"/>
<path d="M148.988 35.7139C149.778 35.7139 150.602 35.4116 150.756 34.8556L151.053 33.8034L151.761 33.3183L151.821 33.3855C151.703 33.7489 151.627 34.1244 151.595 34.5049C151.582 34.6568 151.607 34.8095 151.665 34.9503C151.724 35.0912 151.817 35.216 151.934 35.3146C152.303 35.5797 152.753 35.7114 153.208 35.6877H153.393V36.9339H153.156C152.151 36.9339 151.392 36.6727 151.042 35.9414H151C150.651 36.5944 149.842 36.9339 148.958 36.9339H148.762C148.67 36.9447 148.578 36.9358 148.489 36.9076C148.401 36.8794 148.321 36.8327 148.252 36.7708C148.184 36.7088 148.13 36.633 148.094 36.5485C148.058 36.4639 148.041 36.3727 148.044 36.281C148.044 36.0496 148.205 35.6877 148.762 35.6877L148.988 35.7139ZM150.147 40.8333C149.725 40.4601 149.357 40.1392 148.946 39.8183C149.195 39.4911 149.466 39.1819 149.759 38.893C150.177 39.2092 150.568 39.5586 150.929 39.9377C150.703 40.2642 150.44 40.5646 150.147 40.8333ZM152.129 40.7064C151.707 40.3333 151.339 40.0123 150.929 39.6914C151.177 39.3643 151.449 39.055 151.741 38.7661C152.159 39.0833 152.55 39.4326 152.911 39.8108C152.686 40.1426 152.424 40.448 152.129 40.7213V40.7064Z" fill="#ED6D05"/>
<path d="M163.906 36.9602H163.65C162.375 36.9602 161.791 36.587 161.536 36.0459H161.471C161.264 36.3168 161 36.5392 160.696 36.6972C160.392 36.8552 160.058 36.9449 159.715 36.9602C159.458 36.9933 159.199 36.9278 158.989 36.7774C158.779 36.6268 158.635 36.4026 158.586 36.1504H158.545C158.324 36.4028 158.052 36.6056 157.745 36.7452C157.439 36.8848 157.106 36.9582 156.77 36.9602C156.648 36.9764 156.526 36.9673 156.409 36.9335C156.292 36.8996 156.183 36.8418 156.091 36.7637C155.997 36.6855 155.922 36.5889 155.87 36.48C155.817 36.3712 155.788 36.2525 155.784 36.1318H155.742C155.459 36.4178 155.117 36.6398 154.739 36.7827C154.361 36.9257 153.956 36.9862 153.553 36.9602H153.38C153.288 36.9709 153.195 36.9619 153.107 36.9337C153.019 36.9055 152.938 36.8589 152.87 36.7969C152.802 36.7349 152.748 36.6591 152.712 36.5746C152.676 36.4901 152.659 36.3988 152.661 36.3071C152.661 36.0758 152.823 35.7139 153.38 35.7139H153.73C154.663 35.7139 155.381 35.4713 155.897 34.8071L156.408 34.0608L157.198 33.7997L157.24 33.8481C156.863 34.49 156.574 34.9676 156.574 35.24C156.574 35.3091 156.59 35.3774 156.619 35.4404C156.647 35.5034 156.689 35.5597 156.741 35.6057C156.793 35.6517 156.855 35.6865 156.921 35.7076C156.987 35.7289 157.057 35.7361 157.127 35.7288C157.449 35.7263 157.762 35.6245 158.022 35.4377C158.313 35.211 158.542 34.9161 158.688 34.5795L158.937 34.0049L159.715 33.6616L159.756 33.7026C159.52 34.1568 159.378 34.6526 159.335 35.1616C159.333 35.2371 159.346 35.3124 159.374 35.3826C159.402 35.4528 159.444 35.5166 159.498 35.5698C159.552 35.6231 159.616 35.6647 159.687 35.692C159.759 35.7194 159.835 35.7319 159.911 35.7288C160.163 35.731 160.41 35.6568 160.618 35.5161C160.926 35.2876 161.139 34.9541 161.216 34.5795C161.257 34.4228 161.318 34.2399 161.419 33.8109L162.202 33.3108L162.243 33.3407C162.098 33.7727 162.011 34.2218 161.983 34.6765C161.983 35.4452 162.695 35.7288 163.669 35.7288H163.894L163.906 36.9602Z" fill="#ED6D05"/>
<path d="M164.109 35.7138C164.524 35.7036 164.932 35.6003 165.301 35.4115C165.61 35.2474 165.794 34.934 165.794 34.2437C165.794 32.2847 165.681 30.5122 165.528 28.2735L165.497 27.7884L166.411 26.9115H166.464C166.656 29.2025 166.667 31.5869 166.667 34.5682C166.667 35.016 166.995 35.6877 168.172 35.6877H168.307V36.934H168.089C167.133 36.934 166.415 36.6242 166.088 35.9004H166.047C165.84 36.2337 165.548 36.5058 165.198 36.6877C164.849 36.8696 164.457 36.9547 164.064 36.934H163.891C163.799 36.9447 163.706 36.9357 163.617 36.9075C163.53 36.8794 163.449 36.8328 163.381 36.7708C163.313 36.7087 163.258 36.633 163.223 36.5484C163.187 36.4639 163.169 36.3726 163.172 36.2809C163.172 36.0496 163.334 35.6877 163.891 35.6877L164.109 35.7138Z" fill="#ED6D05"/>
<path d="M168.545 35.7138C168.945 35.7222 169.34 35.6312 169.696 35.4489C169.879 35.3439 170.028 35.1889 170.124 35.0023C170.221 34.8157 170.262 34.6055 170.241 34.3967C170.219 32.8407 170.106 31.1354 169.944 29.3444C169.903 28.8928 169.839 28.4862 169.839 28.1242C169.855 27.8757 169.965 27.6424 170.148 27.4712C170.32 27.278 170.509 27.0995 170.711 26.9376L170.787 26.9862C170.765 27.6167 171.085 28.3779 171.618 29.2249C171.413 29.4035 171.197 29.5693 170.971 29.7213C171.013 30.8407 171.103 32.0198 171.103 33.1019C171.154 33.9367 171.014 34.7722 170.693 35.5459C170.535 36.022 170.202 36.4216 169.76 36.6653C169.357 36.8535 168.918 36.9527 168.474 36.9564H168.319C168.227 36.9671 168.134 36.9581 168.046 36.9299C167.958 36.9018 167.877 36.8552 167.809 36.7932C167.741 36.7311 167.687 36.6554 167.651 36.5708C167.615 36.4863 167.598 36.395 167.601 36.3033C167.604 36.216 167.625 36.1302 167.665 36.0518C167.704 35.9732 167.759 35.9037 167.826 35.8477C167.894 35.7918 167.973 35.7506 168.058 35.7269C168.143 35.7032 168.232 35.6975 168.319 35.7101L168.545 35.7138Z" fill="#ED6D05"/>
<path d="M180.543 32.1094C181.125 32.5458 181.663 33.0355 182.152 33.5721C182.668 34.1057 182.973 34.5833 183.405 35.0982C183.599 35.2989 183.833 35.4573 184.092 35.5633C184.352 35.6693 184.63 35.7206 184.91 35.7139H185.057V36.9601H184.854C184.511 36.9736 184.171 36.8967 183.868 36.7375C183.564 36.5782 183.308 36.3422 183.128 36.0534L183.067 36.0758C182.984 36.8221 182.42 37.546 181.75 37.546C180.336 37.546 179.174 36.1989 179.143 34.5236C178.324 35.1281 177.944 35.643 177.944 36.046C178.009 36.7734 178.178 37.4879 178.443 38.1691C179 39.8034 179.535 41.4117 179.535 41.9005C179.517 42.3848 179.444 42.8655 179.316 43.3333H179.196C178.897 42.1643 178.52 41.0162 178.068 39.8968C177.582 38.6393 177.195 37.4788 177.195 36.7661C177.202 36.3641 177.264 35.965 177.379 35.5795C177.542 34.9288 177.903 34.3437 178.414 33.9042C179.166 33.2623 179.918 32.6579 180.449 32.1019L180.543 32.1094ZM179.812 34.1729C179.816 34.4768 179.888 34.7761 180.022 35.0492C180.158 35.3222 180.352 35.562 180.592 35.7512C180.939 36.0604 181.389 36.2306 181.855 36.2288C182.232 36.2288 182.521 36.0758 182.521 35.8557C182.481 35.573 182.349 35.3111 182.145 35.1094C181.646 34.478 181.058 33.9202 180.4 33.4527C180.253 33.6093 179.812 33.893 179.812 34.1729Z" fill="#ED6D05"/>
<path d="M185.294 35.7139C186.084 35.7139 186.908 35.4116 187.062 34.8556L187.359 33.8034L188.067 33.3183L188.131 33.3855C188.01 33.7484 187.933 34.1241 187.901 34.5049C187.889 34.6568 187.913 34.8095 187.972 34.9503C188.03 35.0912 188.123 35.216 188.24 35.3146C188.609 35.5797 189.059 35.7114 189.515 35.6877H189.699V36.9339H189.462C188.457 36.9339 187.698 36.6727 187.348 35.9414H187.315C186.964 36.5944 186.156 36.9339 185.272 36.9339H185.057C184.965 36.9447 184.872 36.9358 184.784 36.9076C184.696 36.8794 184.616 36.8327 184.547 36.7708C184.478 36.7088 184.425 36.633 184.389 36.5485C184.353 36.4639 184.336 36.3727 184.339 36.281C184.342 36.1936 184.364 36.1078 184.402 36.0293C184.442 35.9508 184.497 35.8814 184.564 35.8254C184.632 35.7694 184.711 35.7282 184.795 35.7045C184.881 35.6807 184.969 35.675 185.057 35.6877L185.294 35.7139ZM186.453 40.8333C186.035 40.4601 185.663 40.1392 185.252 39.8183C185.502 39.492 185.773 39.1829 186.065 38.893C186.484 39.2082 186.875 39.5576 187.235 39.9377C187.01 40.2651 186.747 40.5655 186.453 40.8333ZM188.436 40.7064C188.014 40.3333 187.645 40.0123 187.235 39.6914C187.49 39.3688 187.768 39.0645 188.067 38.781C188.484 39.0972 188.876 39.4467 189.237 39.8258C189.007 40.1528 188.74 40.4532 188.443 40.7213L188.436 40.7064Z" fill="#ED6D05"/>
<path d="M189.905 35.7138C190.319 35.7036 190.726 35.6002 191.094 35.4115C191.403 35.2474 191.587 34.934 191.587 34.2437C191.587 32.2847 191.475 30.5122 191.32 28.2735L191.29 27.7884L192.204 26.9115H192.257C192.452 29.2025 192.46 31.5869 192.46 34.5682C192.46 35.016 192.791 35.6877 193.965 35.6877H194.1V36.934H193.882C192.93 36.934 192.208 36.6242 191.881 35.9004H191.839C191.634 36.234 191.341 36.5062 190.991 36.6882C190.643 36.8701 190.25 36.955 189.856 36.934H189.683C189.592 36.9447 189.499 36.9357 189.411 36.9075C189.322 36.8794 189.241 36.8328 189.173 36.7708C189.105 36.7087 189.052 36.633 189.016 36.5484C188.979 36.4639 188.962 36.3726 188.965 36.2809C188.969 36.1936 188.99 36.1078 189.029 36.0294C189.068 35.9508 189.123 35.8813 189.191 35.8253C189.259 35.7694 189.337 35.7282 189.422 35.7045C189.508 35.6808 189.596 35.6751 189.683 35.6877L189.905 35.7138Z" fill="#ED6D05"/>
<path d="M194.737 35.7137C196.4 35.7137 198.123 35.1578 200.222 33.9488V33.9115C199.192 33.509 198.104 33.2783 196.998 33.2287C196.758 33.2128 196.518 33.2482 196.293 33.3326C196.069 33.4169 195.865 33.5482 195.697 33.7175L195.817 34.2025L195.512 35.0794H195.406L194.907 33.7958C194.985 32.7138 195.899 32.0421 197.134 32.0421C197.822 32.0421 198.898 32.2734 200.519 32.8891C201.083 33.09 201.677 33.1947 202.276 33.1989H203.108L203.137 33.2175L202.596 34.2399C201.979 34.1966 201.363 34.326 200.817 34.613L199.105 35.6728C197.779 36.5195 196.236 36.9726 194.658 36.9787H194.124C194.032 36.9895 193.939 36.9805 193.851 36.9523C193.763 36.9241 193.683 36.8775 193.613 36.8155C193.545 36.7536 193.492 36.6777 193.456 36.5932C193.42 36.5087 193.403 36.4174 193.406 36.3257C193.406 36.0944 193.567 35.7325 194.124 35.7325L194.737 35.7137ZM197.87 38.4115C198.312 38.721 198.723 39.0694 199.101 39.4526C198.871 39.8141 198.584 40.1366 198.251 40.4078C197.849 40.0347 197.449 39.7362 197.039 39.4041C197.314 39.0534 197.593 38.7138 197.87 38.4115Z" fill="#ED6D05"/>
</g>
<defs>
<linearGradient id="paint0_linear_288_3369" x1="229.851" y1="-13.0328" x2="249.881" y2="34.9485" gradientUnits="userSpaceOnUse">
<stop stop-color="#F09005"/>
<stop offset="0.39" stop-color="#EE8F06"/>
<stop offset="0.53" stop-color="#E78C0A"/>
<stop offset="0.64" stop-color="#DC8611"/>
<stop offset="0.72" stop-color="#CB7D1C"/>
<stop offset="0.79" stop-color="#B57329"/>
<stop offset="0.85" stop-color="#996539"/>
<stop offset="0.9" stop-color="#79554D"/>
<stop offset="0.95" stop-color="#554363"/>
<stop offset="1" stop-color="#2C2F7B"/>
</linearGradient>
<linearGradient id="paint1_linear_288_3369" x1="257.461" y1="16.5545" x2="260.834" y2="24.6297" gradientUnits="userSpaceOnUse">
<stop stop-color="#F09005"/>
<stop offset="0.49" stop-color="#F08E06"/>
<stop offset="0.67" stop-color="#EF8708"/>
<stop offset="0.8" stop-color="#ED7C0D"/>
<stop offset="0.9" stop-color="#EB6B13"/>
<stop offset="0.98" stop-color="#E8551B"/>
<stop offset="1" stop-color="#E7511D"/>
</linearGradient>
<linearGradient id="paint2_linear_288_3369" x1="235.661" y1="-15.4904" x2="255.701" y2="32.5159" gradientUnits="userSpaceOnUse">
<stop stop-color="#F09005"/>
<stop offset="0.49" stop-color="#F08E06"/>
<stop offset="0.67" stop-color="#EF8708"/>
<stop offset="0.8" stop-color="#ED7C0D"/>
<stop offset="0.9" stop-color="#EB6B13"/>
<stop offset="0.98" stop-color="#E8551B"/>
<stop offset="1" stop-color="#E7511D"/>
</linearGradient>
<linearGradient id="paint3_linear_288_3369" x1="226.729" y1="-11.7342" x2="246.762" y2="36.2533" gradientUnits="userSpaceOnUse">
<stop stop-color="#F09005"/>
<stop offset="0.49" stop-color="#F08E06"/>
<stop offset="0.67" stop-color="#EF8708"/>
<stop offset="0.8" stop-color="#ED7C0D"/>
<stop offset="0.9" stop-color="#EB6B13"/>
<stop offset="0.98" stop-color="#E8551B"/>
<stop offset="1" stop-color="#E7511D"/>
</linearGradient>
<linearGradient id="paint4_linear_288_3369" x1="220.481" y1="-9.44519" x2="240.515" y2="38.5424" gradientUnits="userSpaceOnUse">
<stop stop-color="#F09005"/>
<stop offset="0.49" stop-color="#F08E06"/>
<stop offset="0.67" stop-color="#EF8708"/>
<stop offset="0.8" stop-color="#ED7C0D"/>
<stop offset="0.9" stop-color="#EB6B13"/>
<stop offset="0.98" stop-color="#E8551B"/>
<stop offset="1" stop-color="#E7511D"/>
</linearGradient>
<clipPath id="clip0_288_3369">
<rect width="263" height="52" fill="white"/>
</clipPath>
</defs>
</svg>
