<svg width="92" height="23" viewBox="0 0 92 23" fill="none" xmlns="http://www.w3.org/2000/svg">
<path d="M22.7709 6.9001C22.7709 6.9001 22.5463 5.31436 21.8545 4.61807C20.9785 3.70166 19.9992 3.69717 19.55 3.64326C16.3336 3.40967 11.5045 3.40967 11.5045 3.40967H11.4955C11.4955 3.40967 6.66641 3.40967 3.45 3.64326C3.00078 3.69717 2.02148 3.70166 1.14551 4.61807C0.453711 5.31436 0.233594 6.9001 0.233594 6.9001C0.233594 6.9001 0 8.76436 0 10.6241V12.3671C0 14.2269 0.229102 16.0911 0.229102 16.0911C0.229102 16.0911 0.453711 17.6769 1.14102 18.3731C2.01699 19.2896 3.16699 19.2581 3.6791 19.3569C5.5209 19.5321 11.5 19.586 11.5 19.586C11.5 19.586 16.3336 19.5771 19.55 19.3479C19.9992 19.294 20.9785 19.2896 21.8545 18.3731C22.5463 17.6769 22.7709 16.0911 22.7709 16.0911C22.7709 16.0911 23 14.2313 23 12.3671V10.6241C23 8.76436 22.7709 6.9001 22.7709 6.9001ZM9.12363 14.4829V8.01865L15.3363 11.262L9.12363 14.4829Z" fill="white"/>
<g clip-path="url(#clip0_288_2808)">
<path d="M46 2.0709C49.2063 2.0709 49.5859 2.08437 50.8469 2.13828C52.0188 2.1877 52.6516 2.37637 53.0734 2.53359C53.6313 2.74023 54.0344 2.9918 54.4516 3.3916C54.8734 3.7959 55.1313 4.17773 55.3469 4.7123C55.5109 5.1166 55.7078 5.72754 55.7594 6.84609C55.8156 8.05898 55.8297 8.42285 55.8297 11.491C55.8297 14.5637 55.8156 14.9275 55.7594 16.1359C55.7078 17.259 55.5109 17.8654 55.3469 18.2697C55.1313 18.8043 54.8687 19.1906 54.4516 19.5904C54.0297 19.9947 53.6313 20.2418 53.0734 20.4484C52.6516 20.6057 52.0141 20.7943 50.8469 20.8438C49.5813 20.8977 49.2016 20.9111 46 20.9111C42.7938 20.9111 42.4141 20.8977 41.1531 20.8438C39.9813 20.7943 39.3484 20.6057 38.9266 20.4484C38.3688 20.2418 37.9656 19.9902 37.5484 19.5904C37.1266 19.1861 36.8688 18.8043 36.6531 18.2697C36.4891 17.8654 36.2922 17.2545 36.2406 16.1359C36.1844 14.923 36.1703 14.5592 36.1703 11.491C36.1703 8.41836 36.1844 8.05449 36.2406 6.84609C36.2922 5.72305 36.4891 5.1166 36.6531 4.7123C36.8688 4.17773 37.1313 3.79141 37.5484 3.3916C37.9703 2.9873 38.3688 2.74023 38.9266 2.53359C39.3484 2.37637 39.9859 2.1877 41.1531 2.13828C42.4141 2.08437 42.7938 2.0709 46 2.0709ZM46 0C42.7422 0 42.3344 0.0134766 41.0547 0.0673828C39.7797 0.121289 38.9031 0.318945 38.1438 0.601953C37.3516 0.898437 36.6813 1.28926 36.0156 1.93164C35.3453 2.56953 34.9375 3.21191 34.6281 3.9666C34.3328 4.69883 34.1266 5.53437 34.0703 6.75625C34.0141 7.98711 34 8.37793 34 11.5C34 14.6221 34.0141 15.0129 34.0703 16.2393C34.1266 17.4611 34.3328 18.3012 34.6281 19.0289C34.9375 19.7881 35.3453 20.4305 36.0156 21.0684C36.6813 21.7062 37.3516 22.1016 38.1391 22.3936C38.9031 22.6766 39.775 22.8742 41.05 22.9281C42.3297 22.982 42.7375 22.9955 45.9953 22.9955C49.2531 22.9955 49.6609 22.982 50.9406 22.9281C52.2156 22.8742 53.0922 22.6766 53.8516 22.3936C54.6391 22.1016 55.3094 21.7062 55.975 21.0684C56.6406 20.4305 57.0531 19.7881 57.3578 19.0334C57.6531 18.3012 57.8594 17.4656 57.9156 16.2437C57.9719 15.0174 57.9859 14.6266 57.9859 11.5045C57.9859 8.38242 57.9719 7.9916 57.9156 6.76523C57.8594 5.54336 57.6531 4.70332 57.3578 3.97559C57.0625 3.21191 56.6547 2.56953 55.9844 1.93164C55.3188 1.29375 54.6484 0.898438 53.8609 0.606445C53.0969 0.323437 52.225 0.125781 50.95 0.071875C49.6656 0.0134766 49.2578 0 46 0Z" fill="white"/>
<path d="M46 5.59277C42.5969 5.59277 39.8359 8.23867 39.8359 11.5C39.8359 14.7613 42.5969 17.4072 46 17.4072C49.4031 17.4072 52.1641 14.7613 52.1641 11.5C52.1641 8.23867 49.4031 5.59277 46 5.59277ZM46 15.3318C43.7922 15.3318 42.0016 13.6158 42.0016 11.5C42.0016 9.38418 43.7922 7.66816 46 7.66816C48.2078 7.66816 49.9984 9.38418 49.9984 11.5C49.9984 13.6158 48.2078 15.3318 46 15.3318Z" fill="white"/>
<path d="M53.8469 5.35908C53.8469 6.12276 53.2 6.73819 52.4078 6.73819C51.6109 6.73819 50.9688 6.11826 50.9688 5.35908C50.9688 4.59541 51.6156 3.97998 52.4078 3.97998C53.2 3.97998 53.8469 4.5999 53.8469 5.35908Z" fill="white"/>
</g>
<g clip-path="url(#clip1_288_2808)">
<path d="M80.5 0C74.1488 0 69 5.14878 69 11.5C69 16.893 72.7131 21.4185 77.7221 22.6614V15.0144H75.3508V11.5H77.7221V9.98568C77.7221 6.07154 79.4935 4.2573 83.3364 4.2573C84.065 4.2573 85.3222 4.40036 85.8365 4.54296V7.72846C85.5651 7.69994 85.0936 7.68568 84.508 7.68568C82.6224 7.68568 81.8938 8.40006 81.8938 10.2571V11.5H85.6502L85.0048 15.0144H81.8938V22.9158C87.5881 22.2281 92.0005 17.3797 92.0005 11.5C92 5.14878 86.8512 0 80.5 0Z" fill="white"/>
</g>
<defs>
<clipPath id="clip0_288_2808">
<rect width="24" height="23" fill="white" transform="translate(34)"/>
</clipPath>
<clipPath id="clip1_288_2808">
<rect width="23" height="23" fill="white" transform="translate(69)"/>
</clipPath>
</defs>
</svg>
