<svg width="64" height="64" viewBox="0 0 64 64" fill="none" xmlns="http://www.w3.org/2000/svg">
<path d="M48 50.2933H45.9733C43.84 50.2933 41.8133 51.1199 40.32 52.6132L35.7599 57.1199C33.6799 59.1732 30.2934 59.1732 28.2134 57.1199L23.6533 52.6132C22.16 51.1199 20.1067 50.2933 18 50.2933H16C11.5733 50.2933 8 46.7467 8 42.3733V13.2799C8 8.90657 11.5733 5.35999 16 5.35999H48C52.4267 5.35999 56 8.90657 56 13.2799V42.3733C56 46.72 52.4267 50.2933 48 50.2933Z" stroke="#F16333" stroke-width="4" stroke-miterlimit="10" stroke-linecap="round" stroke-linejoin="round"/>
<path d="M32 26.6667C35.4315 26.6667 38.2134 23.8849 38.2134 20.4533C38.2134 17.0218 35.4315 14.2401 32 14.2401C28.5685 14.2401 25.7866 17.0218 25.7866 20.4533C25.7866 23.8849 28.5685 26.6667 32 26.6667Z" stroke="#FEFEFE" stroke-width="4" stroke-linecap="round" stroke-linejoin="round"/>
<path d="M42.6667 41.76C42.6667 36.96 37.8934 33.0668 32 33.0668C26.1067 33.0668 21.3334 36.96 21.3334 41.76" stroke="#FEFEFE" stroke-width="4" stroke-linecap="round" stroke-linejoin="round"/>
</svg>
