<svg width="56" height="56" viewBox="0 0 56 56" fill="none" xmlns="http://www.w3.org/2000/svg">
<path d="M49.1867 20.0201V35.98C49.1867 38.5934 47.7867 41.0201 45.5234 42.3501L31.6634 50.3534C29.4 51.6601 26.6 51.6601 24.3134 50.3534L10.4534 42.3501C8.19004 41.0435 6.79004 38.6167 6.79004 35.98V20.0201C6.79004 17.4068 8.19004 14.98 10.4534 13.65L24.3134 5.64669C26.5767 4.34002 29.3767 4.34002 31.6634 5.64669L45.5234 13.65C47.7867 14.98 49.1867 17.3834 49.1867 20.0201Z" stroke="#103C55" stroke-width="4" stroke-linecap="round" stroke-linejoin="round"/>
<path d="M27.9999 25.6667C31.0025 25.6667 33.4366 23.2325 33.4366 20.23C33.4366 17.2274 31.0025 14.7934 27.9999 14.7934C24.9973 14.7934 22.5632 17.2274 22.5632 20.23C22.5632 23.2325 24.9973 25.6667 27.9999 25.6667Z" stroke="#FFBD00" stroke-width="3" stroke-linecap="round" stroke-linejoin="round"/>
<path d="M37.3333 38.8733C37.3333 34.6733 33.1566 31.2667 28 31.2667C22.8433 31.2667 18.6666 34.6733 18.6666 38.8733" stroke="#FFBD00" stroke-width="3" stroke-linecap="round" stroke-linejoin="round"/>
</svg>
