<svg width="414" height="34" viewBox="0 0 414 34" fill="none" xmlns="http://www.w3.org/2000/svg">
<g opacity="0.7">
<path d="M400.75 7.44995C401.45 6.85995 402.58 6.85995 403.26 7.44995L404.84 8.79995C405.14 9.04995 405.71 9.25995 406.11 9.25995H407.81C408.87 9.25995 409.74 10.1299 409.74 11.1899V12.8899C409.74 13.2899 409.95 13.8499 410.2 14.1499L411.55 15.7299C412.14 16.4299 412.14 17.5599 411.55 18.2399L410.2 19.8199C409.95 20.1199 409.74 20.6799 409.74 21.0799V22.7799C409.74 23.8399 408.87 24.7099 407.81 24.7099H406.11C405.71 24.7099 405.15 24.9199 404.85 25.1699L403.27 26.5199C402.57 27.1099 401.44 27.1099 400.76 26.5199L399.18 25.1699C398.88 24.9199 398.31 24.7099 397.92 24.7099H396.17C395.11 24.7099 394.24 23.8399 394.24 22.7799V21.0699C394.24 20.6799 394.04 20.1099 393.79 19.8199L392.44 18.2299C391.86 17.5399 391.86 16.4199 392.44 15.7299L393.79 14.1399C394.04 13.8399 394.24 13.2799 394.24 12.8899V11.1999C394.24 10.1399 395.11 9.26995 396.17 9.26995H397.9C398.3 9.26995 398.86 9.05995 399.16 8.80995L400.75 7.44995Z" stroke="#F16333" stroke-width="1.5" stroke-linecap="round" stroke-linejoin="round"/>
<path d="M402 13.13V17.96" stroke="#F16333" stroke-width="1.5" stroke-linecap="round" stroke-linejoin="round"/>
<path d="M401.995 21H402.003" stroke="#F16333" stroke-width="2" stroke-linecap="round" stroke-linejoin="round"/>
</g>
<path opacity="0.7" d="M12.9223 22.168C11.9237 22.168 11.0837 22.112 10.4023 22C9.72099 21.8973 9.17033 21.7293 8.75033 21.496C8.33033 21.2533 8.02699 20.9407 7.84033 20.558C7.66299 20.166 7.57433 19.69 7.57433 19.13C7.57433 18.3833 7.76566 17.548 8.14833 16.624L9.22633 16.946C9.04899 17.3193 8.91366 17.6647 8.82033 17.982C8.72699 18.29 8.68033 18.5793 8.68033 18.85C8.68033 19.4287 8.93699 19.844 9.45033 20.096C9.97299 20.348 10.8223 20.474 11.9983 20.474H13.9583C14.6303 20.474 15.181 20.46 15.6103 20.432C16.0397 20.3947 16.3757 20.334 16.6183 20.25C16.8703 20.1567 17.043 20.0353 17.1363 19.886C17.239 19.7367 17.2903 19.5453 17.2903 19.312V17.184H18.5083V19.312C18.5083 20.0493 18.8957 20.418 19.6703 20.418H20.1323V21.664L19.7963 22C18.4617 22 17.673 21.4587 17.4303 20.376H17.3603C17.295 20.7213 17.1737 21.0107 16.9963 21.244C16.8283 21.468 16.5717 21.65 16.2263 21.79C15.8903 21.93 15.4517 22.028 14.9103 22.084C14.3783 22.14 13.7157 22.168 12.9223 22.168ZM12.8523 24.898C12.6377 24.898 12.465 24.8327 12.3343 24.702C12.213 24.5713 12.1523 24.3707 12.1523 24.1C12.1523 23.82 12.213 23.6147 12.3343 23.484C12.465 23.3627 12.6377 23.302 12.8523 23.302H13.0623C13.277 23.302 13.4497 23.3627 13.5803 23.484C13.711 23.6147 13.7763 23.82 13.7763 24.1C13.7763 24.3707 13.711 24.5713 13.5803 24.702C13.4497 24.8327 13.277 24.898 13.0623 24.898H12.8523ZM19.8027 20.754L20.1387 20.418H20.5727C21.3473 20.418 21.7347 20.0493 21.7347 19.312V11.64H23.0367V19.312C23.0367 20.0493 23.4053 20.418 24.1427 20.418H24.6327V21.664L24.2967 22C23.5967 22 23.046 21.874 22.6447 21.622C22.2527 21.3607 21.996 20.9547 21.8747 20.404H21.7907C21.6787 20.9827 21.4733 21.3933 21.1747 21.636C20.876 21.8787 20.4187 22 19.8027 22V20.754ZM34.1987 22C33.8441 22 33.5361 21.9673 33.2747 21.902C33.0134 21.8273 32.7707 21.6967 32.5467 21.51C32.0147 21.8367 31.2634 22 30.2927 22H24.3007V20.754L24.6367 20.418H25.3087L25.7707 19.648V11.64H27.0867V16.106L26.9187 17.744L26.9887 17.786C27.5394 17.1047 28.1087 16.6287 28.6967 16.358C29.2941 16.078 29.9427 15.938 30.6427 15.938C31.6321 15.938 32.3881 16.2133 32.9107 16.764C33.4334 17.3053 33.6947 18.0567 33.6947 19.018C33.6947 19.5407 33.6247 19.984 33.4847 20.348C33.5967 20.376 33.7087 20.3947 33.8207 20.404C33.9421 20.4133 34.0681 20.418 34.1987 20.418H34.5347V21.664L34.1987 22ZM30.2927 20.418C31.0767 20.418 31.6461 20.32 32.0007 20.124C32.3554 19.928 32.5327 19.5687 32.5327 19.046C32.5327 18.038 31.9727 17.534 30.8527 17.534H30.4327C30.0407 17.534 29.6907 17.562 29.3827 17.618C29.0747 17.674 28.7854 17.772 28.5147 17.912C28.2534 18.052 28.0061 18.2433 27.7727 18.486C27.5394 18.7287 27.2967 19.0367 27.0447 19.41L26.4427 20.334L26.4847 20.418H30.2927ZM34.1992 20.754L34.5352 20.418H35.0252C35.4358 20.418 35.7205 20.3293 35.8792 20.152C36.0472 19.9747 36.1312 19.6947 36.1312 19.312V11.64H37.4472V19.312C37.4472 20.236 37.2605 20.9173 36.8872 21.356C36.5138 21.7853 35.8932 22 35.0252 22H34.1992V20.754ZM39.384 11.64H40.686V22H39.384V11.64ZM45.6808 22.742C45.6808 21.7247 45.9001 20.978 46.3388 20.502C46.7775 20.0167 47.4541 19.774 48.3688 19.774H51.3648C51.3461 19.074 51.1828 18.5327 50.8748 18.15C50.5761 17.758 50.1701 17.562 49.6568 17.562C49.2648 17.562 48.9381 17.66 48.6768 17.856C48.4248 18.052 48.2101 18.3273 48.0328 18.682L46.9268 18.038C47.0388 17.6927 47.1881 17.3893 47.3748 17.128C47.5708 16.8667 47.7901 16.652 48.0328 16.484C48.2755 16.316 48.5321 16.19 48.8028 16.106C49.0828 16.022 49.3628 15.98 49.6428 15.98C50.5481 15.98 51.2528 16.3207 51.7568 17.002C52.2701 17.6833 52.5268 18.6493 52.5268 19.9V21.37H48.3688C47.8461 21.37 47.4821 21.4727 47.2768 21.678C47.0715 21.8833 46.9688 22.2473 46.9688 22.77V26.256H45.6808V22.742ZM53.5496 23.778H54.3616C55.3416 23.778 56.1069 23.6193 56.6576 23.302C57.2082 22.994 57.5722 22.56 57.7496 22H56.0696C55.3136 22 54.7256 21.7947 54.3056 21.384C53.8949 20.9733 53.6896 20.39 53.6896 19.634C53.6896 19.186 53.7549 18.766 53.8856 18.374C54.0256 17.982 54.2122 17.646 54.4456 17.366C54.6882 17.0767 54.9729 16.848 55.2996 16.68C55.6262 16.512 55.9856 16.428 56.3776 16.428C57.1989 16.428 57.8382 16.778 58.2956 17.478C58.7622 18.178 59.0049 19.158 59.0236 20.418H59.6816V21.664L59.3456 22H58.8696C58.6362 23.0733 58.1462 23.8993 57.3996 24.478C56.6622 25.066 55.6682 25.36 54.4176 25.36H53.5496V23.778ZM54.8516 19.438C54.8516 19.7833 54.9589 20.0353 55.1736 20.194C55.3882 20.3433 55.7056 20.418 56.1256 20.418H57.8616V20.152C57.8616 19.508 57.7122 18.9947 57.4136 18.612C57.1149 18.22 56.7276 18.024 56.2516 18.024C55.8222 18.024 55.4816 18.1547 55.2296 18.416C54.9776 18.6773 54.8516 19.018 54.8516 19.438ZM59.3417 20.754L59.6777 20.418H59.9577C60.1537 20.418 60.3264 20.404 60.4757 20.376C60.6251 20.348 60.7557 20.2967 60.8677 20.222C60.9797 20.1473 61.0824 20.0493 61.1757 19.928C61.2691 19.8067 61.3624 19.6527 61.4557 19.466L62.0297 18.304L63.0797 18.836L62.4357 20.082L62.5337 20.138C62.8137 20.2967 63.0844 20.4133 63.3457 20.488C63.6071 20.5627 63.8731 20.6 64.1437 20.6C64.5637 20.6 64.8717 20.5067 65.0677 20.32C65.2637 20.124 65.3617 19.788 65.3617 19.312V18.304H66.5797V19.312C66.5797 19.7693 66.6497 20.096 66.7897 20.292C66.9297 20.4787 67.1491 20.572 67.4477 20.572H67.6577C68.1897 20.572 68.4557 20.2687 68.4557 19.662C68.4557 19.3633 68.4137 18.934 68.3297 18.374L68.2037 17.632L69.4077 17.45L69.5197 18.178C69.5571 18.458 69.5851 18.724 69.6037 18.976C69.6224 19.228 69.6317 19.4567 69.6317 19.662C69.6317 20.4833 69.4544 21.1087 69.0997 21.538C68.7544 21.958 68.2364 22.168 67.5457 22.168C66.9484 22.168 66.4864 22.0327 66.1597 21.762C65.8331 21.4913 65.6184 21.0807 65.5157 20.53H65.4317C65.2731 21.622 64.7551 22.168 63.8777 22.168C63.6071 22.168 63.3271 22.1167 63.0377 22.014C62.7577 21.9113 62.4217 21.7433 62.0297 21.51L61.6517 21.286C61.3811 21.5753 61.0637 21.7667 60.6997 21.86C60.3451 21.9533 59.8924 22 59.3417 22V20.754ZM69.3377 23.778H69.8697C70.3457 23.778 70.7424 23.7173 71.0597 23.596C71.3771 23.4747 71.6337 23.302 71.8297 23.078C72.0257 22.8633 72.1657 22.602 72.2497 22.294C72.3337 21.986 72.3757 21.6407 72.3757 21.258C72.3757 21.006 72.3617 20.7447 72.3337 20.474C72.3057 20.2033 72.2684 19.9327 72.2217 19.662L71.9277 17.968L73.1317 17.744L73.3277 18.92C73.4864 19.8253 73.5657 20.6 73.5657 21.244C73.5657 21.8227 73.4957 22.3593 73.3557 22.854C73.2251 23.358 73.0104 23.7967 72.7117 24.17C72.4131 24.5433 72.0304 24.8327 71.5637 25.038C71.0971 25.2527 70.5371 25.36 69.8837 25.36H69.3377V23.778ZM82.4362 25.36C81.0175 25.36 79.9115 25.038 79.1182 24.394C78.3342 23.7593 77.9422 22.868 77.9422 21.72C77.9422 21.3 77.9982 20.838 78.1102 20.334C78.2315 19.83 78.3948 19.3353 78.6002 18.85L79.6642 19.172C79.4868 19.5547 79.3422 19.9467 79.2302 20.348C79.1182 20.7493 79.0622 21.1133 79.0622 21.44C79.0622 22.1493 79.3188 22.6953 79.8322 23.078C80.3455 23.47 81.0548 23.666 81.9602 23.666H82.9262C83.8595 23.666 84.6108 23.5167 85.1802 23.218C85.7588 22.9287 86.1228 22.518 86.2722 21.986L83.1222 21.538V19.928L84.8722 20.194C85.3575 20.2687 85.8008 20.3247 86.2022 20.362C86.6128 20.3993 86.9675 20.418 87.2662 20.418V21.104L87.4762 21.384C87.4762 22.0093 87.3595 22.5693 87.1262 23.064C86.9022 23.5587 86.5708 23.974 86.1322 24.31C85.7028 24.6553 85.1755 24.9167 84.5502 25.094C83.9342 25.2713 83.2295 25.36 82.4362 25.36ZM86.9316 20.754L87.2676 20.418H87.7016C88.4762 20.418 88.8636 20.0493 88.8636 19.312V11.64H90.1656V19.312C90.1656 20.0493 90.5342 20.418 91.2716 20.418H91.7616V21.664L91.4256 22C90.7256 22 90.1749 21.874 89.7736 21.622C89.3816 21.3607 89.1249 20.9547 89.0036 20.404H88.9196C88.8076 20.9827 88.6022 21.3933 88.3036 21.636C88.0049 21.8787 87.5476 22 86.9316 22V20.754ZM91.4296 20.754L91.7656 20.418H93.2496V20.348C92.979 20.1053 92.755 19.7973 92.5776 19.424C92.4096 19.0507 92.3256 18.6447 92.3256 18.206C92.3256 17.7767 92.4003 17.3753 92.5496 17.002C92.699 16.6287 92.8996 16.3113 93.1516 16.05C93.413 15.7793 93.7163 15.5693 94.0616 15.42C94.4163 15.2613 94.799 15.182 95.2096 15.182C95.8256 15.182 96.3483 15.3127 96.7776 15.574C97.2163 15.826 97.5756 16.1807 97.8556 16.638L96.8196 17.674C96.5956 17.3567 96.3436 17.128 96.0636 16.988C95.793 16.8387 95.4756 16.764 95.1116 16.764C94.589 16.764 94.183 16.8947 93.8936 17.156C93.6136 17.408 93.4736 17.758 93.4736 18.206C93.4736 18.71 93.679 19.1207 94.0896 19.438C94.5096 19.746 95.0556 19.9 95.7276 19.9C96.185 19.9 96.647 19.8347 97.1136 19.704L98.3456 19.382L98.7236 20.824L96.7916 21.37C96.3623 21.5007 95.9563 21.608 95.5736 21.692C95.2003 21.7667 94.8083 21.8273 94.3976 21.874C93.9963 21.9207 93.5576 21.9533 93.0816 21.972C92.6056 21.9907 92.055 22 91.4296 22V20.754ZM104.854 22L111.63 12.228H113.044L106.268 22H104.854ZM105.484 17.604C104.728 17.604 104.15 17.3707 103.748 16.904C103.347 16.428 103.146 15.7373 103.146 14.832C103.146 13.9267 103.347 13.2407 103.748 12.774C104.15 12.298 104.728 12.06 105.484 12.06C106.24 12.06 106.819 12.298 107.22 12.774C107.622 13.2407 107.822 13.9267 107.822 14.832C107.822 15.7373 107.622 16.428 107.22 16.904C106.819 17.3707 106.24 17.604 105.484 17.604ZM105.484 16.666C106.147 16.666 106.478 16.1853 106.478 15.224V14.44C106.478 13.4787 106.147 12.998 105.484 12.998C104.822 12.998 104.49 13.4787 104.49 14.44V15.224C104.49 16.1853 104.822 16.666 105.484 16.666ZM112.414 22.168C111.658 22.168 111.08 21.9347 110.678 21.468C110.277 20.992 110.076 20.3013 110.076 19.396C110.076 18.4907 110.277 17.8047 110.678 17.338C111.08 16.862 111.658 16.624 112.414 16.624C113.17 16.624 113.749 16.862 114.15 17.338C114.552 17.8047 114.752 18.4907 114.752 19.396C114.752 20.3013 114.552 20.992 114.15 21.468C113.749 21.9347 113.17 22.168 112.414 22.168ZM112.414 21.23C113.077 21.23 113.408 20.7493 113.408 19.788V19.004C113.408 18.0427 113.077 17.562 112.414 17.562C111.752 17.562 111.42 18.0427 111.42 19.004V19.788C111.42 20.7493 111.752 21.23 112.414 21.23ZM116.814 22V20.684H119.558V13.376H119.446L117.178 15.798L116.212 14.93L118.704 12.228H121.112V20.684H123.492V22H116.814ZM130.463 22.14C129.604 22.14 128.937 21.9067 128.461 21.44C127.994 20.964 127.761 20.3433 127.761 19.578C127.761 18.542 128.284 17.4873 129.329 16.414L129.721 15.994H131.317L131.667 16.33C132.208 16.862 132.591 17.3707 132.815 17.856C133.048 18.332 133.165 18.836 133.165 19.368C133.165 19.788 133.104 20.1707 132.983 20.516C132.862 20.852 132.684 21.1413 132.451 21.384C132.218 21.6267 131.933 21.8133 131.597 21.944C131.27 22.0747 130.892 22.14 130.463 22.14ZM130.603 20.558C131.023 20.558 131.359 20.4553 131.611 20.25C131.872 20.0353 132.003 19.7647 132.003 19.438C132.003 19.214 131.924 18.9807 131.765 18.738C131.616 18.486 131.345 18.1827 130.953 17.828L130.379 17.282H130.281L129.791 17.828C129.492 18.1547 129.273 18.43 129.133 18.654C128.993 18.878 128.923 19.116 128.923 19.368C128.923 19.6947 129.049 19.9747 129.301 20.208C129.562 20.4413 129.903 20.558 130.323 20.558H130.603ZM131.373 14.566C131.158 14.566 130.986 14.5007 130.855 14.37C130.734 14.2393 130.673 14.0387 130.673 13.768C130.673 13.488 130.734 13.2873 130.855 13.166C130.986 13.0353 131.158 12.97 131.373 12.97H131.583C131.798 12.97 131.97 13.0353 132.101 13.166C132.232 13.2873 132.297 13.488 132.297 13.768C132.297 14.0387 132.232 14.2393 132.101 14.37C131.97 14.5007 131.798 14.566 131.583 14.566H131.373ZM129.399 14.566C129.184 14.566 129.012 14.5007 128.881 14.37C128.76 14.2393 128.699 14.0387 128.699 13.768C128.699 13.488 128.76 13.2873 128.881 13.166C129.012 13.0353 129.184 12.97 129.399 12.97H129.609C129.824 12.97 129.996 13.0353 130.127 13.166C130.258 13.2873 130.323 13.488 130.323 13.768C130.323 14.0387 130.258 14.2393 130.127 14.37C129.996 14.5007 129.824 14.566 129.609 14.566H129.399ZM135.589 22C135.113 22 134.739 21.874 134.469 21.622C134.198 21.37 134.063 20.978 134.063 20.446V19.424H135.309V20.418H137.549C137.987 20.418 138.286 20.3293 138.445 20.152C138.613 19.9747 138.697 19.7507 138.697 19.48C138.697 19.2 138.589 18.9013 138.375 18.584C138.16 18.2667 137.791 17.856 137.269 17.352L135.841 15.882L136.975 14.734L138.263 16.134C138.571 16.4607 138.827 16.7687 139.033 17.058C139.247 17.338 139.42 17.6133 139.551 17.884C139.681 18.1453 139.775 18.4113 139.831 18.682C139.896 18.9433 139.929 19.228 139.929 19.536C139.929 20.3107 139.709 20.9173 139.271 21.356C138.832 21.7853 138.211 22 137.409 22H135.589ZM143.993 22C143.079 22 142.421 21.8133 142.019 21.44C141.618 21.0573 141.417 20.4227 141.417 19.536V11.64H142.719V19.41C142.719 19.802 142.808 20.068 142.985 20.208C143.172 20.348 143.475 20.418 143.895 20.418H144.357V21.664L144.007 22H143.993ZM144.025 20.754L144.361 20.418H144.655C145.29 20.418 145.738 20.348 145.999 20.208C146.261 20.0587 146.391 19.7927 146.391 19.41C146.391 19.2513 146.377 19.0507 146.349 18.808C146.331 18.5653 146.289 18.2433 146.223 17.842L145.999 16.624L147.217 16.428L147.399 17.646C147.511 18.3927 147.567 18.9807 147.567 19.41C147.567 20.2873 147.329 20.9407 146.853 21.37C146.377 21.79 145.645 22 144.655 22H144.025V20.754ZM147.273 24.898C147.059 24.898 146.886 24.8327 146.755 24.702C146.634 24.5713 146.573 24.3707 146.573 24.1C146.573 23.82 146.634 23.6147 146.755 23.484C146.886 23.3627 147.059 23.302 147.273 23.302H147.483C147.698 23.302 147.871 23.3627 148.001 23.484C148.132 23.6147 148.197 23.82 148.197 24.1C148.197 24.3707 148.132 24.5713 148.001 24.702C147.871 24.8327 147.698 24.898 147.483 24.898H147.273ZM145.299 24.898C145.085 24.898 144.912 24.8327 144.781 24.702C144.66 24.5713 144.599 24.3707 144.599 24.1C144.599 23.82 144.66 23.6147 144.781 23.484C144.912 23.3627 145.085 23.302 145.299 23.302H145.509C145.724 23.302 145.897 23.3627 146.027 23.484C146.158 23.6147 146.223 23.82 146.223 24.1C146.223 24.3707 146.158 24.5713 146.027 24.702C145.897 24.8327 145.724 24.898 145.509 24.898H145.299ZM148.703 23.778H149.235C149.711 23.778 150.108 23.7173 150.425 23.596C150.742 23.4747 150.999 23.302 151.195 23.078C151.391 22.8633 151.531 22.602 151.615 22.294C151.699 21.986 151.741 21.6407 151.741 21.258C151.741 21.006 151.727 20.7447 151.699 20.474C151.671 20.2033 151.634 19.9327 151.587 19.662L151.293 17.968L152.497 17.744L152.693 18.92C152.852 19.8253 152.931 20.6 152.931 21.244C152.931 21.8227 152.861 22.3593 152.721 22.854C152.59 23.358 152.376 23.7967 152.077 24.17C151.778 24.5433 151.396 24.8327 150.929 25.038C150.462 25.2527 149.902 25.36 149.249 25.36H148.703V23.778ZM151.573 16.316C151.358 16.316 151.186 16.2507 151.055 16.12C150.934 15.9893 150.873 15.7887 150.873 15.518C150.873 15.238 150.934 15.0373 151.055 14.916C151.186 14.7853 151.358 14.72 151.573 14.72H151.783C151.998 14.72 152.17 14.7853 152.301 14.916C152.432 15.0373 152.497 15.238 152.497 15.518C152.497 15.7887 152.432 15.9893 152.301 16.12C152.17 16.2507 151.998 16.316 151.783 16.316H151.573ZM162.711 22.168C161.713 22.168 160.873 22.112 160.191 22C159.51 21.8973 158.959 21.7293 158.539 21.496C158.119 21.2533 157.816 20.9407 157.629 20.558C157.452 20.166 157.363 19.69 157.363 19.13C157.363 18.3833 157.555 17.548 157.937 16.624L159.015 16.946C158.838 17.3193 158.703 17.6647 158.609 17.982C158.516 18.29 158.469 18.5793 158.469 18.85C158.469 19.4287 158.726 19.844 159.239 20.096C159.762 20.348 160.611 20.474 161.787 20.474H163.747C164.391 20.474 164.923 20.46 165.343 20.432C165.763 20.3947 166.095 20.334 166.337 20.25C166.589 20.1567 166.762 20.0353 166.855 19.886C166.949 19.7367 166.995 19.5453 166.995 19.312V11.64H168.297V19.312C168.297 20.0493 168.685 20.418 169.459 20.418H169.921V21.664L169.585 22C168.195 22 167.378 21.4587 167.135 20.376H167.051C166.986 20.7213 166.869 21.0107 166.701 21.244C166.533 21.468 166.281 21.65 165.945 21.79C165.619 21.93 165.189 22.028 164.657 22.084C164.135 22.14 163.486 22.168 162.711 22.168ZM161.493 17.912L163.565 16.904L163.551 16.834H162.557C162.249 16.834 162.007 16.764 161.829 16.624C161.652 16.4747 161.563 16.2367 161.563 15.91C161.563 15.658 161.647 15.434 161.815 15.238C161.983 15.0327 162.263 14.818 162.655 14.594L163.551 14.076L163.999 14.818L162.375 15.77L162.389 15.854H163.481C163.761 15.854 163.981 15.9193 164.139 16.05C164.298 16.1807 164.377 16.386 164.377 16.666C164.377 16.9833 164.303 17.2307 164.153 17.408C164.004 17.5853 163.738 17.7673 163.355 17.954L161.885 18.696L161.493 17.912ZM169.592 20.754L169.928 20.418H170.418C170.828 20.418 171.113 20.3293 171.272 20.152C171.44 19.9747 171.524 19.6947 171.524 19.312V11.64H172.84V19.312C172.84 20.236 172.653 20.9173 172.28 21.356C171.906 21.7853 171.286 22 170.418 22H169.592V20.754ZM177.353 22C176.438 22 175.78 21.8133 175.379 21.44C174.977 21.0573 174.777 20.4227 174.777 19.536V11.64H176.079V19.41C176.079 19.802 176.167 20.068 176.345 20.208C176.531 20.348 176.835 20.418 177.255 20.418H177.717V21.664L177.367 22H177.353ZM177.385 20.754L177.721 20.418H178.183C178.957 20.418 179.345 20.0493 179.345 19.312V17.184H180.563V19.312C180.563 20.0493 180.927 20.418 181.655 20.418H182.187V21.664L181.837 22C181.146 22 180.609 21.874 180.227 21.622C179.853 21.3607 179.606 20.9547 179.485 20.404H179.401C179.289 20.9827 179.079 21.3933 178.771 21.636C178.472 21.8787 178.01 22 177.385 22V20.754ZM179.835 15.756C179.62 15.756 179.447 15.6907 179.317 15.56C179.195 15.4293 179.135 15.2287 179.135 14.958C179.135 14.678 179.195 14.4773 179.317 14.356C179.447 14.2253 179.62 14.16 179.835 14.16H180.045C180.259 14.16 180.432 14.2253 180.563 14.356C180.693 14.4773 180.759 14.678 180.759 14.958C180.759 15.2287 180.693 15.4293 180.563 15.56C180.432 15.6907 180.259 15.756 180.045 15.756H179.835ZM181.855 20.754L182.191 20.418H183.997L184.025 20.348C183.251 19.6853 182.863 18.92 182.863 18.052C182.863 17.688 182.919 17.3427 183.031 17.016C183.153 16.6893 183.316 16.4 183.521 16.148C183.736 15.896 183.983 15.6907 184.263 15.532C184.543 15.364 184.847 15.266 185.173 15.238L185.621 14.384L187.791 15.574C188.305 15.854 188.743 16.1527 189.107 16.47C189.471 16.778 189.77 17.1187 190.003 17.492C190.237 17.8653 190.409 18.276 190.521 18.724C190.633 19.1627 190.689 19.6573 190.689 20.208V20.488L189.667 22H188.113C187.619 22 187.143 21.9487 186.685 21.846C186.237 21.734 185.808 21.5567 185.397 21.314C184.996 21.5567 184.567 21.734 184.109 21.846C183.652 21.9487 183.181 22 182.695 22H181.855V20.754ZM185.397 20.096C185.845 19.8347 186.191 19.5313 186.433 19.186C186.685 18.8407 186.811 18.472 186.811 18.08C186.811 17.604 186.69 17.2307 186.447 16.96C186.214 16.68 185.892 16.54 185.481 16.54H185.327C184.917 16.54 184.59 16.68 184.347 16.96C184.105 17.2307 183.983 17.604 183.983 18.08C183.983 18.472 184.105 18.8407 184.347 19.186C184.599 19.5313 184.949 19.8347 185.397 20.096ZM187.819 17.254C187.894 17.5247 187.931 17.7907 187.931 18.052C187.931 18.92 187.544 19.6853 186.769 20.348L186.797 20.418H189.527V20.292C189.527 19.564 189.392 18.962 189.121 18.486C188.86 18.01 188.435 17.59 187.847 17.226L187.819 17.254ZM207.796 22.168C207.199 22.168 206.737 22.0327 206.41 21.762C206.083 21.4913 205.869 21.0807 205.766 20.53H205.682C205.598 21.0153 205.411 21.384 205.122 21.636C204.842 21.8787 204.469 22 204.002 22H203.26C203.176 23.1573 202.812 24.0067 202.168 24.548C201.524 25.0893 200.558 25.36 199.27 25.36C197.907 25.36 196.857 25.0427 196.12 24.408C195.392 23.7733 195.028 22.8773 195.028 21.72C195.028 21.3 195.084 20.8567 195.196 20.39C195.317 19.9233 195.481 19.452 195.686 18.976L196.75 19.298C196.573 19.6713 196.428 20.0447 196.316 20.418C196.204 20.782 196.148 21.1273 196.148 21.454C196.148 22.154 196.381 22.7 196.848 23.092C197.315 23.484 197.963 23.68 198.794 23.68H199.746C200.558 23.68 201.151 23.5027 201.524 23.148C201.907 22.7933 202.098 22.238 202.098 21.482C202.098 21.2673 202.07 21.0013 202.014 20.684C201.967 20.3573 201.893 19.9467 201.79 19.452L201.594 18.542L202.798 18.304L202.98 19.214C203.027 19.4567 203.064 19.676 203.092 19.872C203.129 20.068 203.157 20.25 203.176 20.418H204.38C204.809 20.418 205.122 20.334 205.318 20.166C205.514 19.998 205.612 19.7133 205.612 19.312V18.304H206.83V19.312C206.83 19.7693 206.895 20.096 207.026 20.292C207.166 20.4787 207.385 20.572 207.684 20.572H207.908C208.44 20.572 208.706 20.2687 208.706 19.662C208.706 19.3633 208.664 18.934 208.58 18.374L208.454 17.632L209.658 17.45L209.77 18.178C209.807 18.458 209.835 18.724 209.854 18.976C209.873 19.228 209.882 19.4567 209.882 19.662C209.882 20.4833 209.705 21.1087 209.35 21.538C209.005 21.958 208.487 22.168 207.796 22.168ZM207.11 16.876C206.895 16.876 206.723 16.8107 206.592 16.68C206.461 16.5493 206.396 16.3487 206.396 16.078C206.396 15.798 206.461 15.5973 206.592 15.476C206.723 15.3453 206.895 15.28 207.11 15.28H207.306C207.521 15.28 207.693 15.3453 207.824 15.476C207.955 15.5973 208.02 15.798 208.02 16.078C208.02 16.3487 207.955 16.5493 207.824 16.68C207.693 16.8107 207.521 16.876 207.306 16.876H207.11ZM205.122 16.876C204.907 16.876 204.735 16.8107 204.604 16.68C204.483 16.5493 204.422 16.3487 204.422 16.078C204.422 15.798 204.483 15.5973 204.604 15.476C204.735 15.3453 204.907 15.28 205.122 15.28H205.332C205.547 15.28 205.719 15.3453 205.85 15.476C205.981 15.5973 206.046 15.798 206.046 16.078C206.046 16.3487 205.981 16.5493 205.85 16.68C205.719 16.8107 205.547 16.876 205.332 16.876H205.122ZM206.116 15.028C205.911 15.028 205.743 14.9673 205.612 14.846C205.481 14.7153 205.416 14.5147 205.416 14.244C205.416 13.9733 205.481 13.7773 205.612 13.656C205.743 13.5347 205.911 13.474 206.116 13.474H206.326C206.531 13.474 206.695 13.5347 206.816 13.656C206.947 13.7773 207.012 13.9733 207.012 14.244C207.012 14.5147 206.947 14.7153 206.816 14.846C206.695 14.9673 206.531 15.028 206.326 15.028H206.116ZM213.966 22C213.051 22 212.393 21.8133 211.992 21.44C211.59 21.0573 211.39 20.4227 211.39 19.536V11.64H212.692V19.41C212.692 19.802 212.78 20.068 212.958 20.208C213.144 20.348 213.448 20.418 213.868 20.418H214.33V21.664L213.98 22H213.966ZM213.998 20.754L214.334 20.418H216.182C216.574 20.418 216.868 20.3573 217.064 20.236C217.269 20.1053 217.372 19.9 217.372 19.62C217.372 19.4427 217.321 19.284 217.218 19.144C217.125 19.004 216.943 18.8313 216.672 18.626L214.474 16.932V13.992L220.802 11.486V12.998L215.048 15.28V15.364L216.658 16.652C217.003 16.9133 217.293 17.156 217.526 17.38C217.769 17.604 217.96 17.828 218.1 18.052C218.249 18.276 218.357 18.5047 218.422 18.738C218.487 18.9713 218.52 19.2187 218.52 19.48C218.52 20.3107 218.305 20.9407 217.876 21.37C217.456 21.79 216.812 22 215.944 22H213.998V20.754ZM227.17 24.254C225.864 24.254 224.856 23.932 224.146 23.288C223.446 22.6533 223.096 21.762 223.096 20.614C223.096 20.1847 223.152 19.7227 223.264 19.228C223.386 18.724 223.549 18.2293 223.754 17.744L224.818 18.066C224.641 18.4487 224.496 18.8407 224.384 19.242C224.272 19.6433 224.216 20.0073 224.216 20.334C224.216 21.034 224.436 21.58 224.874 21.972C225.313 22.364 225.92 22.56 226.694 22.56H227.66C228.566 22.56 229.228 22.3733 229.648 22C230.078 21.6173 230.292 21.0153 230.292 20.194C230.292 19.9327 230.269 19.634 230.222 19.298C230.176 18.9527 230.106 18.556 230.012 18.108L229.746 16.876L230.964 16.638L231.188 17.856C231.282 18.3507 231.352 18.7893 231.398 19.172C231.445 19.5547 231.468 19.8953 231.468 20.194C231.468 21.5847 231.123 22.6067 230.432 23.26C229.742 23.9227 228.654 24.254 227.17 24.254ZM227.226 16.638C227.012 16.638 226.839 16.5727 226.708 16.442C226.587 16.3113 226.526 16.1107 226.526 15.84C226.526 15.56 226.587 15.3593 226.708 15.238C226.839 15.1073 227.012 15.042 227.226 15.042H227.436C227.651 15.042 227.824 15.1073 227.954 15.238C228.085 15.3593 228.15 15.56 228.15 15.84C228.15 16.1107 228.085 16.3113 227.954 16.442C227.824 16.5727 227.651 16.638 227.436 16.638H227.226ZM232.419 23.778H233.231C234.211 23.778 234.976 23.6193 235.527 23.302C236.077 22.994 236.441 22.56 236.619 22H234.939C234.183 22 233.595 21.7947 233.175 21.384C232.764 20.9733 232.559 20.39 232.559 19.634C232.559 19.186 232.624 18.766 232.755 18.374C232.895 17.982 233.081 17.646 233.315 17.366C233.557 17.0767 233.842 16.848 234.169 16.68C234.495 16.512 234.855 16.428 235.247 16.428C236.068 16.428 236.707 16.778 237.165 17.478C237.631 18.178 237.874 19.158 237.893 20.418H238.551V21.664L238.215 22H237.739C237.505 23.0733 237.015 23.8993 236.269 24.478C235.531 25.066 234.537 25.36 233.287 25.36H232.419V23.778ZM233.721 19.438C233.721 19.7833 233.828 20.0353 234.043 20.194C234.257 20.3433 234.575 20.418 234.995 20.418H236.731V20.152C236.731 19.508 236.581 18.9947 236.283 18.612C235.984 18.22 235.597 18.024 235.121 18.024C234.691 18.024 234.351 18.1547 234.099 18.416C233.847 18.6773 233.721 19.018 233.721 19.438ZM238.211 20.754L238.547 20.418H241.221C241.93 20.418 242.453 20.3013 242.789 20.068C243.134 19.8347 243.307 19.4147 243.307 18.808V18.276H243.237C243.097 18.6213 242.873 18.8827 242.565 19.06C242.266 19.2373 241.898 19.326 241.459 19.326C240.703 19.326 240.115 19.13 239.695 18.738C239.284 18.346 239.079 17.8 239.079 17.1C239.079 16.6613 239.144 16.2507 239.275 15.868C239.415 15.476 239.602 15.14 239.835 14.86C240.078 14.5707 240.362 14.3467 240.689 14.188C241.016 14.02 241.375 13.936 241.767 13.936C242.616 13.936 243.279 14.3 243.755 15.028C244.24 15.756 244.483 16.764 244.483 18.052C244.483 18.8173 244.422 19.4567 244.301 19.97C244.18 20.474 243.984 20.8753 243.713 21.174C243.452 21.4727 243.116 21.6873 242.705 21.818C242.294 21.9393 241.8 22 241.221 22H238.211V20.754ZM241.795 17.842C242.187 17.842 242.5 17.814 242.733 17.758C242.966 17.702 243.153 17.618 243.293 17.506C243.256 16.8993 243.088 16.4187 242.789 16.064C242.5 15.7 242.117 15.518 241.641 15.518C241.212 15.518 240.871 15.6487 240.619 15.91C240.367 16.162 240.241 16.4933 240.241 16.904C240.241 17.2307 240.348 17.4687 240.563 17.618C240.778 17.7673 241.095 17.842 241.515 17.842H241.795ZM241.655 12.508C241.44 12.508 241.268 12.4427 241.137 12.312C241.016 12.1813 240.955 11.9807 240.955 11.71C240.955 11.43 241.016 11.2293 241.137 11.108C241.268 10.9773 241.44 10.912 241.655 10.912H241.865C242.08 10.912 242.252 10.9773 242.383 11.108C242.514 11.2293 242.579 11.43 242.579 11.71C242.579 11.9807 242.514 12.1813 242.383 12.312C242.252 12.4427 242.08 12.508 241.865 12.508H241.655ZM246.007 11.64H247.309V22H246.007V11.64ZM250.227 22C249.751 22 249.378 21.874 249.107 21.622C248.837 21.37 248.701 20.978 248.701 20.446V19.424H249.947V20.418H252.187C252.626 20.418 252.925 20.3293 253.083 20.152C253.251 19.9747 253.335 19.7507 253.335 19.48C253.335 19.2 253.228 18.9013 253.013 18.584C252.799 18.2667 252.43 17.856 251.907 17.352L250.479 15.882L251.613 14.734L252.901 16.134C253.209 16.4607 253.466 16.7687 253.671 17.058C253.886 17.338 254.059 17.6133 254.189 17.884C254.32 18.1453 254.413 18.4113 254.469 18.682C254.535 18.9433 254.567 19.228 254.567 19.536C254.567 20.3107 254.348 20.9173 253.909 21.356C253.471 21.7853 252.85 22 252.047 22H250.227ZM255.538 23.778H256.35C257.33 23.778 258.095 23.6193 258.646 23.302C259.197 22.994 259.561 22.56 259.738 22H258.058C257.302 22 256.714 21.7947 256.294 21.384C255.883 20.9733 255.678 20.39 255.678 19.634C255.678 19.186 255.743 18.766 255.874 18.374C256.014 17.982 256.201 17.646 256.434 17.366C256.677 17.0767 256.961 16.848 257.288 16.68C257.615 16.512 257.974 16.428 258.366 16.428C259.187 16.428 259.827 16.778 260.284 17.478C260.751 18.178 260.993 19.158 261.012 20.418H261.67V21.664L261.334 22H260.858C260.625 23.0733 260.135 23.8993 259.388 24.478C258.651 25.066 257.657 25.36 256.406 25.36H255.538V23.778ZM256.84 19.438C256.84 19.7833 256.947 20.0353 257.162 20.194C257.377 20.3433 257.694 20.418 258.114 20.418H259.85V20.152C259.85 19.508 259.701 18.9947 259.402 18.612C259.103 18.22 258.716 18.024 258.24 18.024C257.811 18.024 257.47 18.1547 257.218 18.416C256.966 18.6773 256.84 19.018 256.84 19.438ZM261.33 20.754L261.666 20.418H264.34C265.049 20.418 265.572 20.3013 265.908 20.068C266.253 19.8347 266.426 19.4147 266.426 18.808V18.276H266.356C266.216 18.6213 265.992 18.8827 265.684 19.06C265.385 19.2373 265.017 19.326 264.578 19.326C263.822 19.326 263.234 19.13 262.814 18.738C262.403 18.346 262.198 17.8 262.198 17.1C262.198 16.6613 262.263 16.2507 262.394 15.868C262.534 15.476 262.721 15.14 262.954 14.86C263.197 14.5707 263.481 14.3467 263.808 14.188C264.135 14.02 264.494 13.936 264.886 13.936C265.735 13.936 266.398 14.3 266.874 15.028C267.359 15.756 267.602 16.764 267.602 18.052C267.602 18.8173 267.541 19.4567 267.42 19.97C267.299 20.474 267.103 20.8753 266.832 21.174C266.571 21.4727 266.235 21.6873 265.824 21.818C265.413 21.9393 264.919 22 264.34 22H261.33V20.754ZM264.914 17.842C265.306 17.842 265.619 17.814 265.852 17.758C266.085 17.702 266.272 17.618 266.412 17.506C266.375 16.8993 266.207 16.4187 265.908 16.064C265.619 15.7 265.236 15.518 264.76 15.518C264.331 15.518 263.99 15.6487 263.738 15.91C263.486 16.162 263.36 16.4933 263.36 16.904C263.36 17.2307 263.467 17.4687 263.682 17.618C263.897 17.7673 264.214 17.842 264.634 17.842H264.914ZM264.774 12.508C264.559 12.508 264.387 12.4427 264.256 12.312C264.135 12.1813 264.074 11.9807 264.074 11.71C264.074 11.43 264.135 11.2293 264.256 11.108C264.387 10.9773 264.559 10.912 264.774 10.912H264.984C265.199 10.912 265.371 10.9773 265.502 11.108C265.633 11.2293 265.698 11.43 265.698 11.71C265.698 11.9807 265.633 12.1813 265.502 12.312C265.371 12.4427 265.199 12.508 264.984 12.508H264.774ZM276.383 25.304C274.964 25.304 273.877 24.982 273.121 24.338C272.374 23.7033 272.001 22.8073 272.001 21.65C272.001 21.23 272.057 20.768 272.169 20.264C272.29 19.76 272.453 19.2653 272.659 18.78L273.723 19.102C273.545 19.4847 273.401 19.8813 273.289 20.292C273.177 20.6933 273.121 21.0573 273.121 21.384C273.121 22.084 273.363 22.63 273.849 23.022C274.343 23.414 275.029 23.61 275.907 23.61H276.859C277.82 23.61 278.534 23.4793 279.001 23.218C279.477 22.966 279.766 22.56 279.869 22H278.119C277.363 22 276.775 21.7947 276.355 21.384C275.944 20.9733 275.739 20.39 275.739 19.634C275.739 19.186 275.804 18.766 275.935 18.374C276.075 17.982 276.261 17.646 276.495 17.366C276.737 17.0767 277.022 16.848 277.349 16.68C277.675 16.512 278.035 16.428 278.427 16.428C279.22 16.428 279.845 16.778 280.303 17.478C280.76 18.178 281.012 19.158 281.059 20.418H281.731V21.664L281.395 22H280.989C280.905 22.5787 280.751 23.078 280.527 23.498C280.312 23.918 280.018 24.2587 279.645 24.52C279.271 24.7907 278.814 24.9867 278.273 25.108C277.731 25.2387 277.101 25.304 276.383 25.304ZM276.901 19.438C276.901 19.7833 277.008 20.0353 277.223 20.194C277.437 20.3433 277.755 20.418 278.175 20.418H279.911V20.208C279.911 19.536 279.761 19.004 279.463 18.612C279.173 18.22 278.786 18.024 278.301 18.024C277.871 18.024 277.531 18.1547 277.279 18.416C277.027 18.6773 276.901 19.018 276.901 19.438ZM279.281 15C279.066 15 278.893 14.9347 278.763 14.804C278.641 14.6733 278.581 14.4727 278.581 14.202C278.581 13.922 278.641 13.7213 278.763 13.6C278.893 13.4693 279.066 13.404 279.281 13.404H279.491C279.705 13.404 279.878 13.4693 280.009 13.6C280.139 13.7213 280.205 13.922 280.205 14.202C280.205 14.4727 280.139 14.6733 280.009 14.804C279.878 14.9347 279.705 15 279.491 15H279.281ZM277.307 15C277.092 15 276.919 14.9347 276.789 14.804C276.667 14.6733 276.607 14.4727 276.607 14.202C276.607 13.922 276.667 13.7213 276.789 13.6C276.919 13.4693 277.092 13.404 277.307 13.404H277.517C277.731 13.404 277.904 13.4693 278.035 13.6C278.165 13.7213 278.231 13.922 278.231 14.202C278.231 14.4727 278.165 14.6733 278.035 14.804C277.904 14.9347 277.731 15 277.517 15H277.307ZM281.4 20.754L281.736 20.418H282.03C282.665 20.418 283.113 20.348 283.374 20.208C283.636 20.0587 283.766 19.7927 283.766 19.41C283.766 19.2513 283.752 19.0507 283.724 18.808C283.706 18.5653 283.664 18.2433 283.598 17.842L283.374 16.624L284.592 16.428L284.774 17.646C284.886 18.3927 284.942 18.9807 284.942 19.41C284.942 20.2873 284.704 20.9407 284.228 21.37C283.752 21.79 283.02 22 282.03 22H281.4V20.754ZM284.648 24.898C284.434 24.898 284.261 24.8327 284.13 24.702C284.009 24.5713 283.948 24.3707 283.948 24.1C283.948 23.82 284.009 23.6147 284.13 23.484C284.261 23.3627 284.434 23.302 284.648 23.302H284.858C285.073 23.302 285.246 23.3627 285.376 23.484C285.507 23.6147 285.572 23.82 285.572 24.1C285.572 24.3707 285.507 24.5713 285.376 24.702C285.246 24.8327 285.073 24.898 284.858 24.898H284.648ZM282.674 24.898C282.46 24.898 282.287 24.8327 282.156 24.702C282.035 24.5713 281.974 24.3707 281.974 24.1C281.974 23.82 282.035 23.6147 282.156 23.484C282.287 23.3627 282.46 23.302 282.674 23.302H282.884C283.099 23.302 283.272 23.3627 283.402 23.484C283.533 23.6147 283.598 23.82 283.598 24.1C283.598 24.3707 283.533 24.5713 283.402 24.702C283.272 24.8327 283.099 24.898 282.884 24.898H282.674ZM286.078 23.778H286.61C287.086 23.778 287.483 23.7173 287.8 23.596C288.117 23.4747 288.374 23.302 288.57 23.078C288.766 22.8633 288.906 22.602 288.99 22.294C289.074 21.986 289.116 21.6407 289.116 21.258C289.116 21.006 289.102 20.7447 289.074 20.474C289.046 20.2033 289.009 19.9327 288.962 19.662L288.668 17.968L289.872 17.744L290.068 18.92C290.115 19.1907 290.152 19.452 290.18 19.704C290.217 19.956 290.245 20.194 290.264 20.418H291.566V21.664L291.23 22H290.264C290.208 22.4853 290.096 22.9333 289.928 23.344C289.76 23.7547 289.527 24.1093 289.228 24.408C288.939 24.7067 288.579 24.94 288.15 25.108C287.721 25.276 287.212 25.36 286.624 25.36H286.078V23.778ZM293.848 17.744L293.918 17.786C294.469 17.1047 295.038 16.6287 295.626 16.358C296.224 16.078 296.872 15.938 297.572 15.938C298.562 15.938 299.318 16.2133 299.84 16.764C300.363 17.3053 300.624 18.0567 300.624 19.018C300.624 20.0727 300.344 20.8333 299.784 21.3C299.224 21.7667 298.37 22 297.222 22H291.23V20.754L291.566 20.418H292.238L292.7 19.648V11.64H294.016V16.106L293.848 17.744ZM297.222 20.418C298.006 20.418 298.576 20.32 298.93 20.124C299.285 19.928 299.462 19.5687 299.462 19.046C299.462 18.038 298.902 17.534 297.782 17.534H297.362C296.97 17.534 296.62 17.562 296.312 17.618C296.004 17.674 295.715 17.772 295.444 17.912C295.183 18.052 294.936 18.2433 294.702 18.486C294.469 18.7287 294.226 19.0367 293.974 19.41L293.372 20.334L293.414 20.418H297.222ZM309.092 25.36C307.786 25.36 306.778 25.0427 306.068 24.408C305.368 23.7733 305.018 22.8773 305.018 21.72C305.018 21.3 305.074 20.838 305.186 20.334C305.308 19.83 305.471 19.3353 305.676 18.85L306.74 19.172C306.563 19.5547 306.418 19.9467 306.306 20.348C306.194 20.7493 306.138 21.1133 306.138 21.44C306.138 22.1493 306.358 22.6953 306.796 23.078C307.235 23.47 307.842 23.666 308.616 23.666H309.582C310.488 23.666 311.15 23.4747 311.57 23.092C312 22.7187 312.214 22.1213 312.214 21.3C312.214 21.0387 312.191 20.74 312.144 20.404C312.098 20.0587 312.028 19.662 311.934 19.214L311.668 17.996L312.886 17.758L313.11 18.962C313.157 19.242 313.199 19.5033 313.236 19.746C313.283 19.9793 313.316 20.2033 313.334 20.418H314.65V21.664L314.314 22H313.348C313.246 23.148 312.849 23.9927 312.158 24.534C311.468 25.0847 310.446 25.36 309.092 25.36ZM309.148 17.73C308.934 17.73 308.761 17.6647 308.63 17.534C308.509 17.4033 308.448 17.2027 308.448 16.932C308.448 16.652 308.509 16.4513 308.63 16.33C308.761 16.1993 308.934 16.134 309.148 16.134H309.358C309.573 16.134 309.746 16.1993 309.876 16.33C310.007 16.4513 310.072 16.652 310.072 16.932C310.072 17.2027 310.007 17.4033 309.876 17.534C309.746 17.6647 309.573 17.73 309.358 17.73H309.148ZM314.309 20.754L314.645 20.418H316.129V20.348C315.858 20.1053 315.634 19.7973 315.457 19.424C315.289 19.0507 315.205 18.6447 315.205 18.206C315.205 17.7767 315.279 17.3753 315.429 17.002C315.578 16.6287 315.779 16.3113 316.031 16.05C316.292 15.7793 316.595 15.5693 316.941 15.42C317.295 15.2613 317.678 15.182 318.089 15.182C318.705 15.182 319.227 15.3127 319.657 15.574C320.095 15.826 320.455 16.1807 320.735 16.638L319.699 17.674C319.475 17.3567 319.223 17.128 318.943 16.988C318.672 16.8387 318.355 16.764 317.991 16.764C317.468 16.764 317.062 16.8947 316.773 17.156C316.493 17.408 316.353 17.758 316.353 18.206C316.353 18.71 316.558 19.1207 316.969 19.438C317.389 19.746 317.935 19.9 318.607 19.9C319.064 19.9 319.526 19.8347 319.993 19.704L321.225 19.382L321.603 20.824L319.671 21.37C319.241 21.5007 318.835 21.608 318.453 21.692C318.079 21.7667 317.687 21.8273 317.277 21.874C316.875 21.9207 316.437 21.9533 315.961 21.972C315.485 21.9907 314.934 22 314.309 22V20.754ZM329.427 26.256C328.177 26.256 327.206 25.9853 326.515 25.444C325.825 24.9027 325.479 24.1327 325.479 23.134C325.479 22.7887 325.521 22.4667 325.605 22.168C325.699 21.8787 325.857 21.594 326.081 21.314C326.305 21.0247 326.604 20.74 326.977 20.46C327.36 20.18 327.841 19.8813 328.419 19.564L326.543 17.24V15.616C326.982 15.4013 327.449 15.238 327.943 15.126C328.438 15.0047 328.923 14.944 329.399 14.944C330.351 14.944 331.07 15.126 331.555 15.49C332.041 15.854 332.283 16.386 332.283 17.086C332.283 17.6087 332.153 18.0753 331.891 18.486C331.639 18.8873 331.187 19.2747 330.533 19.648L330.239 19.816C330.379 19.9467 330.519 20.0493 330.659 20.124C330.809 20.1987 330.967 20.2593 331.135 20.306C331.303 20.3527 331.485 20.3853 331.681 20.404C331.887 20.4133 332.115 20.418 332.367 20.418H333.529V21.664L333.249 22H332.311C331.975 22 331.672 21.9813 331.401 21.944C331.14 21.8973 330.888 21.818 330.645 21.706C330.403 21.5847 330.16 21.4213 329.917 21.216C329.684 21.0107 329.427 20.7493 329.147 20.432L329.119 20.446C328.671 20.7073 328.293 20.9407 327.985 21.146C327.677 21.3513 327.43 21.5473 327.243 21.734C327.057 21.9113 326.921 22.0887 326.837 22.266C326.763 22.4433 326.725 22.63 326.725 22.826V22.966C326.725 23.4887 326.963 23.8947 327.439 24.184C327.915 24.4827 328.592 24.632 329.469 24.632C330.048 24.632 330.589 24.52 331.093 24.296C331.597 24.072 332.064 23.722 332.493 23.246L333.375 24.492C332.293 25.668 330.977 26.256 329.427 26.256ZM327.663 16.834L329.469 18.99L330.015 18.696C330.435 18.472 330.725 18.262 330.883 18.066C331.051 17.8607 331.135 17.6413 331.135 17.408C331.135 16.8293 330.552 16.54 329.385 16.54C329.105 16.54 328.816 16.5633 328.517 16.61C328.219 16.6473 327.934 16.7033 327.663 16.778V16.834ZM333.189 20.754L333.525 20.418H336.199C336.909 20.418 337.431 20.3013 337.767 20.068C338.113 19.8347 338.285 19.4147 338.285 18.808V18.276H338.215C338.075 18.6213 337.851 18.8827 337.543 19.06C337.245 19.2373 336.876 19.326 336.437 19.326C335.681 19.326 335.093 19.13 334.673 18.738C334.263 18.346 334.057 17.8 334.057 17.1C334.057 16.6613 334.123 16.2507 334.253 15.868C334.393 15.476 334.58 15.14 334.813 14.86C335.056 14.5707 335.341 14.3467 335.667 14.188C335.994 14.02 336.353 13.936 336.745 13.936C337.595 13.936 338.257 14.3 338.733 15.028C339.219 15.756 339.461 16.764 339.461 18.052C339.461 18.8173 339.401 19.4567 339.279 19.97C339.158 20.474 338.962 20.8753 338.691 21.174C338.43 21.4727 338.094 21.6873 337.683 21.818C337.273 21.9393 336.778 22 336.199 22H333.189V20.754ZM336.773 17.842C337.165 17.842 337.478 17.814 337.711 17.758C337.945 17.702 338.131 17.618 338.271 17.506C338.234 16.8993 338.066 16.4187 337.767 16.064C337.478 15.7 337.095 15.518 336.619 15.518C336.19 15.518 335.849 15.6487 335.597 15.91C335.345 16.162 335.219 16.4933 335.219 16.904C335.219 17.2307 335.327 17.4687 335.541 17.618C335.756 17.7673 336.073 17.842 336.493 17.842H336.773ZM336.633 12.508C336.419 12.508 336.246 12.4427 336.115 12.312C335.994 12.1813 335.933 11.9807 335.933 11.71C335.933 11.43 335.994 11.2293 336.115 11.108C336.246 10.9773 336.419 10.912 336.633 10.912H336.843C337.058 10.912 337.231 10.9773 337.361 11.108C337.492 11.2293 337.557 11.43 337.557 11.71C337.557 11.9807 337.492 12.1813 337.361 12.312C337.231 12.4427 337.058 12.508 336.843 12.508H336.633ZM341.966 22C341.49 22 341.116 21.874 340.846 21.622C340.575 21.37 340.44 20.978 340.44 20.446V19.424H341.686V20.418H343.59C344.084 20.418 344.425 20.376 344.612 20.292C344.798 20.208 344.892 20.0493 344.892 19.816C344.892 19.7133 344.868 19.5873 344.822 19.438C344.775 19.2793 344.71 19.0787 344.626 18.836L343.324 15.21L344.654 14.734L346.082 18.696C346.203 19.0413 346.315 19.326 346.418 19.55C346.53 19.7647 346.642 19.9373 346.754 20.068C346.866 20.1987 346.982 20.292 347.104 20.348C347.234 20.3947 347.384 20.418 347.552 20.418H347.93V21.664L347.58 22C347.272 22 347.001 21.9767 346.768 21.93C346.534 21.874 346.324 21.79 346.138 21.678C345.96 21.5567 345.797 21.398 345.648 21.202C345.508 21.006 345.368 20.7587 345.228 20.46L345.158 20.474C345.074 21.0247 344.887 21.4167 344.598 21.65C344.308 21.8833 343.865 22 343.268 22H341.966ZM347.6 20.754L347.936 20.418H348.426C348.836 20.418 349.121 20.3293 349.28 20.152C349.448 19.9747 349.532 19.6947 349.532 19.312V11.64H350.848V19.312C350.848 20.236 350.661 20.9173 350.288 21.356C349.914 21.7853 349.294 22 348.426 22H347.6V20.754ZM352.784 11.64H354.086V22H352.784V11.64ZM360.313 22C359.837 22 359.464 21.874 359.193 21.622C358.923 21.37 358.787 20.978 358.787 20.446V19.424H360.033V20.418H361.937C362.432 20.418 362.773 20.376 362.959 20.292C363.146 20.208 363.239 20.0493 363.239 19.816C363.239 19.7133 363.216 19.5873 363.169 19.438C363.123 19.2793 363.057 19.0787 362.973 18.836L361.671 15.21L363.001 14.734L364.429 18.696C364.551 19.0413 364.663 19.326 364.765 19.55C364.877 19.7647 364.989 19.9373 365.101 20.068C365.213 20.1987 365.33 20.292 365.451 20.348C365.582 20.3947 365.731 20.418 365.899 20.418H366.277V21.664L365.927 22C365.619 22 365.349 21.9767 365.115 21.93C364.882 21.874 364.672 21.79 364.485 21.678C364.308 21.5567 364.145 21.398 363.995 21.202C363.855 21.006 363.715 20.7587 363.575 20.46L363.505 20.474C363.421 21.0247 363.235 21.4167 362.945 21.65C362.656 21.8833 362.213 22 361.615 22H360.313ZM365.947 20.754L366.283 20.418H366.745C367.52 20.418 367.907 20.0493 367.907 19.312V17.184H369.125V19.312C369.125 20.0493 369.489 20.418 370.217 20.418H370.749V21.664L370.399 22C369.709 22 369.172 21.874 368.789 21.622C368.416 21.3607 368.169 20.9547 368.047 20.404H367.963C367.851 20.9827 367.641 21.3933 367.333 21.636C367.035 21.8787 366.573 22 365.947 22V20.754ZM368.397 15.756C368.183 15.756 368.01 15.6907 367.879 15.56C367.758 15.4293 367.697 15.2287 367.697 14.958C367.697 14.678 367.758 14.4773 367.879 14.356C368.01 14.2253 368.183 14.16 368.397 14.16H368.607C368.822 14.16 368.995 14.2253 369.125 14.356C369.256 14.4773 369.321 14.678 369.321 14.958C369.321 15.2287 369.256 15.4293 369.125 15.56C368.995 15.6907 368.822 15.756 368.607 15.756H368.397ZM370.418 20.754L370.754 20.418H372.238V20.348C371.967 20.1053 371.743 19.7973 371.566 19.424C371.398 19.0507 371.314 18.6447 371.314 18.206C371.314 17.7767 371.389 17.3753 371.538 17.002C371.687 16.6287 371.888 16.3113 372.14 16.05C372.401 15.7793 372.705 15.5693 373.05 15.42C373.405 15.2613 373.787 15.182 374.198 15.182C374.814 15.182 375.337 15.3127 375.766 15.574C376.205 15.826 376.564 16.1807 376.844 16.638L375.808 17.674C375.584 17.3567 375.332 17.128 375.052 16.988C374.781 16.8387 374.464 16.764 374.1 16.764C373.577 16.764 373.171 16.8947 372.882 17.156C372.602 17.408 372.462 17.758 372.462 18.206C372.462 18.71 372.667 19.1207 373.078 19.438C373.498 19.746 374.044 19.9 374.716 19.9C375.173 19.9 375.635 19.8347 376.102 19.704L377.334 19.382L377.712 20.824L375.78 21.37C375.351 21.5007 374.945 21.608 374.562 21.692C374.189 21.7667 373.797 21.8273 373.386 21.874C372.985 21.9207 372.546 21.9533 372.07 21.972C371.594 21.9907 371.043 22 370.418 22V20.754Z" fill="#F16333"/>
</svg>
