<svg width="23" height="23" viewBox="0 0 23 23" fill="none" xmlns="http://www.w3.org/2000/svg">
<path d="M22.7709 6.9001C22.7709 6.9001 22.5463 5.31436 21.8545 4.61807C20.9785 3.70166 19.9992 3.69717 19.55 3.64326C16.3336 3.40967 11.5045 3.40967 11.5045 3.40967H11.4955C11.4955 3.40967 6.66641 3.40967 3.45 3.64326C3.00078 3.69717 2.02148 3.70166 1.14551 4.61807C0.453711 5.31436 0.233594 6.9001 0.233594 6.9001C0.233594 6.9001 0 8.76436 0 10.6241V12.3671C0 14.2269 0.229102 16.0911 0.229102 16.0911C0.229102 16.0911 0.453711 17.6769 1.14102 18.3731C2.01699 19.2896 3.16699 19.2581 3.6791 19.3569C5.5209 19.5321 11.5 19.586 11.5 19.586C11.5 19.586 16.3336 19.5771 19.55 19.3479C19.9992 19.294 20.9785 19.2896 21.8545 18.3731C22.5463 17.6769 22.7709 16.0911 22.7709 16.0911C22.7709 16.0911 23 14.2313 23 12.3671V10.6241C23 8.76436 22.7709 6.9001 22.7709 6.9001ZM9.12363 14.4829V8.01865L15.3363 11.262L9.12363 14.4829Z" fill="white"/>
</svg>
